%TF.GenerationSoftware,KiCad,Pcbnew,(6.0.5)*%
%TF.CreationDate,2022-06-25T17:15:00+09:00*%
%TF.ProjectId,test,74657374-2e6b-4696-9361-645f70636258,0*%
%TF.SameCoordinates,Original*%
%TF.FileFunction,Copper,L2,Bot*%
%TF.FilePolarity,Positive*%
%FSLAX46Y46*%
G04 Gerber Fmt 4.6, Leading zero omitted, Abs format (unit mm)*
G04 Created by KiCad (PCBNEW (6.0.5)) date 2022-06-25 17:15:00*
%MOMM*%
%LPD*%
G01*
G04 APERTURE LIST*
%TA.AperFunction,ComponentPad*%
%ADD10C,3.500000*%
%TD*%
%TA.AperFunction,ComponentPad*%
%ADD11O,2.000000X1.200000*%
%TD*%
%TA.AperFunction,ComponentPad*%
%ADD12O,1.200000X2.000000*%
%TD*%
%TA.AperFunction,ComponentPad*%
%ADD13R,1.560000X1.560000*%
%TD*%
%TA.AperFunction,ComponentPad*%
%ADD14C,1.560000*%
%TD*%
%TA.AperFunction,Conductor*%
%ADD15C,0.250000*%
%TD*%
G04 APERTURE END LIST*
D10*
%TO.P,REF\u002A\u002A,1*%
%TO.N,GND*%
X40640000Y-154940000D03*
%TD*%
%TO.P,REF\u002A\u002A,1*%
%TO.N,GND*%
X86360000Y-86360000D03*
%TD*%
D11*
%TO.P,CNN_Vib_M1,1,CH1*%
%TO.N,+5V*%
X45720000Y-127000000D03*
%TO.P,CNN_Vib_M1,2,CH2*%
%TO.N,GND*%
X45720000Y-124460000D03*
%TO.P,CNN_Vib_M1,3,CH3*%
%TO.N,Net-(U1-Pad8)*%
X45720000Y-121920000D03*
%TD*%
D12*
%TO.P,CNN_V5,1,CH1*%
%TO.N,+5V*%
X82550000Y-154940000D03*
%TO.P,CNN_V5,2,CH2*%
%TO.N,GND*%
X85090000Y-154940000D03*
%TD*%
%TO.P,U3,1,CommonAnode1*%
%TO.N,+5V*%
X66040000Y-91440000D03*
%TO.P,U3,2,BlueCathode*%
%TO.N,Net-(R1-Pad2)*%
X71120000Y-91440000D03*
%TO.P,U3,3,GreenCathode*%
%TO.N,Net-(R3-Pad2)*%
X71120000Y-86360000D03*
%TO.P,U3,4,RedCathode*%
%TO.N,Net-(R2-Pad2)*%
X66040000Y-86360000D03*
%TD*%
D11*
%TO.P,U2,1,VCC*%
%TO.N,+5V*%
X83820000Y-130810000D03*
%TO.P,U2,2,GND*%
%TO.N,GND*%
X83820000Y-133350000D03*
%TO.P,U2,3,SCL*%
%TO.N,Net-(U1-Pad22)*%
X83820000Y-135890000D03*
%TO.P,U2,4,SDA*%
%TO.N,Net-(U1-Pad25)*%
X83820000Y-138430000D03*
%TO.P,U2,5,XDA*%
%TO.N,unconnected-(U2-Pad5)*%
X83820000Y-140970000D03*
%TO.P,U2,6,XCL*%
%TO.N,unconnected-(U2-Pad6)*%
X83820000Y-143510000D03*
%TO.P,U2,7,ADD*%
%TO.N,unconnected-(U2-Pad7)*%
X83820000Y-146050000D03*
%TO.P,U2,8,INT*%
%TO.N,unconnected-(U2-Pad8)*%
X83820000Y-148590000D03*
%TD*%
D13*
%TO.P,U1,1,3V3*%
%TO.N,Net-(R5-Pad2)*%
X50800000Y-104140000D03*
D14*
%TO.P,U1,2,EN*%
%TO.N,unconnected-(U1-Pad2)*%
X50800000Y-106680000D03*
%TO.P,U1,19,EXT_5V*%
%TO.N,+5V*%
X50800000Y-149860000D03*
%TO.P,U1,3,SENSOR_VP*%
%TO.N,unconnected-(U1-Pad3)*%
X50800000Y-109220000D03*
%TO.P,U1,4,SENSOR_VN*%
%TO.N,unconnected-(U1-Pad4)*%
X50800000Y-111760000D03*
%TO.P,U1,5,IO34*%
%TO.N,Net-(U1-Pad5)*%
X50800000Y-114300000D03*
%TO.P,U1,6,IO35*%
%TO.N,unconnected-(U1-Pad6)*%
X50800000Y-116840000D03*
%TO.P,U1,7,IO32*%
%TO.N,Net-(U1-Pad7)*%
X50800000Y-119380000D03*
%TO.P,U1,8,IO33*%
%TO.N,Net-(U1-Pad8)*%
X50800000Y-121920000D03*
%TO.P,U1,9,IO25*%
%TO.N,Net-(U1-Pad9)*%
X50800000Y-124460000D03*
%TO.P,U1,10,IO26*%
%TO.N,Net-(U1-Pad10)*%
X50800000Y-127000000D03*
%TO.P,U1,11,IO27*%
%TO.N,Net-(U1-Pad11)*%
X50800000Y-129540000D03*
%TO.P,U1,12,IO14*%
%TO.N,unconnected-(U1-Pad12)*%
X50800000Y-132080000D03*
%TO.P,U1,13,IO12*%
%TO.N,unconnected-(U1-Pad13)*%
X50800000Y-134620000D03*
%TO.P,U1,14,GND1*%
%TO.N,unconnected-(U1-Pad14)*%
X50800000Y-137160000D03*
%TO.P,U1,15,IO13*%
%TO.N,unconnected-(U1-Pad15)*%
X50800000Y-139700000D03*
%TO.P,U1,16,SD2*%
%TO.N,unconnected-(U1-Pad16)*%
X50800000Y-142240000D03*
%TO.P,U1,17,SD3*%
%TO.N,unconnected-(U1-Pad17)*%
X50800000Y-144780000D03*
%TO.P,U1,18,CMD*%
%TO.N,unconnected-(U1-Pad18)*%
X50800000Y-147320000D03*
%TO.P,U1,20,GND3*%
%TO.N,GND*%
X76200000Y-104140000D03*
%TO.P,U1,21,IO23*%
%TO.N,unconnected-(U1-Pad21)*%
X76200000Y-106680000D03*
%TO.P,U1,22,IO22*%
%TO.N,Net-(U1-Pad22)*%
X76200000Y-109220000D03*
%TO.P,U1,23,TXD0*%
%TO.N,Net-(U1-Pad23)*%
X76200000Y-111760000D03*
%TO.P,U1,24,RXD0*%
%TO.N,Net-(U1-Pad24)*%
X76200000Y-114300000D03*
%TO.P,U1,25,IO21*%
%TO.N,Net-(U1-Pad25)*%
X76200000Y-116840000D03*
%TO.P,U1,26,GND2*%
%TO.N,unconnected-(U1-Pad26)*%
X76200000Y-119380000D03*
%TO.P,U1,27,IO19*%
%TO.N,unconnected-(U1-Pad27)*%
X76200000Y-121920000D03*
%TO.P,U1,28,IO18*%
%TO.N,unconnected-(U1-Pad28)*%
X76200000Y-124460000D03*
%TO.P,U1,29,IO5*%
%TO.N,unconnected-(U1-Pad29)*%
X76200000Y-127000000D03*
%TO.P,U1,30,IO17*%
%TO.N,unconnected-(U1-Pad30)*%
X76200000Y-129540000D03*
%TO.P,U1,31,IO16*%
%TO.N,Net-(U1-Pad31)*%
X76200000Y-132080000D03*
%TO.P,U1,32,IO4*%
%TO.N,unconnected-(U1-Pad32)*%
X76200000Y-134620000D03*
%TO.P,U1,33,IO0*%
%TO.N,unconnected-(U1-Pad33)*%
X76200000Y-137160000D03*
%TO.P,U1,34,IO2*%
%TO.N,unconnected-(U1-Pad34)*%
X76200000Y-139700000D03*
%TO.P,U1,35,IO15*%
%TO.N,unconnected-(U1-Pad35)*%
X76200000Y-142240000D03*
%TO.P,U1,36,SD1*%
%TO.N,unconnected-(U1-Pad36)*%
X76200000Y-144780000D03*
%TO.P,U1,37,SD0*%
%TO.N,unconnected-(U1-Pad37)*%
X76200000Y-147320000D03*
%TO.P,U1,38,CLK*%
%TO.N,unconnected-(U1-Pad38)*%
X76200000Y-149860000D03*
%TD*%
D12*
%TO.P,R5,1*%
%TO.N,Net-(U1-Pad31)*%
X49530000Y-91440000D03*
%TO.P,R5,2*%
%TO.N,Net-(R5-Pad2)*%
X46990000Y-91440000D03*
%TD*%
%TO.P,R4,1*%
%TO.N,Net-(U1-Pad7)*%
X57150000Y-91440000D03*
%TO.P,R4,2*%
%TO.N,GND*%
X54610000Y-91440000D03*
%TD*%
%TO.P,R3,1*%
%TO.N,Net-(U1-Pad11)*%
X77470000Y-86360000D03*
%TO.P,R3,2*%
%TO.N,Net-(R3-Pad2)*%
X74930000Y-86360000D03*
%TD*%
%TO.P,R2,1*%
%TO.N,Net-(U1-Pad10)*%
X59690000Y-86360000D03*
%TO.P,R2,2*%
%TO.N,Net-(R2-Pad2)*%
X62230000Y-86360000D03*
%TD*%
%TO.P,R1,1*%
%TO.N,Net-(U1-Pad9)*%
X77470000Y-91440000D03*
%TO.P,R1,2*%
%TO.N,Net-(R1-Pad2)*%
X74930000Y-91440000D03*
%TD*%
D11*
%TO.P,CNN_TX_RX1,1,CH1*%
%TO.N,Net-(U1-Pad23)*%
X83820000Y-119380000D03*
%TO.P,CNN_TX_RX1,2,CH2*%
%TO.N,Net-(U1-Pad24)*%
X83820000Y-121920000D03*
%TO.P,CNN_TX_RX1,3,CH3*%
%TO.N,GND*%
X83820000Y-124460000D03*
%TD*%
%TO.P,CNN_SW1,1,CH1*%
%TO.N,Net-(U1-Pad31)*%
X40640000Y-90170000D03*
%TO.P,CNN_SW1,2,CH2*%
%TO.N,GND*%
X40640000Y-87630000D03*
%TD*%
%TO.P,CNN_BZ1,1,CH1*%
%TO.N,Net-(U1-Pad5)*%
X45720000Y-115570000D03*
%TO.P,CNN_BZ1,2,CH2*%
%TO.N,GND*%
X45720000Y-118110000D03*
%TD*%
D12*
%TO.P,CdS1M1,1*%
%TO.N,Net-(R5-Pad2)*%
X49530000Y-86360000D03*
%TO.P,CdS1M1,2*%
%TO.N,Net-(U1-Pad7)*%
X52070000Y-86360000D03*
%TD*%
D15*
%TO.N,Net-(U1-Pad31)*%
X45720000Y-154940000D02*
X40640000Y-149860000D01*
X40640000Y-149860000D02*
X40640000Y-90170000D01*
X73660000Y-154940000D02*
X45720000Y-154940000D01*
X73660000Y-132080000D02*
X73660000Y-154940000D01*
X76200000Y-132080000D02*
X73660000Y-132080000D01*
%TO.N,Net-(U1-Pad8)*%
X45720000Y-121920000D02*
X50800000Y-121920000D01*
%TO.N,Net-(U1-Pad9)*%
X77470000Y-95250000D02*
X77470000Y-91440000D01*
X76200000Y-96520000D02*
X77470000Y-95250000D01*
X68580000Y-96520000D02*
X76200000Y-96520000D01*
X68580000Y-124460000D02*
X68580000Y-96520000D01*
X50800000Y-124460000D02*
X68580000Y-124460000D01*
%TO.N,Net-(U1-Pad11)*%
X71120000Y-101600000D02*
X71120000Y-129540000D01*
X71120000Y-129540000D02*
X50800000Y-129540000D01*
X81280000Y-99060000D02*
X73660000Y-99060000D01*
X73660000Y-99060000D02*
X71120000Y-101600000D01*
X77470000Y-86360000D02*
X81280000Y-86360000D01*
X81280000Y-86360000D02*
X81280000Y-99060000D01*
%TO.N,Net-(U1-Pad31)*%
X40640000Y-91440000D02*
X40640000Y-93980000D01*
X40640000Y-90170000D02*
X40640000Y-91440000D01*
%TO.N,Net-(U1-Pad25)*%
X81280000Y-121920000D02*
X76200000Y-116840000D01*
X81280000Y-137160000D02*
X81280000Y-121920000D01*
X82550000Y-138430000D02*
X81280000Y-137160000D01*
X83820000Y-138430000D02*
X82550000Y-138430000D01*
%TO.N,Net-(U1-Pad24)*%
X76200000Y-114300000D02*
X83820000Y-121920000D01*
%TO.N,Net-(U1-Pad23)*%
X83820000Y-119380000D02*
X76200000Y-111760000D01*
%TO.N,Net-(U1-Pad22)*%
X81280000Y-109220000D02*
X76200000Y-109220000D01*
X86360000Y-114300000D02*
X81280000Y-109220000D01*
X86360000Y-134620000D02*
X86360000Y-114300000D01*
X83820000Y-135890000D02*
X85090000Y-135890000D01*
X85090000Y-135890000D02*
X86360000Y-134620000D01*
%TO.N,Net-(R1-Pad2)*%
X71120000Y-91440000D02*
X74930000Y-91440000D01*
%TO.N,Net-(R3-Pad2)*%
X71120000Y-86360000D02*
X74930000Y-86360000D01*
%TO.N,Net-(R2-Pad2)*%
X62230000Y-86360000D02*
X66040000Y-86360000D01*
%TO.N,Net-(U1-Pad7)*%
X57150000Y-90170000D02*
X57150000Y-91440000D01*
X52070000Y-86360000D02*
X53340000Y-86360000D01*
X53340000Y-86360000D02*
X57150000Y-90170000D01*
%TO.N,Net-(U1-Pad31)*%
X49530000Y-92710000D02*
X49530000Y-91440000D01*
X48260000Y-93980000D02*
X49530000Y-92710000D01*
X40640000Y-93980000D02*
X48260000Y-93980000D01*
%TO.N,Net-(U1-Pad5)*%
X49530000Y-115570000D02*
X50800000Y-114300000D01*
X45720000Y-115570000D02*
X49530000Y-115570000D01*
%TD*%
M02*
