M48
; DRILL file {KiCad (6.0.5)} date Sat Jun 25 17:18:22 2022
; FORMAT={-:-/ absolute / inch / decimal}
; #@! TF.CreationDate,2022-06-25T17:18:22+09:00
; #@! TF.GenerationSoftware,Kicad,Pcbnew,(6.0.5)
; #@! TF.FileFunction,Plated,1,2,PTH
FMAT,2
INCH
; #@! TA.AperFunction,Plated,PTH,ComponentDrill
T1C0.0315
; #@! TA.AperFunction,Plated,PTH,ComponentDrill
T2C0.0409
; #@! TA.AperFunction,Plated,PTH,ComponentDrill
T3C0.0866
%
G90
G05
T1
X1.6Y-3.45
X1.6Y-3.55
X1.8Y-4.55
X1.8Y-4.65
X1.8Y-4.8
X1.8Y-4.9
X1.8Y-5.0
X1.85Y-3.6
X1.95Y-3.4
X1.95Y-3.6
X2.05Y-3.4
X2.15Y-3.6
X2.25Y-3.6
X2.35Y-3.4
X2.45Y-3.4
X2.6Y-3.4
X2.6Y-3.6
X2.8Y-3.4
X2.8Y-3.6
X2.95Y-3.4
X2.95Y-3.6
X3.05Y-3.4
X3.05Y-3.6
X3.25Y-6.1
X3.3Y-4.7
X3.3Y-4.8
X3.3Y-4.9
X3.3Y-5.15
X3.3Y-5.25
X3.3Y-5.35
X3.3Y-5.45
X3.3Y-5.55
X3.3Y-5.65
X3.3Y-5.75
X3.3Y-5.85
X3.35Y-6.1
T2
X2.0Y-4.1
X2.0Y-4.2
X2.0Y-4.3
X2.0Y-4.4
X2.0Y-4.5
X2.0Y-4.6
X2.0Y-4.7
X2.0Y-4.8
X2.0Y-4.9
X2.0Y-5.0
X2.0Y-5.1
X2.0Y-5.2
X2.0Y-5.3
X2.0Y-5.4
X2.0Y-5.5
X2.0Y-5.6
X2.0Y-5.7
X2.0Y-5.8
X2.0Y-5.9
X3.0Y-4.1
X3.0Y-4.2
X3.0Y-4.3
X3.0Y-4.4
X3.0Y-4.5
X3.0Y-4.6
X3.0Y-4.7
X3.0Y-4.8
X3.0Y-4.9
X3.0Y-5.0
X3.0Y-5.1
X3.0Y-5.2
X3.0Y-5.3
X3.0Y-5.4
X3.0Y-5.5
X3.0Y-5.6
X3.0Y-5.7
X3.0Y-5.8
X3.0Y-5.9
T3
X1.6Y-6.1
X3.4Y-3.4
T0
M30
