%TF.GenerationSoftware,KiCad,Pcbnew,(6.0.5)*%
%TF.CreationDate,2022-06-25T17:15:00+09:00*%
%TF.ProjectId,test,74657374-2e6b-4696-9361-645f70636258,0*%
%TF.SameCoordinates,Original*%
%TF.FileFunction,Legend,Top*%
%TF.FilePolarity,Positive*%
%FSLAX46Y46*%
G04 Gerber Fmt 4.6, Leading zero omitted, Abs format (unit mm)*
G04 Created by KiCad (PCBNEW (6.0.5)) date 2022-06-25 17:15:00*
%MOMM*%
%LPD*%
G01*
G04 APERTURE LIST*
%ADD10C,0.150000*%
%ADD11C,0.120000*%
%ADD12C,0.127000*%
G04 APERTURE END LIST*
D10*
%TO.C,REF\u002A\u002A*%
X39306666Y-152642380D02*
X38973333Y-152166190D01*
X38735238Y-152642380D02*
X38735238Y-151642380D01*
X39116190Y-151642380D01*
X39211428Y-151690000D01*
X39259047Y-151737619D01*
X39306666Y-151832857D01*
X39306666Y-151975714D01*
X39259047Y-152070952D01*
X39211428Y-152118571D01*
X39116190Y-152166190D01*
X38735238Y-152166190D01*
X39735238Y-152118571D02*
X40068571Y-152118571D01*
X40211428Y-152642380D02*
X39735238Y-152642380D01*
X39735238Y-151642380D01*
X40211428Y-151642380D01*
X40973333Y-152118571D02*
X40640000Y-152118571D01*
X40640000Y-152642380D02*
X40640000Y-151642380D01*
X41116190Y-151642380D01*
X41640000Y-151642380D02*
X41640000Y-151880476D01*
X41401904Y-151785238D02*
X41640000Y-151880476D01*
X41878095Y-151785238D01*
X41497142Y-152070952D02*
X41640000Y-151880476D01*
X41782857Y-152070952D01*
X42401904Y-151642380D02*
X42401904Y-151880476D01*
X42163809Y-151785238D02*
X42401904Y-151880476D01*
X42640000Y-151785238D01*
X42259047Y-152070952D02*
X42401904Y-151880476D01*
X42544761Y-152070952D01*
X85026666Y-84062380D02*
X84693333Y-83586190D01*
X84455238Y-84062380D02*
X84455238Y-83062380D01*
X84836190Y-83062380D01*
X84931428Y-83110000D01*
X84979047Y-83157619D01*
X85026666Y-83252857D01*
X85026666Y-83395714D01*
X84979047Y-83490952D01*
X84931428Y-83538571D01*
X84836190Y-83586190D01*
X84455238Y-83586190D01*
X85455238Y-83538571D02*
X85788571Y-83538571D01*
X85931428Y-84062380D02*
X85455238Y-84062380D01*
X85455238Y-83062380D01*
X85931428Y-83062380D01*
X86693333Y-83538571D02*
X86360000Y-83538571D01*
X86360000Y-84062380D02*
X86360000Y-83062380D01*
X86836190Y-83062380D01*
X87360000Y-83062380D02*
X87360000Y-83300476D01*
X87121904Y-83205238D02*
X87360000Y-83300476D01*
X87598095Y-83205238D01*
X87217142Y-83490952D02*
X87360000Y-83300476D01*
X87502857Y-83490952D01*
X88121904Y-83062380D02*
X88121904Y-83300476D01*
X87883809Y-83205238D02*
X88121904Y-83300476D01*
X88360000Y-83205238D01*
X87979047Y-83490952D02*
X88121904Y-83300476D01*
X88264761Y-83490952D01*
%TO.C,CNN_Vib_M1*%
X48577142Y-128126666D02*
X48624761Y-128174285D01*
X48672380Y-128317142D01*
X48672380Y-128412380D01*
X48624761Y-128555238D01*
X48529523Y-128650476D01*
X48434285Y-128698095D01*
X48243809Y-128745714D01*
X48100952Y-128745714D01*
X47910476Y-128698095D01*
X47815238Y-128650476D01*
X47720000Y-128555238D01*
X47672380Y-128412380D01*
X47672380Y-128317142D01*
X47720000Y-128174285D01*
X47767619Y-128126666D01*
X48672380Y-127698095D02*
X47672380Y-127698095D01*
X48672380Y-127126666D01*
X47672380Y-127126666D01*
X48672380Y-126650476D02*
X47672380Y-126650476D01*
X48672380Y-126079047D01*
X47672380Y-126079047D01*
X48767619Y-125840952D02*
X48767619Y-125079047D01*
X47672380Y-124983809D02*
X48672380Y-124650476D01*
X47672380Y-124317142D01*
X48672380Y-123983809D02*
X48005714Y-123983809D01*
X47672380Y-123983809D02*
X47720000Y-124031428D01*
X47767619Y-123983809D01*
X47720000Y-123936190D01*
X47672380Y-123983809D01*
X47767619Y-123983809D01*
X48672380Y-123507619D02*
X47672380Y-123507619D01*
X48053333Y-123507619D02*
X48005714Y-123412380D01*
X48005714Y-123221904D01*
X48053333Y-123126666D01*
X48100952Y-123079047D01*
X48196190Y-123031428D01*
X48481904Y-123031428D01*
X48577142Y-123079047D01*
X48624761Y-123126666D01*
X48672380Y-123221904D01*
X48672380Y-123412380D01*
X48624761Y-123507619D01*
X48767619Y-122840952D02*
X48767619Y-122079047D01*
X48672380Y-121840952D02*
X47672380Y-121840952D01*
X48386666Y-121507619D01*
X47672380Y-121174285D01*
X48672380Y-121174285D01*
X48672380Y-120174285D02*
X48672380Y-120745714D01*
X48672380Y-120460000D02*
X47672380Y-120460000D01*
X47815238Y-120555238D01*
X47910476Y-120650476D01*
X47958095Y-120745714D01*
%TO.C,CNN_V5*%
X81796190Y-157797142D02*
X81748571Y-157844761D01*
X81605714Y-157892380D01*
X81510476Y-157892380D01*
X81367619Y-157844761D01*
X81272380Y-157749523D01*
X81224761Y-157654285D01*
X81177142Y-157463809D01*
X81177142Y-157320952D01*
X81224761Y-157130476D01*
X81272380Y-157035238D01*
X81367619Y-156940000D01*
X81510476Y-156892380D01*
X81605714Y-156892380D01*
X81748571Y-156940000D01*
X81796190Y-156987619D01*
X82224761Y-157892380D02*
X82224761Y-156892380D01*
X82796190Y-157892380D01*
X82796190Y-156892380D01*
X83272380Y-157892380D02*
X83272380Y-156892380D01*
X83843809Y-157892380D01*
X83843809Y-156892380D01*
X84081904Y-157987619D02*
X84843809Y-157987619D01*
X84939047Y-156892380D02*
X85272380Y-157892380D01*
X85605714Y-156892380D01*
X86415238Y-156892380D02*
X85939047Y-156892380D01*
X85891428Y-157368571D01*
X85939047Y-157320952D01*
X86034285Y-157273333D01*
X86272380Y-157273333D01*
X86367619Y-157320952D01*
X86415238Y-157368571D01*
X86462857Y-157463809D01*
X86462857Y-157701904D01*
X86415238Y-157797142D01*
X86367619Y-157844761D01*
X86272380Y-157892380D01*
X86034285Y-157892380D01*
X85939047Y-157844761D01*
X85891428Y-157797142D01*
%TO.C,U3*%
X63392380Y-89661904D02*
X64201904Y-89661904D01*
X64297142Y-89614285D01*
X64344761Y-89566666D01*
X64392380Y-89471428D01*
X64392380Y-89280952D01*
X64344761Y-89185714D01*
X64297142Y-89138095D01*
X64201904Y-89090476D01*
X63392380Y-89090476D01*
X63392380Y-88709523D02*
X63392380Y-88090476D01*
X63773333Y-88423809D01*
X63773333Y-88280952D01*
X63820952Y-88185714D01*
X63868571Y-88138095D01*
X63963809Y-88090476D01*
X64201904Y-88090476D01*
X64297142Y-88138095D01*
X64344761Y-88185714D01*
X64392380Y-88280952D01*
X64392380Y-88566666D01*
X64344761Y-88661904D01*
X64297142Y-88709523D01*
%TO.C,U2*%
X80772380Y-140461904D02*
X81581904Y-140461904D01*
X81677142Y-140414285D01*
X81724761Y-140366666D01*
X81772380Y-140271428D01*
X81772380Y-140080952D01*
X81724761Y-139985714D01*
X81677142Y-139938095D01*
X81581904Y-139890476D01*
X80772380Y-139890476D01*
X80867619Y-139461904D02*
X80820000Y-139414285D01*
X80772380Y-139319047D01*
X80772380Y-139080952D01*
X80820000Y-138985714D01*
X80867619Y-138938095D01*
X80962857Y-138890476D01*
X81058095Y-138890476D01*
X81200952Y-138938095D01*
X81772380Y-139509523D01*
X81772380Y-138890476D01*
%TO.C,U1*%
X51908626Y-94906124D02*
X51908626Y-95715960D01*
X51956263Y-95811235D01*
X52003901Y-95858873D01*
X52099175Y-95906510D01*
X52289725Y-95906510D01*
X52385000Y-95858873D01*
X52432637Y-95811235D01*
X52480275Y-95715960D01*
X52480275Y-94906124D01*
X53480661Y-95906510D02*
X52909012Y-95906510D01*
X53194836Y-95906510D02*
X53194836Y-94906124D01*
X53099561Y-95049036D01*
X53004287Y-95144311D01*
X52909012Y-95191949D01*
%TO.C,R5*%
X48093333Y-89392380D02*
X47760000Y-88916190D01*
X47521904Y-89392380D02*
X47521904Y-88392380D01*
X47902857Y-88392380D01*
X47998095Y-88440000D01*
X48045714Y-88487619D01*
X48093333Y-88582857D01*
X48093333Y-88725714D01*
X48045714Y-88820952D01*
X47998095Y-88868571D01*
X47902857Y-88916190D01*
X47521904Y-88916190D01*
X48998095Y-88392380D02*
X48521904Y-88392380D01*
X48474285Y-88868571D01*
X48521904Y-88820952D01*
X48617142Y-88773333D01*
X48855238Y-88773333D01*
X48950476Y-88820952D01*
X48998095Y-88868571D01*
X49045714Y-88963809D01*
X49045714Y-89201904D01*
X48998095Y-89297142D01*
X48950476Y-89344761D01*
X48855238Y-89392380D01*
X48617142Y-89392380D01*
X48521904Y-89344761D01*
X48474285Y-89297142D01*
X47212380Y-94392380D02*
X46879047Y-93916190D01*
X46640952Y-94392380D02*
X46640952Y-93392380D01*
X47021904Y-93392380D01*
X47117142Y-93440000D01*
X47164761Y-93487619D01*
X47212380Y-93582857D01*
X47212380Y-93725714D01*
X47164761Y-93820952D01*
X47117142Y-93868571D01*
X47021904Y-93916190D01*
X46640952Y-93916190D01*
X48164761Y-94392380D02*
X47593333Y-94392380D01*
X47879047Y-94392380D02*
X47879047Y-93392380D01*
X47783809Y-93535238D01*
X47688571Y-93630476D01*
X47593333Y-93678095D01*
X48783809Y-93392380D02*
X48879047Y-93392380D01*
X48974285Y-93440000D01*
X49021904Y-93487619D01*
X49069523Y-93582857D01*
X49117142Y-93773333D01*
X49117142Y-94011428D01*
X49069523Y-94201904D01*
X49021904Y-94297142D01*
X48974285Y-94344761D01*
X48879047Y-94392380D01*
X48783809Y-94392380D01*
X48688571Y-94344761D01*
X48640952Y-94297142D01*
X48593333Y-94201904D01*
X48545714Y-94011428D01*
X48545714Y-93773333D01*
X48593333Y-93582857D01*
X48640952Y-93487619D01*
X48688571Y-93440000D01*
X48783809Y-93392380D01*
X49545714Y-94392380D02*
X49545714Y-93392380D01*
X49640952Y-94011428D02*
X49926666Y-94392380D01*
X49926666Y-93725714D02*
X49545714Y-94106666D01*
%TO.C,R4*%
X55713333Y-89392380D02*
X55380000Y-88916190D01*
X55141904Y-89392380D02*
X55141904Y-88392380D01*
X55522857Y-88392380D01*
X55618095Y-88440000D01*
X55665714Y-88487619D01*
X55713333Y-88582857D01*
X55713333Y-88725714D01*
X55665714Y-88820952D01*
X55618095Y-88868571D01*
X55522857Y-88916190D01*
X55141904Y-88916190D01*
X56570476Y-88725714D02*
X56570476Y-89392380D01*
X56332380Y-88344761D02*
X56094285Y-89059047D01*
X56713333Y-89059047D01*
%TO.C,R3*%
X76033333Y-84312380D02*
X75700000Y-83836190D01*
X75461904Y-84312380D02*
X75461904Y-83312380D01*
X75842857Y-83312380D01*
X75938095Y-83360000D01*
X75985714Y-83407619D01*
X76033333Y-83502857D01*
X76033333Y-83645714D01*
X75985714Y-83740952D01*
X75938095Y-83788571D01*
X75842857Y-83836190D01*
X75461904Y-83836190D01*
X76366666Y-83312380D02*
X76985714Y-83312380D01*
X76652380Y-83693333D01*
X76795238Y-83693333D01*
X76890476Y-83740952D01*
X76938095Y-83788571D01*
X76985714Y-83883809D01*
X76985714Y-84121904D01*
X76938095Y-84217142D01*
X76890476Y-84264761D01*
X76795238Y-84312380D01*
X76509523Y-84312380D01*
X76414285Y-84264761D01*
X76366666Y-84217142D01*
%TO.C,R2*%
X60793333Y-89312380D02*
X60460000Y-88836190D01*
X60221904Y-89312380D02*
X60221904Y-88312380D01*
X60602857Y-88312380D01*
X60698095Y-88360000D01*
X60745714Y-88407619D01*
X60793333Y-88502857D01*
X60793333Y-88645714D01*
X60745714Y-88740952D01*
X60698095Y-88788571D01*
X60602857Y-88836190D01*
X60221904Y-88836190D01*
X61174285Y-88407619D02*
X61221904Y-88360000D01*
X61317142Y-88312380D01*
X61555238Y-88312380D01*
X61650476Y-88360000D01*
X61698095Y-88407619D01*
X61745714Y-88502857D01*
X61745714Y-88598095D01*
X61698095Y-88740952D01*
X61126666Y-89312380D01*
X61745714Y-89312380D01*
%TO.C,R1*%
X76033333Y-89392380D02*
X75700000Y-88916190D01*
X75461904Y-89392380D02*
X75461904Y-88392380D01*
X75842857Y-88392380D01*
X75938095Y-88440000D01*
X75985714Y-88487619D01*
X76033333Y-88582857D01*
X76033333Y-88725714D01*
X75985714Y-88820952D01*
X75938095Y-88868571D01*
X75842857Y-88916190D01*
X75461904Y-88916190D01*
X76985714Y-89392380D02*
X76414285Y-89392380D01*
X76700000Y-89392380D02*
X76700000Y-88392380D01*
X76604761Y-88535238D01*
X76509523Y-88630476D01*
X76414285Y-88678095D01*
%TO.C,CNN_TX_RX1*%
X81677142Y-125729523D02*
X81724761Y-125777142D01*
X81772380Y-125920000D01*
X81772380Y-126015238D01*
X81724761Y-126158095D01*
X81629523Y-126253333D01*
X81534285Y-126300952D01*
X81343809Y-126348571D01*
X81200952Y-126348571D01*
X81010476Y-126300952D01*
X80915238Y-126253333D01*
X80820000Y-126158095D01*
X80772380Y-126015238D01*
X80772380Y-125920000D01*
X80820000Y-125777142D01*
X80867619Y-125729523D01*
X81772380Y-125300952D02*
X80772380Y-125300952D01*
X81772380Y-124729523D01*
X80772380Y-124729523D01*
X81772380Y-124253333D02*
X80772380Y-124253333D01*
X81772380Y-123681904D01*
X80772380Y-123681904D01*
X81867619Y-123443809D02*
X81867619Y-122681904D01*
X80772380Y-122586666D02*
X80772380Y-122015238D01*
X81772380Y-122300952D02*
X80772380Y-122300952D01*
X80772380Y-121777142D02*
X81772380Y-121110476D01*
X80772380Y-121110476D02*
X81772380Y-121777142D01*
X81867619Y-120967619D02*
X81867619Y-120205714D01*
X81772380Y-119396190D02*
X81296190Y-119729523D01*
X81772380Y-119967619D02*
X80772380Y-119967619D01*
X80772380Y-119586666D01*
X80820000Y-119491428D01*
X80867619Y-119443809D01*
X80962857Y-119396190D01*
X81105714Y-119396190D01*
X81200952Y-119443809D01*
X81248571Y-119491428D01*
X81296190Y-119586666D01*
X81296190Y-119967619D01*
X80772380Y-119062857D02*
X81772380Y-118396190D01*
X80772380Y-118396190D02*
X81772380Y-119062857D01*
X81772380Y-117491428D02*
X81772380Y-118062857D01*
X81772380Y-117777142D02*
X80772380Y-117777142D01*
X80915238Y-117872380D01*
X81010476Y-117967619D01*
X81058095Y-118062857D01*
%TO.C,CNN_SW1*%
X43497142Y-91542857D02*
X43544761Y-91590476D01*
X43592380Y-91733333D01*
X43592380Y-91828571D01*
X43544761Y-91971428D01*
X43449523Y-92066666D01*
X43354285Y-92114285D01*
X43163809Y-92161904D01*
X43020952Y-92161904D01*
X42830476Y-92114285D01*
X42735238Y-92066666D01*
X42640000Y-91971428D01*
X42592380Y-91828571D01*
X42592380Y-91733333D01*
X42640000Y-91590476D01*
X42687619Y-91542857D01*
X43592380Y-91114285D02*
X42592380Y-91114285D01*
X43592380Y-90542857D01*
X42592380Y-90542857D01*
X43592380Y-90066666D02*
X42592380Y-90066666D01*
X43592380Y-89495238D01*
X42592380Y-89495238D01*
X43687619Y-89257142D02*
X43687619Y-88495238D01*
X43544761Y-88304761D02*
X43592380Y-88161904D01*
X43592380Y-87923809D01*
X43544761Y-87828571D01*
X43497142Y-87780952D01*
X43401904Y-87733333D01*
X43306666Y-87733333D01*
X43211428Y-87780952D01*
X43163809Y-87828571D01*
X43116190Y-87923809D01*
X43068571Y-88114285D01*
X43020952Y-88209523D01*
X42973333Y-88257142D01*
X42878095Y-88304761D01*
X42782857Y-88304761D01*
X42687619Y-88257142D01*
X42640000Y-88209523D01*
X42592380Y-88114285D01*
X42592380Y-87876190D01*
X42640000Y-87733333D01*
X42592380Y-87400000D02*
X43592380Y-87161904D01*
X42878095Y-86971428D01*
X43592380Y-86780952D01*
X42592380Y-86542857D01*
X43592380Y-85638095D02*
X43592380Y-86209523D01*
X43592380Y-85923809D02*
X42592380Y-85923809D01*
X42735238Y-86019047D01*
X42830476Y-86114285D01*
X42878095Y-86209523D01*
%TO.C,CNN_BZ1*%
X43577142Y-119411428D02*
X43624761Y-119459047D01*
X43672380Y-119601904D01*
X43672380Y-119697142D01*
X43624761Y-119840000D01*
X43529523Y-119935238D01*
X43434285Y-119982857D01*
X43243809Y-120030476D01*
X43100952Y-120030476D01*
X42910476Y-119982857D01*
X42815238Y-119935238D01*
X42720000Y-119840000D01*
X42672380Y-119697142D01*
X42672380Y-119601904D01*
X42720000Y-119459047D01*
X42767619Y-119411428D01*
X43672380Y-118982857D02*
X42672380Y-118982857D01*
X43672380Y-118411428D01*
X42672380Y-118411428D01*
X43672380Y-117935238D02*
X42672380Y-117935238D01*
X43672380Y-117363809D01*
X42672380Y-117363809D01*
X43767619Y-117125714D02*
X43767619Y-116363809D01*
X43148571Y-115792380D02*
X43196190Y-115649523D01*
X43243809Y-115601904D01*
X43339047Y-115554285D01*
X43481904Y-115554285D01*
X43577142Y-115601904D01*
X43624761Y-115649523D01*
X43672380Y-115744761D01*
X43672380Y-116125714D01*
X42672380Y-116125714D01*
X42672380Y-115792380D01*
X42720000Y-115697142D01*
X42767619Y-115649523D01*
X42862857Y-115601904D01*
X42958095Y-115601904D01*
X43053333Y-115649523D01*
X43100952Y-115697142D01*
X43148571Y-115792380D01*
X43148571Y-116125714D01*
X42672380Y-115220952D02*
X42672380Y-114554285D01*
X43672380Y-115220952D01*
X43672380Y-114554285D01*
X43672380Y-113649523D02*
X43672380Y-114220952D01*
X43672380Y-113935238D02*
X42672380Y-113935238D01*
X42815238Y-114030476D01*
X42910476Y-114125714D01*
X42958095Y-114220952D01*
%TO.C,CdS1M1*%
X48657142Y-89217142D02*
X48609523Y-89264761D01*
X48466666Y-89312380D01*
X48371428Y-89312380D01*
X48228571Y-89264761D01*
X48133333Y-89169523D01*
X48085714Y-89074285D01*
X48038095Y-88883809D01*
X48038095Y-88740952D01*
X48085714Y-88550476D01*
X48133333Y-88455238D01*
X48228571Y-88360000D01*
X48371428Y-88312380D01*
X48466666Y-88312380D01*
X48609523Y-88360000D01*
X48657142Y-88407619D01*
X49514285Y-89312380D02*
X49514285Y-88312380D01*
X49514285Y-89264761D02*
X49419047Y-89312380D01*
X49228571Y-89312380D01*
X49133333Y-89264761D01*
X49085714Y-89217142D01*
X49038095Y-89121904D01*
X49038095Y-88836190D01*
X49085714Y-88740952D01*
X49133333Y-88693333D01*
X49228571Y-88645714D01*
X49419047Y-88645714D01*
X49514285Y-88693333D01*
X49942857Y-89264761D02*
X50085714Y-89312380D01*
X50323809Y-89312380D01*
X50419047Y-89264761D01*
X50466666Y-89217142D01*
X50514285Y-89121904D01*
X50514285Y-89026666D01*
X50466666Y-88931428D01*
X50419047Y-88883809D01*
X50323809Y-88836190D01*
X50133333Y-88788571D01*
X50038095Y-88740952D01*
X49990476Y-88693333D01*
X49942857Y-88598095D01*
X49942857Y-88502857D01*
X49990476Y-88407619D01*
X50038095Y-88360000D01*
X50133333Y-88312380D01*
X50371428Y-88312380D01*
X50514285Y-88360000D01*
X51466666Y-89312380D02*
X50895238Y-89312380D01*
X51180952Y-89312380D02*
X51180952Y-88312380D01*
X51085714Y-88455238D01*
X50990476Y-88550476D01*
X50895238Y-88598095D01*
X51895238Y-89312380D02*
X51895238Y-88312380D01*
X52228571Y-89026666D01*
X52561904Y-88312380D01*
X52561904Y-89312380D01*
X53561904Y-89312380D02*
X52990476Y-89312380D01*
X53276190Y-89312380D02*
X53276190Y-88312380D01*
X53180952Y-88455238D01*
X53085714Y-88550476D01*
X52990476Y-88598095D01*
D11*
%TO.C,CNN_Vib_M1*%
X44220000Y-120820000D02*
X47220000Y-120820000D01*
X47220000Y-128100000D02*
X44220000Y-128100000D01*
X44220000Y-125730000D02*
X47220000Y-125730000D01*
X44220000Y-128100000D02*
X44220000Y-120820000D01*
X47220000Y-120820000D02*
X47220000Y-128100000D01*
%TO.C,CNN_V5*%
X83820000Y-153440000D02*
X83820000Y-156440000D01*
X86190000Y-153440000D02*
X86190000Y-156440000D01*
X86190000Y-156440000D02*
X81450000Y-156440000D01*
X81450000Y-156440000D02*
X81450000Y-153440000D01*
X81450000Y-153440000D02*
X86190000Y-153440000D01*
%TO.C,U3*%
X64940000Y-87553334D02*
X65300000Y-87553334D01*
X64940000Y-90246666D02*
X64940000Y-92940000D01*
X72219999Y-92940000D02*
X72220000Y-84860000D01*
X65300000Y-90246666D02*
X64940000Y-90246666D01*
X72220000Y-84860000D02*
X64940001Y-84860000D01*
X64940000Y-92940000D02*
X72219999Y-92940000D01*
X65300000Y-87553334D02*
X65300000Y-90246666D01*
X64940001Y-84860000D02*
X64940000Y-87553334D01*
%TO.C,U2*%
X85320000Y-149690000D02*
X82320000Y-149690000D01*
X85320000Y-132080000D02*
X82320000Y-132080000D01*
X82320000Y-129710000D02*
X85320000Y-129710000D01*
X82320000Y-149690000D02*
X82320000Y-129710000D01*
X85320000Y-129710000D02*
X85320000Y-149690000D01*
D12*
%TO.C,U1*%
X49550000Y-151150000D02*
X49550000Y-96750000D01*
X49550000Y-96750000D02*
X77450000Y-96750000D01*
X77450000Y-96750000D02*
X77450000Y-151150000D01*
X77450000Y-151150000D02*
X49550000Y-151150000D01*
D11*
%TO.C,R5*%
X48260000Y-92940000D02*
X48260000Y-89940000D01*
X45890000Y-92940000D02*
X45890000Y-89940000D01*
X45890000Y-89940000D02*
X50630000Y-89940000D01*
X50630000Y-89940000D02*
X50630000Y-92940000D01*
X50630000Y-92940000D02*
X45890000Y-92940000D01*
%TO.C,R4*%
X55880000Y-92940000D02*
X55880000Y-89940000D01*
X53510000Y-92940000D02*
X53510000Y-89940000D01*
X53510000Y-89940000D02*
X58250000Y-89940000D01*
X58250000Y-89940000D02*
X58250000Y-92940000D01*
X58250000Y-92940000D02*
X53510000Y-92940000D01*
%TO.C,R3*%
X76200000Y-87860000D02*
X76200000Y-84860000D01*
X73830000Y-87860000D02*
X73830000Y-84860000D01*
X73830000Y-84860000D02*
X78570000Y-84860000D01*
X78570000Y-84860000D02*
X78570000Y-87860000D01*
X78570000Y-87860000D02*
X73830000Y-87860000D01*
%TO.C,R2*%
X60960000Y-84860000D02*
X60960000Y-87860000D01*
X63330000Y-84860000D02*
X63330000Y-87860000D01*
X63330000Y-87860000D02*
X58590000Y-87860000D01*
X58590000Y-87860000D02*
X58590000Y-84860000D01*
X58590000Y-84860000D02*
X63330000Y-84860000D01*
%TO.C,R1*%
X76200000Y-92940000D02*
X76200000Y-89940000D01*
X73830000Y-92940000D02*
X73830000Y-89940000D01*
X73830000Y-89940000D02*
X78570000Y-89940000D01*
X78570000Y-89940000D02*
X78570000Y-92940000D01*
X78570000Y-92940000D02*
X73830000Y-92940000D01*
%TO.C,CNN_TX_RX1*%
X85320000Y-125560000D02*
X82320000Y-125560000D01*
X82320000Y-118280000D02*
X85320000Y-118280000D01*
X85320000Y-120650000D02*
X82320000Y-120650000D01*
X85320000Y-118280000D02*
X85320000Y-125560000D01*
X82320000Y-125560000D02*
X82320000Y-118280000D01*
%TO.C,CNN_SW1*%
X39140000Y-88900000D02*
X42140000Y-88900000D01*
X39140000Y-86530000D02*
X42140000Y-86530000D01*
X42140000Y-86530000D02*
X42140000Y-91270000D01*
X42140000Y-91270000D02*
X39140000Y-91270000D01*
X39140000Y-91270000D02*
X39140000Y-86530000D01*
%TO.C,CNN_BZ1*%
X47220000Y-116840000D02*
X44220000Y-116840000D01*
X47220000Y-119210000D02*
X44220000Y-119210000D01*
X44220000Y-119210000D02*
X44220000Y-114470000D01*
X44220000Y-114470000D02*
X47220000Y-114470000D01*
X47220000Y-114470000D02*
X47220000Y-119210000D01*
%TO.C,CdS1M1*%
X50800000Y-84860000D02*
X50800000Y-87860000D01*
X53170000Y-84860000D02*
X53170000Y-87860000D01*
X53170000Y-87860000D02*
X48430000Y-87860000D01*
X48430000Y-87860000D02*
X48430000Y-84860000D01*
X48430000Y-84860000D02*
X53170000Y-84860000D01*
%TD*%
M02*
