%TF.GenerationSoftware,KiCad,Pcbnew,(6.0.5)*%
%TF.CreationDate,2022-06-25T17:15:00+09:00*%
%TF.ProjectId,test,74657374-2e6b-4696-9361-645f70636258,0*%
%TF.SameCoordinates,Original*%
%TF.FileFunction,Copper,L1,Top*%
%TF.FilePolarity,Positive*%
%FSLAX46Y46*%
G04 Gerber Fmt 4.6, Leading zero omitted, Abs format (unit mm)*
G04 Created by KiCad (PCBNEW (6.0.5)) date 2022-06-25 17:15:00*
%MOMM*%
%LPD*%
G01*
G04 APERTURE LIST*
%TA.AperFunction,ComponentPad*%
%ADD10C,3.500000*%
%TD*%
%TA.AperFunction,ComponentPad*%
%ADD11O,2.000000X1.200000*%
%TD*%
%TA.AperFunction,ComponentPad*%
%ADD12O,1.200000X2.000000*%
%TD*%
%TA.AperFunction,ComponentPad*%
%ADD13R,1.560000X1.560000*%
%TD*%
%TA.AperFunction,ComponentPad*%
%ADD14C,1.560000*%
%TD*%
%TA.AperFunction,Conductor*%
%ADD15C,0.250000*%
%TD*%
G04 APERTURE END LIST*
D10*
%TO.P,REF\u002A\u002A,1*%
%TO.N,GND*%
X40640000Y-154940000D03*
%TD*%
%TO.P,REF\u002A\u002A,1*%
%TO.N,GND*%
X86360000Y-86360000D03*
%TD*%
D11*
%TO.P,CNN_Vib_M1,1,CH1*%
%TO.N,+5V*%
X45720000Y-127000000D03*
%TO.P,CNN_Vib_M1,2,CH2*%
%TO.N,GND*%
X45720000Y-124460000D03*
%TO.P,CNN_Vib_M1,3,CH3*%
%TO.N,Net-(U1-Pad8)*%
X45720000Y-121920000D03*
%TD*%
D12*
%TO.P,CNN_V5,1,CH1*%
%TO.N,+5V*%
X82550000Y-154940000D03*
%TO.P,CNN_V5,2,CH2*%
%TO.N,GND*%
X85090000Y-154940000D03*
%TD*%
%TO.P,U3,1,CommonAnode1*%
%TO.N,+5V*%
X66040000Y-91440000D03*
%TO.P,U3,2,BlueCathode*%
%TO.N,Net-(R1-Pad2)*%
X71120000Y-91440000D03*
%TO.P,U3,3,GreenCathode*%
%TO.N,Net-(R3-Pad2)*%
X71120000Y-86360000D03*
%TO.P,U3,4,RedCathode*%
%TO.N,Net-(R2-Pad2)*%
X66040000Y-86360000D03*
%TD*%
D11*
%TO.P,U2,1,VCC*%
%TO.N,+5V*%
X83820000Y-130810000D03*
%TO.P,U2,2,GND*%
%TO.N,GND*%
X83820000Y-133350000D03*
%TO.P,U2,3,SCL*%
%TO.N,Net-(U1-Pad22)*%
X83820000Y-135890000D03*
%TO.P,U2,4,SDA*%
%TO.N,Net-(U1-Pad25)*%
X83820000Y-138430000D03*
%TO.P,U2,5,XDA*%
%TO.N,unconnected-(U2-Pad5)*%
X83820000Y-140970000D03*
%TO.P,U2,6,XCL*%
%TO.N,unconnected-(U2-Pad6)*%
X83820000Y-143510000D03*
%TO.P,U2,7,ADD*%
%TO.N,unconnected-(U2-Pad7)*%
X83820000Y-146050000D03*
%TO.P,U2,8,INT*%
%TO.N,unconnected-(U2-Pad8)*%
X83820000Y-148590000D03*
%TD*%
D13*
%TO.P,U1,1,3V3*%
%TO.N,Net-(R5-Pad2)*%
X50800000Y-104140000D03*
D14*
%TO.P,U1,2,EN*%
%TO.N,unconnected-(U1-Pad2)*%
X50800000Y-106680000D03*
%TO.P,U1,19,EXT_5V*%
%TO.N,+5V*%
X50800000Y-149860000D03*
%TO.P,U1,3,SENSOR_VP*%
%TO.N,unconnected-(U1-Pad3)*%
X50800000Y-109220000D03*
%TO.P,U1,4,SENSOR_VN*%
%TO.N,unconnected-(U1-Pad4)*%
X50800000Y-111760000D03*
%TO.P,U1,5,IO34*%
%TO.N,Net-(U1-Pad5)*%
X50800000Y-114300000D03*
%TO.P,U1,6,IO35*%
%TO.N,unconnected-(U1-Pad6)*%
X50800000Y-116840000D03*
%TO.P,U1,7,IO32*%
%TO.N,Net-(U1-Pad7)*%
X50800000Y-119380000D03*
%TO.P,U1,8,IO33*%
%TO.N,Net-(U1-Pad8)*%
X50800000Y-121920000D03*
%TO.P,U1,9,IO25*%
%TO.N,Net-(U1-Pad9)*%
X50800000Y-124460000D03*
%TO.P,U1,10,IO26*%
%TO.N,Net-(U1-Pad10)*%
X50800000Y-127000000D03*
%TO.P,U1,11,IO27*%
%TO.N,Net-(U1-Pad11)*%
X50800000Y-129540000D03*
%TO.P,U1,12,IO14*%
%TO.N,unconnected-(U1-Pad12)*%
X50800000Y-132080000D03*
%TO.P,U1,13,IO12*%
%TO.N,unconnected-(U1-Pad13)*%
X50800000Y-134620000D03*
%TO.P,U1,14,GND1*%
%TO.N,unconnected-(U1-Pad14)*%
X50800000Y-137160000D03*
%TO.P,U1,15,IO13*%
%TO.N,unconnected-(U1-Pad15)*%
X50800000Y-139700000D03*
%TO.P,U1,16,SD2*%
%TO.N,unconnected-(U1-Pad16)*%
X50800000Y-142240000D03*
%TO.P,U1,17,SD3*%
%TO.N,unconnected-(U1-Pad17)*%
X50800000Y-144780000D03*
%TO.P,U1,18,CMD*%
%TO.N,unconnected-(U1-Pad18)*%
X50800000Y-147320000D03*
%TO.P,U1,20,GND3*%
%TO.N,GND*%
X76200000Y-104140000D03*
%TO.P,U1,21,IO23*%
%TO.N,unconnected-(U1-Pad21)*%
X76200000Y-106680000D03*
%TO.P,U1,22,IO22*%
%TO.N,Net-(U1-Pad22)*%
X76200000Y-109220000D03*
%TO.P,U1,23,TXD0*%
%TO.N,Net-(U1-Pad23)*%
X76200000Y-111760000D03*
%TO.P,U1,24,RXD0*%
%TO.N,Net-(U1-Pad24)*%
X76200000Y-114300000D03*
%TO.P,U1,25,IO21*%
%TO.N,Net-(U1-Pad25)*%
X76200000Y-116840000D03*
%TO.P,U1,26,GND2*%
%TO.N,unconnected-(U1-Pad26)*%
X76200000Y-119380000D03*
%TO.P,U1,27,IO19*%
%TO.N,unconnected-(U1-Pad27)*%
X76200000Y-121920000D03*
%TO.P,U1,28,IO18*%
%TO.N,unconnected-(U1-Pad28)*%
X76200000Y-124460000D03*
%TO.P,U1,29,IO5*%
%TO.N,unconnected-(U1-Pad29)*%
X76200000Y-127000000D03*
%TO.P,U1,30,IO17*%
%TO.N,unconnected-(U1-Pad30)*%
X76200000Y-129540000D03*
%TO.P,U1,31,IO16*%
%TO.N,Net-(U1-Pad31)*%
X76200000Y-132080000D03*
%TO.P,U1,32,IO4*%
%TO.N,unconnected-(U1-Pad32)*%
X76200000Y-134620000D03*
%TO.P,U1,33,IO0*%
%TO.N,unconnected-(U1-Pad33)*%
X76200000Y-137160000D03*
%TO.P,U1,34,IO2*%
%TO.N,unconnected-(U1-Pad34)*%
X76200000Y-139700000D03*
%TO.P,U1,35,IO15*%
%TO.N,unconnected-(U1-Pad35)*%
X76200000Y-142240000D03*
%TO.P,U1,36,SD1*%
%TO.N,unconnected-(U1-Pad36)*%
X76200000Y-144780000D03*
%TO.P,U1,37,SD0*%
%TO.N,unconnected-(U1-Pad37)*%
X76200000Y-147320000D03*
%TO.P,U1,38,CLK*%
%TO.N,unconnected-(U1-Pad38)*%
X76200000Y-149860000D03*
%TD*%
D12*
%TO.P,R5,1*%
%TO.N,Net-(U1-Pad31)*%
X49530000Y-91440000D03*
%TO.P,R5,2*%
%TO.N,Net-(R5-Pad2)*%
X46990000Y-91440000D03*
%TD*%
%TO.P,R4,1*%
%TO.N,Net-(U1-Pad7)*%
X57150000Y-91440000D03*
%TO.P,R4,2*%
%TO.N,GND*%
X54610000Y-91440000D03*
%TD*%
%TO.P,R3,1*%
%TO.N,Net-(U1-Pad11)*%
X77470000Y-86360000D03*
%TO.P,R3,2*%
%TO.N,Net-(R3-Pad2)*%
X74930000Y-86360000D03*
%TD*%
%TO.P,R2,1*%
%TO.N,Net-(U1-Pad10)*%
X59690000Y-86360000D03*
%TO.P,R2,2*%
%TO.N,Net-(R2-Pad2)*%
X62230000Y-86360000D03*
%TD*%
%TO.P,R1,1*%
%TO.N,Net-(U1-Pad9)*%
X77470000Y-91440000D03*
%TO.P,R1,2*%
%TO.N,Net-(R1-Pad2)*%
X74930000Y-91440000D03*
%TD*%
D11*
%TO.P,CNN_TX_RX1,1,CH1*%
%TO.N,Net-(U1-Pad23)*%
X83820000Y-119380000D03*
%TO.P,CNN_TX_RX1,2,CH2*%
%TO.N,Net-(U1-Pad24)*%
X83820000Y-121920000D03*
%TO.P,CNN_TX_RX1,3,CH3*%
%TO.N,GND*%
X83820000Y-124460000D03*
%TD*%
%TO.P,CNN_SW1,1,CH1*%
%TO.N,Net-(U1-Pad31)*%
X40640000Y-90170000D03*
%TO.P,CNN_SW1,2,CH2*%
%TO.N,GND*%
X40640000Y-87630000D03*
%TD*%
%TO.P,CNN_BZ1,1,CH1*%
%TO.N,Net-(U1-Pad5)*%
X45720000Y-115570000D03*
%TO.P,CNN_BZ1,2,CH2*%
%TO.N,GND*%
X45720000Y-118110000D03*
%TD*%
D12*
%TO.P,CdS1M1,1*%
%TO.N,Net-(R5-Pad2)*%
X49530000Y-86360000D03*
%TO.P,CdS1M1,2*%
%TO.N,Net-(U1-Pad7)*%
X52070000Y-86360000D03*
%TD*%
D15*
%TO.N,+5V*%
X78740000Y-154940000D02*
X78740000Y-152400000D01*
X82550000Y-154940000D02*
X78740000Y-154940000D01*
X45720000Y-149860000D02*
X50800000Y-149860000D01*
X45720000Y-127000000D02*
X45720000Y-149860000D01*
X66040000Y-91440000D02*
X66040000Y-152400000D01*
X66040000Y-152400000D02*
X50800000Y-152400000D01*
X78740000Y-152400000D02*
X66040000Y-152400000D01*
%TO.N,Net-(U1-Pad10)*%
X55880000Y-127000000D02*
X50800000Y-127000000D01*
X59690000Y-123190000D02*
X55880000Y-127000000D01*
X59690000Y-86360000D02*
X59690000Y-123190000D01*
%TO.N,Net-(U1-Pad7)*%
X53340000Y-119380000D02*
X50800000Y-119380000D01*
X57150000Y-115570000D02*
X53340000Y-119380000D01*
X57150000Y-91440000D02*
X57150000Y-115570000D01*
%TO.N,Net-(R5-Pad2)*%
X49530000Y-88900000D02*
X46990000Y-91440000D01*
X49530000Y-86360000D02*
X49530000Y-88900000D01*
X46990000Y-100330000D02*
X50800000Y-104140000D01*
X46990000Y-91440000D02*
X46990000Y-100330000D01*
%TO.N,+5V*%
X50800000Y-152400000D02*
X50800000Y-149860000D01*
X78740000Y-132080000D02*
X78740000Y-152400000D01*
X80010000Y-130810000D02*
X78740000Y-132080000D01*
X83820000Y-130810000D02*
X80010000Y-130810000D01*
%TD*%
%TA.AperFunction,Conductor*%
%TO.N,GND*%
G36*
X88333621Y-81808502D02*
G01*
X88380114Y-81862158D01*
X88391500Y-81914500D01*
X88391500Y-84920695D01*
X88371498Y-84988816D01*
X88317842Y-85035309D01*
X88247568Y-85045413D01*
X88182988Y-85015919D01*
X88160734Y-84990696D01*
X88157527Y-84985897D01*
X88152512Y-84979361D01*
X88139853Y-84964926D01*
X88126614Y-84956528D01*
X88116849Y-84962362D01*
X86732020Y-86347190D01*
X86724408Y-86361131D01*
X86724539Y-86362966D01*
X86728790Y-86369580D01*
X88115095Y-87755884D01*
X88128856Y-87763399D01*
X88138216Y-87756941D01*
X88152512Y-87740639D01*
X88157527Y-87734103D01*
X88160734Y-87729304D01*
X88215211Y-87683776D01*
X88285654Y-87674927D01*
X88349698Y-87705568D01*
X88387010Y-87765969D01*
X88391500Y-87799305D01*
X88391500Y-159385500D01*
X88371498Y-159453621D01*
X88317842Y-159500114D01*
X88265500Y-159511500D01*
X38734500Y-159511500D01*
X38666379Y-159491498D01*
X38619886Y-159437842D01*
X38608500Y-159385500D01*
X38608500Y-156708856D01*
X39236601Y-156708856D01*
X39243059Y-156718216D01*
X39259361Y-156732512D01*
X39265901Y-156737530D01*
X39505144Y-156897387D01*
X39512281Y-156901508D01*
X39770349Y-157028772D01*
X39777953Y-157031922D01*
X40050420Y-157124412D01*
X40058383Y-157126546D01*
X40340600Y-157182683D01*
X40348751Y-157183756D01*
X40635881Y-157202575D01*
X40644119Y-157202575D01*
X40931249Y-157183756D01*
X40939400Y-157182683D01*
X41221617Y-157126546D01*
X41229580Y-157124412D01*
X41502047Y-157031922D01*
X41509651Y-157028772D01*
X41767719Y-156901508D01*
X41774856Y-156897387D01*
X42014099Y-156737530D01*
X42020639Y-156732512D01*
X42035074Y-156719853D01*
X42043472Y-156706614D01*
X42037638Y-156696849D01*
X40652810Y-155312020D01*
X40638869Y-155304408D01*
X40637034Y-155304539D01*
X40630420Y-155308790D01*
X39244116Y-156695095D01*
X39236601Y-156708856D01*
X38608500Y-156708856D01*
X38608500Y-156379305D01*
X38628502Y-156311184D01*
X38682158Y-156264691D01*
X38752432Y-156254587D01*
X38817012Y-156284081D01*
X38839266Y-156309304D01*
X38842473Y-156314103D01*
X38847488Y-156320639D01*
X38860147Y-156335074D01*
X38873386Y-156343472D01*
X38883151Y-156337638D01*
X40267980Y-154952810D01*
X40274357Y-154941131D01*
X41004408Y-154941131D01*
X41004539Y-154942966D01*
X41008790Y-154949580D01*
X42395095Y-156335884D01*
X42408856Y-156343399D01*
X42418216Y-156336941D01*
X42432512Y-156320639D01*
X42437530Y-156314099D01*
X42597387Y-156074855D01*
X42601508Y-156067718D01*
X42728772Y-155809651D01*
X42731922Y-155802047D01*
X42824412Y-155529580D01*
X42826546Y-155521617D01*
X42882683Y-155239400D01*
X42883756Y-155231249D01*
X42902575Y-154944119D01*
X42902575Y-154935881D01*
X42883756Y-154648751D01*
X42882683Y-154640600D01*
X42826546Y-154358383D01*
X42824412Y-154350420D01*
X42731922Y-154077953D01*
X42728772Y-154070349D01*
X42601508Y-153812282D01*
X42597387Y-153805145D01*
X42437530Y-153565901D01*
X42432512Y-153559361D01*
X42419853Y-153544926D01*
X42406614Y-153536528D01*
X42396849Y-153542362D01*
X41012020Y-154927190D01*
X41004408Y-154941131D01*
X40274357Y-154941131D01*
X40275592Y-154938869D01*
X40275461Y-154937034D01*
X40271210Y-154930420D01*
X38884905Y-153544116D01*
X38871144Y-153536601D01*
X38861784Y-153543059D01*
X38847488Y-153559361D01*
X38842473Y-153565897D01*
X38839266Y-153570696D01*
X38784789Y-153616224D01*
X38714346Y-153625073D01*
X38650302Y-153594432D01*
X38612990Y-153534031D01*
X38608500Y-153500695D01*
X38608500Y-153173386D01*
X39236528Y-153173386D01*
X39242362Y-153183151D01*
X40627190Y-154567980D01*
X40641131Y-154575592D01*
X40642966Y-154575461D01*
X40649580Y-154571210D01*
X42035884Y-153184905D01*
X42043399Y-153171144D01*
X42036941Y-153161784D01*
X42020639Y-153147488D01*
X42014099Y-153142470D01*
X41774856Y-152982613D01*
X41767719Y-152978492D01*
X41509651Y-152851228D01*
X41502047Y-152848078D01*
X41229580Y-152755588D01*
X41221617Y-152753454D01*
X40939400Y-152697317D01*
X40931249Y-152696244D01*
X40644119Y-152677425D01*
X40635881Y-152677425D01*
X40348751Y-152696244D01*
X40340600Y-152697317D01*
X40058383Y-152753454D01*
X40050420Y-152755588D01*
X39777953Y-152848078D01*
X39770349Y-152851228D01*
X39512282Y-152978492D01*
X39505145Y-152982613D01*
X39265901Y-153142470D01*
X39259361Y-153147488D01*
X39244926Y-153160147D01*
X39236528Y-153173386D01*
X38608500Y-153173386D01*
X38608500Y-126945604D01*
X44207787Y-126945604D01*
X44217567Y-127156899D01*
X44267125Y-127362534D01*
X44269607Y-127367992D01*
X44269608Y-127367996D01*
X44311152Y-127459366D01*
X44354674Y-127555087D01*
X44477054Y-127727611D01*
X44629850Y-127873881D01*
X44807548Y-127988620D01*
X44813114Y-127990863D01*
X45003737Y-128067686D01*
X45003094Y-128069280D01*
X45055927Y-128103418D01*
X45085261Y-128168071D01*
X45086500Y-128185696D01*
X45086500Y-149788207D01*
X45084268Y-149811816D01*
X45082725Y-149819906D01*
X45085592Y-149865475D01*
X45086251Y-149875951D01*
X45086500Y-149883862D01*
X45086500Y-149899856D01*
X45088506Y-149915730D01*
X45089248Y-149923590D01*
X45092775Y-149979650D01*
X45095225Y-149987191D01*
X45095321Y-149987487D01*
X45100494Y-150010631D01*
X45100532Y-150010935D01*
X45100533Y-150010940D01*
X45101526Y-150018797D01*
X45104442Y-150026162D01*
X45104443Y-150026166D01*
X45122199Y-150071011D01*
X45124871Y-150078430D01*
X45142236Y-150131875D01*
X45146486Y-150138571D01*
X45146486Y-150138572D01*
X45146650Y-150138831D01*
X45157415Y-150159958D01*
X45157529Y-150160246D01*
X45157532Y-150160251D01*
X45160448Y-150167617D01*
X45165104Y-150174025D01*
X45165107Y-150174031D01*
X45193458Y-150213052D01*
X45197901Y-150219589D01*
X45228000Y-150267018D01*
X45233778Y-150272444D01*
X45233779Y-150272445D01*
X45234007Y-150272659D01*
X45249688Y-150290446D01*
X45254528Y-150297107D01*
X45260637Y-150302161D01*
X45260638Y-150302162D01*
X45297796Y-150332903D01*
X45303730Y-150338134D01*
X45338898Y-150371158D01*
X45338901Y-150371160D01*
X45344679Y-150376586D01*
X45351903Y-150380558D01*
X45371506Y-150393881D01*
X45371746Y-150394080D01*
X45371753Y-150394084D01*
X45377856Y-150399133D01*
X45417400Y-150417741D01*
X45428676Y-150423047D01*
X45435708Y-150426629D01*
X45484940Y-150453695D01*
X45492615Y-150455665D01*
X45492621Y-150455668D01*
X45492919Y-150455744D01*
X45515228Y-150463776D01*
X45515503Y-150463906D01*
X45515511Y-150463909D01*
X45522682Y-150467283D01*
X45577849Y-150477806D01*
X45585558Y-150479529D01*
X45619551Y-150488257D01*
X45632293Y-150491529D01*
X45632294Y-150491529D01*
X45639970Y-150493500D01*
X45648207Y-150493500D01*
X45671816Y-150495732D01*
X45672119Y-150495790D01*
X45672123Y-150495790D01*
X45679906Y-150497275D01*
X45735951Y-150493749D01*
X45743862Y-150493500D01*
X49605023Y-150493500D01*
X49673144Y-150513502D01*
X49708232Y-150547226D01*
X49809181Y-150691396D01*
X49968604Y-150850819D01*
X50112773Y-150951766D01*
X50157099Y-151007220D01*
X50166500Y-151054977D01*
X50166500Y-152328207D01*
X50164268Y-152351816D01*
X50162725Y-152359906D01*
X50163223Y-152367817D01*
X50166251Y-152415951D01*
X50166500Y-152423862D01*
X50166500Y-152439856D01*
X50168506Y-152455730D01*
X50169248Y-152463590D01*
X50172775Y-152519650D01*
X50175225Y-152527191D01*
X50175321Y-152527487D01*
X50180494Y-152550631D01*
X50180532Y-152550935D01*
X50180533Y-152550940D01*
X50181526Y-152558797D01*
X50184442Y-152566162D01*
X50184443Y-152566166D01*
X50202199Y-152611011D01*
X50204871Y-152618430D01*
X50222236Y-152671875D01*
X50226486Y-152678571D01*
X50226486Y-152678572D01*
X50226650Y-152678831D01*
X50237415Y-152699958D01*
X50237529Y-152700246D01*
X50237532Y-152700251D01*
X50240448Y-152707617D01*
X50245104Y-152714025D01*
X50245107Y-152714031D01*
X50273458Y-152753052D01*
X50277901Y-152759589D01*
X50308000Y-152807018D01*
X50313778Y-152812444D01*
X50313779Y-152812445D01*
X50314007Y-152812659D01*
X50329688Y-152830446D01*
X50334528Y-152837107D01*
X50340637Y-152842161D01*
X50340638Y-152842162D01*
X50377796Y-152872903D01*
X50383730Y-152878134D01*
X50418898Y-152911158D01*
X50418901Y-152911160D01*
X50424679Y-152916586D01*
X50431903Y-152920558D01*
X50451506Y-152933881D01*
X50451746Y-152934080D01*
X50451753Y-152934084D01*
X50457856Y-152939133D01*
X50497400Y-152957741D01*
X50508676Y-152963047D01*
X50515708Y-152966629D01*
X50564940Y-152993695D01*
X50572615Y-152995665D01*
X50572621Y-152995668D01*
X50572919Y-152995744D01*
X50595228Y-153003776D01*
X50595503Y-153003906D01*
X50595511Y-153003909D01*
X50602682Y-153007283D01*
X50657849Y-153017806D01*
X50665558Y-153019529D01*
X50699551Y-153028257D01*
X50712293Y-153031529D01*
X50712294Y-153031529D01*
X50719970Y-153033500D01*
X50728207Y-153033500D01*
X50751816Y-153035732D01*
X50752119Y-153035790D01*
X50752123Y-153035790D01*
X50759906Y-153037275D01*
X50815951Y-153033749D01*
X50823862Y-153033500D01*
X65968207Y-153033500D01*
X65991816Y-153035732D01*
X65992119Y-153035790D01*
X65992123Y-153035790D01*
X65999906Y-153037275D01*
X66055951Y-153033749D01*
X66063862Y-153033500D01*
X77980500Y-153033500D01*
X78048621Y-153053502D01*
X78095114Y-153107158D01*
X78106500Y-153159500D01*
X78106500Y-154868207D01*
X78104268Y-154891816D01*
X78102725Y-154899906D01*
X78103223Y-154907817D01*
X78106251Y-154955951D01*
X78106500Y-154963862D01*
X78106500Y-154979856D01*
X78108506Y-154995730D01*
X78109248Y-155003590D01*
X78112775Y-155059650D01*
X78115225Y-155067191D01*
X78115321Y-155067487D01*
X78120494Y-155090631D01*
X78120532Y-155090935D01*
X78120533Y-155090940D01*
X78121526Y-155098797D01*
X78124442Y-155106162D01*
X78124443Y-155106166D01*
X78142199Y-155151011D01*
X78144871Y-155158430D01*
X78162236Y-155211875D01*
X78166486Y-155218571D01*
X78166486Y-155218572D01*
X78166650Y-155218831D01*
X78177415Y-155239958D01*
X78177529Y-155240246D01*
X78177532Y-155240251D01*
X78180448Y-155247617D01*
X78185104Y-155254025D01*
X78185107Y-155254031D01*
X78213458Y-155293052D01*
X78217901Y-155299589D01*
X78248000Y-155347018D01*
X78253778Y-155352444D01*
X78253779Y-155352445D01*
X78254007Y-155352659D01*
X78269688Y-155370446D01*
X78274528Y-155377107D01*
X78280637Y-155382161D01*
X78280638Y-155382162D01*
X78317796Y-155412903D01*
X78323730Y-155418134D01*
X78358898Y-155451158D01*
X78358901Y-155451160D01*
X78364679Y-155456586D01*
X78371903Y-155460558D01*
X78391506Y-155473881D01*
X78391746Y-155474080D01*
X78391753Y-155474084D01*
X78397856Y-155479133D01*
X78437400Y-155497741D01*
X78448676Y-155503047D01*
X78455708Y-155506629D01*
X78504940Y-155533695D01*
X78512615Y-155535665D01*
X78512621Y-155535668D01*
X78512919Y-155535744D01*
X78535228Y-155543776D01*
X78535503Y-155543906D01*
X78535511Y-155543909D01*
X78542682Y-155547283D01*
X78597849Y-155557806D01*
X78605558Y-155559529D01*
X78639551Y-155568257D01*
X78652293Y-155571529D01*
X78652294Y-155571529D01*
X78659970Y-155573500D01*
X78668207Y-155573500D01*
X78691816Y-155575732D01*
X78692119Y-155575790D01*
X78692123Y-155575790D01*
X78699906Y-155577275D01*
X78755951Y-155573749D01*
X78763862Y-155573500D01*
X81368930Y-155573500D01*
X81437051Y-155593502D01*
X81483544Y-155647158D01*
X81489834Y-155664028D01*
X81516092Y-155753534D01*
X81518836Y-155758861D01*
X81518836Y-155758862D01*
X81610057Y-155935978D01*
X81612942Y-155941580D01*
X81743604Y-156107920D01*
X81748135Y-156111852D01*
X81748138Y-156111855D01*
X81833620Y-156186032D01*
X81903363Y-156246552D01*
X81908549Y-156249552D01*
X81908553Y-156249555D01*
X82015083Y-156311184D01*
X82086454Y-156352473D01*
X82286271Y-156421861D01*
X82292206Y-156422722D01*
X82292208Y-156422722D01*
X82489664Y-156451352D01*
X82489667Y-156451352D01*
X82495604Y-156452213D01*
X82706899Y-156442433D01*
X82838077Y-156410819D01*
X82906701Y-156394281D01*
X82906703Y-156394280D01*
X82912534Y-156392875D01*
X82917992Y-156390393D01*
X82917996Y-156390392D01*
X83035554Y-156336941D01*
X83105087Y-156305326D01*
X83277611Y-156182946D01*
X83423881Y-156030150D01*
X83538620Y-155852452D01*
X83580877Y-155747599D01*
X83615442Y-155661832D01*
X83615443Y-155661829D01*
X83617686Y-155656263D01*
X83658228Y-155448663D01*
X83658500Y-155443101D01*
X83658500Y-155389832D01*
X83982000Y-155389832D01*
X83982285Y-155395808D01*
X83996471Y-155544494D01*
X83998730Y-155556228D01*
X84054872Y-155747599D01*
X84059302Y-155758675D01*
X84150619Y-155935978D01*
X84157069Y-155946024D01*
X84280262Y-156102857D01*
X84288499Y-156111506D01*
X84439123Y-156242212D01*
X84448847Y-156249147D01*
X84621467Y-156349010D01*
X84632331Y-156353984D01*
X84820727Y-156419407D01*
X84821716Y-156419648D01*
X84832008Y-156418180D01*
X84836000Y-156404615D01*
X84836000Y-156400402D01*
X85344000Y-156400402D01*
X85347973Y-156413933D01*
X85357399Y-156415288D01*
X85446537Y-156393806D01*
X85457832Y-156389917D01*
X85639382Y-156307371D01*
X85649724Y-156301424D01*
X85812397Y-156186032D01*
X85821425Y-156178239D01*
X85959342Y-156034169D01*
X85966738Y-156024804D01*
X86074921Y-155857259D01*
X86080417Y-155846655D01*
X86154961Y-155661688D01*
X86158355Y-155650230D01*
X86196857Y-155453072D01*
X86197934Y-155444209D01*
X86198000Y-155441500D01*
X86198000Y-155212115D01*
X86193525Y-155196876D01*
X86192135Y-155195671D01*
X86184452Y-155194000D01*
X85362115Y-155194000D01*
X85346876Y-155198475D01*
X85345671Y-155199865D01*
X85344000Y-155207548D01*
X85344000Y-156400402D01*
X84836000Y-156400402D01*
X84836000Y-155212115D01*
X84831525Y-155196876D01*
X84830135Y-155195671D01*
X84822452Y-155194000D01*
X84000115Y-155194000D01*
X83984876Y-155198475D01*
X83983671Y-155199865D01*
X83982000Y-155207548D01*
X83982000Y-155389832D01*
X83658500Y-155389832D01*
X83658500Y-154667885D01*
X83982000Y-154667885D01*
X83986475Y-154683124D01*
X83987865Y-154684329D01*
X83995548Y-154686000D01*
X84817885Y-154686000D01*
X84833124Y-154681525D01*
X84834329Y-154680135D01*
X84836000Y-154672452D01*
X84836000Y-154667885D01*
X85344000Y-154667885D01*
X85348475Y-154683124D01*
X85349865Y-154684329D01*
X85357548Y-154686000D01*
X86179885Y-154686000D01*
X86195124Y-154681525D01*
X86196329Y-154680135D01*
X86198000Y-154672452D01*
X86198000Y-154490168D01*
X86197715Y-154484192D01*
X86183529Y-154335506D01*
X86181270Y-154323772D01*
X86125128Y-154132401D01*
X86120698Y-154121325D01*
X86029381Y-153944022D01*
X86022931Y-153933976D01*
X85899738Y-153777143D01*
X85891501Y-153768494D01*
X85740877Y-153637788D01*
X85731153Y-153630853D01*
X85558533Y-153530990D01*
X85547669Y-153526016D01*
X85359273Y-153460593D01*
X85358284Y-153460352D01*
X85347992Y-153461820D01*
X85344000Y-153475385D01*
X85344000Y-154667885D01*
X84836000Y-154667885D01*
X84836000Y-153479598D01*
X84832027Y-153466067D01*
X84822601Y-153464712D01*
X84733463Y-153486194D01*
X84722168Y-153490083D01*
X84540618Y-153572629D01*
X84530276Y-153578576D01*
X84367603Y-153693968D01*
X84358575Y-153701761D01*
X84220658Y-153845831D01*
X84213262Y-153855196D01*
X84105079Y-154022741D01*
X84099583Y-154033345D01*
X84025039Y-154218312D01*
X84021645Y-154229770D01*
X83983143Y-154426928D01*
X83982066Y-154435791D01*
X83982000Y-154438500D01*
X83982000Y-154667885D01*
X83658500Y-154667885D01*
X83658500Y-154487154D01*
X83643452Y-154329434D01*
X83583908Y-154126466D01*
X83530368Y-154022511D01*
X83489804Y-153943751D01*
X83489802Y-153943748D01*
X83487058Y-153938420D01*
X83356396Y-153772080D01*
X83351865Y-153768148D01*
X83351862Y-153768145D01*
X83201167Y-153637379D01*
X83196637Y-153633448D01*
X83191451Y-153630448D01*
X83191447Y-153630445D01*
X83018742Y-153530533D01*
X83013546Y-153527527D01*
X82813729Y-153458139D01*
X82807794Y-153457278D01*
X82807792Y-153457278D01*
X82610336Y-153428648D01*
X82610333Y-153428648D01*
X82604396Y-153427787D01*
X82393101Y-153437567D01*
X82280466Y-153464712D01*
X82193299Y-153485719D01*
X82193297Y-153485720D01*
X82187466Y-153487125D01*
X82182008Y-153489607D01*
X82182004Y-153489608D01*
X82090990Y-153530990D01*
X81994913Y-153574674D01*
X81822389Y-153697054D01*
X81676119Y-153849850D01*
X81561380Y-154027548D01*
X81482314Y-154223737D01*
X81480720Y-154223094D01*
X81446582Y-154275927D01*
X81381929Y-154305261D01*
X81364304Y-154306500D01*
X79499500Y-154306500D01*
X79431379Y-154286498D01*
X79384886Y-154232842D01*
X79373500Y-154180500D01*
X79373500Y-152471793D01*
X79375732Y-152448184D01*
X79375790Y-152447881D01*
X79375790Y-152447877D01*
X79377275Y-152440094D01*
X79373749Y-152384049D01*
X79373500Y-152376138D01*
X79373500Y-148535604D01*
X82307787Y-148535604D01*
X82317567Y-148746899D01*
X82318971Y-148752724D01*
X82318971Y-148752725D01*
X82347976Y-148873076D01*
X82367125Y-148952534D01*
X82369607Y-148957992D01*
X82369608Y-148957996D01*
X82413053Y-149053546D01*
X82454674Y-149145087D01*
X82577054Y-149317611D01*
X82729850Y-149463881D01*
X82907548Y-149578620D01*
X82913114Y-149580863D01*
X83098168Y-149655442D01*
X83098171Y-149655443D01*
X83103737Y-149657686D01*
X83311337Y-149698228D01*
X83316899Y-149698500D01*
X84272846Y-149698500D01*
X84430566Y-149683452D01*
X84633534Y-149623908D01*
X84717111Y-149580863D01*
X84816249Y-149529804D01*
X84816252Y-149529802D01*
X84821580Y-149527058D01*
X84987920Y-149396396D01*
X84991852Y-149391865D01*
X84991855Y-149391862D01*
X85122621Y-149241167D01*
X85126552Y-149236637D01*
X85129552Y-149231451D01*
X85129555Y-149231447D01*
X85229467Y-149058742D01*
X85232473Y-149053546D01*
X85301861Y-148853729D01*
X85323543Y-148704195D01*
X85331352Y-148650336D01*
X85331352Y-148650333D01*
X85332213Y-148644396D01*
X85322433Y-148433101D01*
X85272875Y-148227466D01*
X85236237Y-148146884D01*
X85187806Y-148040368D01*
X85185326Y-148034913D01*
X85062946Y-147862389D01*
X84910150Y-147716119D01*
X84732452Y-147601380D01*
X84672354Y-147577160D01*
X84541832Y-147524558D01*
X84541829Y-147524557D01*
X84536263Y-147522314D01*
X84328663Y-147481772D01*
X84323101Y-147481500D01*
X83367154Y-147481500D01*
X83209434Y-147496548D01*
X83006466Y-147556092D01*
X83001139Y-147558836D01*
X83001138Y-147558836D01*
X82823751Y-147650196D01*
X82823748Y-147650198D01*
X82818420Y-147652942D01*
X82652080Y-147783604D01*
X82648148Y-147788135D01*
X82648145Y-147788138D01*
X82579474Y-147867275D01*
X82513448Y-147943363D01*
X82510448Y-147948549D01*
X82510445Y-147948553D01*
X82463312Y-148030026D01*
X82407527Y-148126454D01*
X82338139Y-148326271D01*
X82337278Y-148332206D01*
X82337278Y-148332208D01*
X82309655Y-148522723D01*
X82307787Y-148535604D01*
X79373500Y-148535604D01*
X79373500Y-145995604D01*
X82307787Y-145995604D01*
X82317567Y-146206899D01*
X82318971Y-146212724D01*
X82318971Y-146212725D01*
X82347976Y-146333076D01*
X82367125Y-146412534D01*
X82369607Y-146417992D01*
X82369608Y-146417996D01*
X82413053Y-146513546D01*
X82454674Y-146605087D01*
X82577054Y-146777611D01*
X82729850Y-146923881D01*
X82907548Y-147038620D01*
X82913114Y-147040863D01*
X83098168Y-147115442D01*
X83098171Y-147115443D01*
X83103737Y-147117686D01*
X83311337Y-147158228D01*
X83316899Y-147158500D01*
X84272846Y-147158500D01*
X84430566Y-147143452D01*
X84633534Y-147083908D01*
X84717111Y-147040863D01*
X84816249Y-146989804D01*
X84816252Y-146989802D01*
X84821580Y-146987058D01*
X84987920Y-146856396D01*
X84991852Y-146851865D01*
X84991855Y-146851862D01*
X85122621Y-146701167D01*
X85126552Y-146696637D01*
X85129552Y-146691451D01*
X85129555Y-146691447D01*
X85229467Y-146518742D01*
X85232473Y-146513546D01*
X85301861Y-146313729D01*
X85323543Y-146164195D01*
X85331352Y-146110336D01*
X85331352Y-146110333D01*
X85332213Y-146104396D01*
X85322433Y-145893101D01*
X85272875Y-145687466D01*
X85236237Y-145606884D01*
X85187806Y-145500368D01*
X85185326Y-145494913D01*
X85062946Y-145322389D01*
X84910150Y-145176119D01*
X84732452Y-145061380D01*
X84672354Y-145037160D01*
X84541832Y-144984558D01*
X84541829Y-144984557D01*
X84536263Y-144982314D01*
X84328663Y-144941772D01*
X84323101Y-144941500D01*
X83367154Y-144941500D01*
X83209434Y-144956548D01*
X83006466Y-145016092D01*
X83001139Y-145018836D01*
X83001138Y-145018836D01*
X82823751Y-145110196D01*
X82823748Y-145110198D01*
X82818420Y-145112942D01*
X82652080Y-145243604D01*
X82648148Y-145248135D01*
X82648145Y-145248138D01*
X82579474Y-145327275D01*
X82513448Y-145403363D01*
X82510448Y-145408549D01*
X82510445Y-145408553D01*
X82463312Y-145490026D01*
X82407527Y-145586454D01*
X82338139Y-145786271D01*
X82337278Y-145792206D01*
X82337278Y-145792208D01*
X82309655Y-145982723D01*
X82307787Y-145995604D01*
X79373500Y-145995604D01*
X79373500Y-143455604D01*
X82307787Y-143455604D01*
X82317567Y-143666899D01*
X82318971Y-143672724D01*
X82318971Y-143672725D01*
X82347976Y-143793076D01*
X82367125Y-143872534D01*
X82369607Y-143877992D01*
X82369608Y-143877996D01*
X82413053Y-143973546D01*
X82454674Y-144065087D01*
X82577054Y-144237611D01*
X82729850Y-144383881D01*
X82907548Y-144498620D01*
X82913114Y-144500863D01*
X83098168Y-144575442D01*
X83098171Y-144575443D01*
X83103737Y-144577686D01*
X83311337Y-144618228D01*
X83316899Y-144618500D01*
X84272846Y-144618500D01*
X84430566Y-144603452D01*
X84633534Y-144543908D01*
X84717111Y-144500863D01*
X84816249Y-144449804D01*
X84816252Y-144449802D01*
X84821580Y-144447058D01*
X84987920Y-144316396D01*
X84991852Y-144311865D01*
X84991855Y-144311862D01*
X85122621Y-144161167D01*
X85126552Y-144156637D01*
X85129552Y-144151451D01*
X85129555Y-144151447D01*
X85229467Y-143978742D01*
X85232473Y-143973546D01*
X85301861Y-143773729D01*
X85323543Y-143624195D01*
X85331352Y-143570336D01*
X85331352Y-143570333D01*
X85332213Y-143564396D01*
X85322433Y-143353101D01*
X85272875Y-143147466D01*
X85236237Y-143066884D01*
X85187806Y-142960368D01*
X85185326Y-142954913D01*
X85062946Y-142782389D01*
X84910150Y-142636119D01*
X84732452Y-142521380D01*
X84672354Y-142497160D01*
X84541832Y-142444558D01*
X84541829Y-142444557D01*
X84536263Y-142442314D01*
X84328663Y-142401772D01*
X84323101Y-142401500D01*
X83367154Y-142401500D01*
X83209434Y-142416548D01*
X83006466Y-142476092D01*
X83001139Y-142478836D01*
X83001138Y-142478836D01*
X82823751Y-142570196D01*
X82823748Y-142570198D01*
X82818420Y-142572942D01*
X82652080Y-142703604D01*
X82648148Y-142708135D01*
X82648145Y-142708138D01*
X82579474Y-142787275D01*
X82513448Y-142863363D01*
X82510448Y-142868549D01*
X82510445Y-142868553D01*
X82463312Y-142950026D01*
X82407527Y-143046454D01*
X82338139Y-143246271D01*
X82337278Y-143252206D01*
X82337278Y-143252208D01*
X82309655Y-143442723D01*
X82307787Y-143455604D01*
X79373500Y-143455604D01*
X79373500Y-140915604D01*
X82307787Y-140915604D01*
X82317567Y-141126899D01*
X82318971Y-141132724D01*
X82318971Y-141132725D01*
X82347976Y-141253076D01*
X82367125Y-141332534D01*
X82369607Y-141337992D01*
X82369608Y-141337996D01*
X82413053Y-141433546D01*
X82454674Y-141525087D01*
X82577054Y-141697611D01*
X82729850Y-141843881D01*
X82907548Y-141958620D01*
X82913114Y-141960863D01*
X83098168Y-142035442D01*
X83098171Y-142035443D01*
X83103737Y-142037686D01*
X83311337Y-142078228D01*
X83316899Y-142078500D01*
X84272846Y-142078500D01*
X84430566Y-142063452D01*
X84633534Y-142003908D01*
X84717111Y-141960863D01*
X84816249Y-141909804D01*
X84816252Y-141909802D01*
X84821580Y-141907058D01*
X84987920Y-141776396D01*
X84991852Y-141771865D01*
X84991855Y-141771862D01*
X85122621Y-141621167D01*
X85126552Y-141616637D01*
X85129552Y-141611451D01*
X85129555Y-141611447D01*
X85229467Y-141438742D01*
X85232473Y-141433546D01*
X85301861Y-141233729D01*
X85323543Y-141084195D01*
X85331352Y-141030336D01*
X85331352Y-141030333D01*
X85332213Y-141024396D01*
X85322433Y-140813101D01*
X85272875Y-140607466D01*
X85236237Y-140526884D01*
X85187806Y-140420368D01*
X85185326Y-140414913D01*
X85062946Y-140242389D01*
X84910150Y-140096119D01*
X84732452Y-139981380D01*
X84672354Y-139957160D01*
X84541832Y-139904558D01*
X84541829Y-139904557D01*
X84536263Y-139902314D01*
X84328663Y-139861772D01*
X84323101Y-139861500D01*
X83367154Y-139861500D01*
X83209434Y-139876548D01*
X83006466Y-139936092D01*
X83001139Y-139938836D01*
X83001138Y-139938836D01*
X82823751Y-140030196D01*
X82823748Y-140030198D01*
X82818420Y-140032942D01*
X82652080Y-140163604D01*
X82648148Y-140168135D01*
X82648145Y-140168138D01*
X82579474Y-140247275D01*
X82513448Y-140323363D01*
X82510448Y-140328549D01*
X82510445Y-140328553D01*
X82463312Y-140410026D01*
X82407527Y-140506454D01*
X82338139Y-140706271D01*
X82337278Y-140712206D01*
X82337278Y-140712208D01*
X82309655Y-140902723D01*
X82307787Y-140915604D01*
X79373500Y-140915604D01*
X79373500Y-138375604D01*
X82307787Y-138375604D01*
X82317567Y-138586899D01*
X82318971Y-138592724D01*
X82318971Y-138592725D01*
X82347976Y-138713076D01*
X82367125Y-138792534D01*
X82369607Y-138797992D01*
X82369608Y-138797996D01*
X82413053Y-138893546D01*
X82454674Y-138985087D01*
X82577054Y-139157611D01*
X82729850Y-139303881D01*
X82907548Y-139418620D01*
X82913114Y-139420863D01*
X83098168Y-139495442D01*
X83098171Y-139495443D01*
X83103737Y-139497686D01*
X83311337Y-139538228D01*
X83316899Y-139538500D01*
X84272846Y-139538500D01*
X84430566Y-139523452D01*
X84633534Y-139463908D01*
X84717111Y-139420863D01*
X84816249Y-139369804D01*
X84816252Y-139369802D01*
X84821580Y-139367058D01*
X84987920Y-139236396D01*
X84991852Y-139231865D01*
X84991855Y-139231862D01*
X85122621Y-139081167D01*
X85126552Y-139076637D01*
X85129552Y-139071451D01*
X85129555Y-139071447D01*
X85229467Y-138898742D01*
X85232473Y-138893546D01*
X85301861Y-138693729D01*
X85323543Y-138544195D01*
X85331352Y-138490336D01*
X85331352Y-138490333D01*
X85332213Y-138484396D01*
X85322433Y-138273101D01*
X85272875Y-138067466D01*
X85236237Y-137986884D01*
X85187806Y-137880368D01*
X85185326Y-137874913D01*
X85062946Y-137702389D01*
X84910150Y-137556119D01*
X84732452Y-137441380D01*
X84672354Y-137417160D01*
X84541832Y-137364558D01*
X84541829Y-137364557D01*
X84536263Y-137362314D01*
X84328663Y-137321772D01*
X84323101Y-137321500D01*
X83367154Y-137321500D01*
X83209434Y-137336548D01*
X83006466Y-137396092D01*
X83001139Y-137398836D01*
X83001138Y-137398836D01*
X82823751Y-137490196D01*
X82823748Y-137490198D01*
X82818420Y-137492942D01*
X82652080Y-137623604D01*
X82648148Y-137628135D01*
X82648145Y-137628138D01*
X82579474Y-137707275D01*
X82513448Y-137783363D01*
X82510448Y-137788549D01*
X82510445Y-137788553D01*
X82463312Y-137870026D01*
X82407527Y-137966454D01*
X82338139Y-138166271D01*
X82337278Y-138172206D01*
X82337278Y-138172208D01*
X82309655Y-138362723D01*
X82307787Y-138375604D01*
X79373500Y-138375604D01*
X79373500Y-135835604D01*
X82307787Y-135835604D01*
X82317567Y-136046899D01*
X82318971Y-136052724D01*
X82318971Y-136052725D01*
X82347976Y-136173076D01*
X82367125Y-136252534D01*
X82369607Y-136257992D01*
X82369608Y-136257996D01*
X82413053Y-136353546D01*
X82454674Y-136445087D01*
X82577054Y-136617611D01*
X82729850Y-136763881D01*
X82907548Y-136878620D01*
X82913114Y-136880863D01*
X83098168Y-136955442D01*
X83098171Y-136955443D01*
X83103737Y-136957686D01*
X83311337Y-136998228D01*
X83316899Y-136998500D01*
X84272846Y-136998500D01*
X84430566Y-136983452D01*
X84633534Y-136923908D01*
X84717111Y-136880863D01*
X84816249Y-136829804D01*
X84816252Y-136829802D01*
X84821580Y-136827058D01*
X84987920Y-136696396D01*
X84991852Y-136691865D01*
X84991855Y-136691862D01*
X85122621Y-136541167D01*
X85126552Y-136536637D01*
X85129552Y-136531451D01*
X85129555Y-136531447D01*
X85229467Y-136358742D01*
X85232473Y-136353546D01*
X85301861Y-136153729D01*
X85323543Y-136004195D01*
X85331352Y-135950336D01*
X85331352Y-135950333D01*
X85332213Y-135944396D01*
X85322433Y-135733101D01*
X85272875Y-135527466D01*
X85236237Y-135446884D01*
X85187806Y-135340368D01*
X85185326Y-135334913D01*
X85062946Y-135162389D01*
X84910150Y-135016119D01*
X84732452Y-134901380D01*
X84672354Y-134877160D01*
X84541832Y-134824558D01*
X84541829Y-134824557D01*
X84536263Y-134822314D01*
X84328663Y-134781772D01*
X84323101Y-134781500D01*
X83367154Y-134781500D01*
X83209434Y-134796548D01*
X83006466Y-134856092D01*
X83001139Y-134858836D01*
X83001138Y-134858836D01*
X82823751Y-134950196D01*
X82823748Y-134950198D01*
X82818420Y-134952942D01*
X82652080Y-135083604D01*
X82648148Y-135088135D01*
X82648145Y-135088138D01*
X82579474Y-135167275D01*
X82513448Y-135243363D01*
X82510448Y-135248549D01*
X82510445Y-135248553D01*
X82463312Y-135330026D01*
X82407527Y-135426454D01*
X82338139Y-135626271D01*
X82337278Y-135632206D01*
X82337278Y-135632208D01*
X82309655Y-135822723D01*
X82307787Y-135835604D01*
X79373500Y-135835604D01*
X79373500Y-133617399D01*
X82344712Y-133617399D01*
X82366194Y-133706537D01*
X82370083Y-133717832D01*
X82452629Y-133899382D01*
X82458576Y-133909724D01*
X82573968Y-134072397D01*
X82581761Y-134081425D01*
X82725831Y-134219342D01*
X82735196Y-134226738D01*
X82902741Y-134334921D01*
X82913345Y-134340417D01*
X83098312Y-134414961D01*
X83109770Y-134418355D01*
X83306928Y-134456857D01*
X83315791Y-134457934D01*
X83318500Y-134458000D01*
X83547885Y-134458000D01*
X83563124Y-134453525D01*
X83564329Y-134452135D01*
X83566000Y-134444452D01*
X83566000Y-134439885D01*
X84074000Y-134439885D01*
X84078475Y-134455124D01*
X84079865Y-134456329D01*
X84087548Y-134458000D01*
X84269832Y-134458000D01*
X84275808Y-134457715D01*
X84424494Y-134443529D01*
X84436228Y-134441270D01*
X84627599Y-134385128D01*
X84638675Y-134380698D01*
X84815978Y-134289381D01*
X84826024Y-134282931D01*
X84982857Y-134159738D01*
X84991506Y-134151501D01*
X85122212Y-134000877D01*
X85129147Y-133991153D01*
X85229010Y-133818533D01*
X85233984Y-133807669D01*
X85299407Y-133619273D01*
X85299648Y-133618284D01*
X85298180Y-133607992D01*
X85284615Y-133604000D01*
X84092115Y-133604000D01*
X84076876Y-133608475D01*
X84075671Y-133609865D01*
X84074000Y-133617548D01*
X84074000Y-134439885D01*
X83566000Y-134439885D01*
X83566000Y-133622115D01*
X83561525Y-133606876D01*
X83560135Y-133605671D01*
X83552452Y-133604000D01*
X82359598Y-133604000D01*
X82346067Y-133607973D01*
X82344712Y-133617399D01*
X79373500Y-133617399D01*
X79373500Y-133081716D01*
X82340352Y-133081716D01*
X82341820Y-133092008D01*
X82355385Y-133096000D01*
X83547885Y-133096000D01*
X83563124Y-133091525D01*
X83564329Y-133090135D01*
X83566000Y-133082452D01*
X83566000Y-133077885D01*
X84074000Y-133077885D01*
X84078475Y-133093124D01*
X84079865Y-133094329D01*
X84087548Y-133096000D01*
X85280402Y-133096000D01*
X85293933Y-133092027D01*
X85295288Y-133082601D01*
X85273806Y-132993463D01*
X85269917Y-132982168D01*
X85187371Y-132800618D01*
X85181424Y-132790276D01*
X85066032Y-132627603D01*
X85058239Y-132618575D01*
X84914169Y-132480658D01*
X84904804Y-132473262D01*
X84737259Y-132365079D01*
X84726655Y-132359583D01*
X84541688Y-132285039D01*
X84530230Y-132281645D01*
X84333072Y-132243143D01*
X84324209Y-132242066D01*
X84321500Y-132242000D01*
X84092115Y-132242000D01*
X84076876Y-132246475D01*
X84075671Y-132247865D01*
X84074000Y-132255548D01*
X84074000Y-133077885D01*
X83566000Y-133077885D01*
X83566000Y-132260115D01*
X83561525Y-132244876D01*
X83560135Y-132243671D01*
X83552452Y-132242000D01*
X83370168Y-132242000D01*
X83364192Y-132242285D01*
X83215506Y-132256471D01*
X83203772Y-132258730D01*
X83012401Y-132314872D01*
X83001325Y-132319302D01*
X82824022Y-132410619D01*
X82813976Y-132417069D01*
X82657143Y-132540262D01*
X82648494Y-132548499D01*
X82517788Y-132699123D01*
X82510853Y-132708847D01*
X82410990Y-132881467D01*
X82406016Y-132892331D01*
X82340593Y-133080727D01*
X82340352Y-133081716D01*
X79373500Y-133081716D01*
X79373500Y-132394594D01*
X79393502Y-132326473D01*
X79410405Y-132305499D01*
X80235499Y-131480405D01*
X80297811Y-131446379D01*
X80324594Y-131443500D01*
X82445193Y-131443500D01*
X82513314Y-131463502D01*
X82547963Y-131496601D01*
X82573584Y-131532720D01*
X82573587Y-131532724D01*
X82577054Y-131537611D01*
X82729850Y-131683881D01*
X82907548Y-131798620D01*
X82926352Y-131806198D01*
X83098168Y-131875442D01*
X83098171Y-131875443D01*
X83103737Y-131877686D01*
X83311337Y-131918228D01*
X83316899Y-131918500D01*
X84272846Y-131918500D01*
X84430566Y-131903452D01*
X84633534Y-131843908D01*
X84706753Y-131806198D01*
X84816249Y-131749804D01*
X84816252Y-131749802D01*
X84821580Y-131747058D01*
X84987920Y-131616396D01*
X84991852Y-131611865D01*
X84991855Y-131611862D01*
X85122621Y-131461167D01*
X85126552Y-131456637D01*
X85129552Y-131451451D01*
X85129555Y-131451447D01*
X85229467Y-131278742D01*
X85232473Y-131273546D01*
X85301861Y-131073729D01*
X85323543Y-130924195D01*
X85331352Y-130870336D01*
X85331352Y-130870333D01*
X85332213Y-130864396D01*
X85322433Y-130653101D01*
X85272875Y-130447466D01*
X85236237Y-130366884D01*
X85210856Y-130311064D01*
X85185326Y-130254913D01*
X85062946Y-130082389D01*
X84910150Y-129936119D01*
X84732452Y-129821380D01*
X84672354Y-129797160D01*
X84541832Y-129744558D01*
X84541829Y-129744557D01*
X84536263Y-129742314D01*
X84328663Y-129701772D01*
X84323101Y-129701500D01*
X83367154Y-129701500D01*
X83209434Y-129716548D01*
X83006466Y-129776092D01*
X83001139Y-129778836D01*
X83001138Y-129778836D01*
X82823751Y-129870196D01*
X82823748Y-129870198D01*
X82818420Y-129872942D01*
X82652080Y-130003604D01*
X82539725Y-130133082D01*
X82479973Y-130171421D01*
X82444561Y-130176500D01*
X80088767Y-130176500D01*
X80077584Y-130175973D01*
X80070091Y-130174298D01*
X80062165Y-130174547D01*
X80062164Y-130174547D01*
X80002014Y-130176438D01*
X79998055Y-130176500D01*
X79970144Y-130176500D01*
X79966210Y-130176997D01*
X79966209Y-130176997D01*
X79966144Y-130177005D01*
X79954307Y-130177938D01*
X79922490Y-130178938D01*
X79918029Y-130179078D01*
X79910110Y-130179327D01*
X79892454Y-130184456D01*
X79890658Y-130184978D01*
X79871306Y-130188986D01*
X79864235Y-130189880D01*
X79851203Y-130191526D01*
X79843834Y-130194443D01*
X79843832Y-130194444D01*
X79810097Y-130207800D01*
X79798869Y-130211645D01*
X79756407Y-130223982D01*
X79749585Y-130228016D01*
X79749579Y-130228019D01*
X79738968Y-130234294D01*
X79721218Y-130242990D01*
X79709756Y-130247528D01*
X79709751Y-130247531D01*
X79702383Y-130250448D01*
X79695968Y-130255109D01*
X79666625Y-130276427D01*
X79656707Y-130282943D01*
X79638019Y-130293995D01*
X79618637Y-130305458D01*
X79604313Y-130319782D01*
X79589281Y-130332621D01*
X79572893Y-130344528D01*
X79550666Y-130371396D01*
X79544712Y-130378593D01*
X79536722Y-130387373D01*
X78347747Y-131576348D01*
X78339461Y-131583888D01*
X78332982Y-131588000D01*
X78327557Y-131593777D01*
X78286357Y-131637651D01*
X78283602Y-131640493D01*
X78263865Y-131660230D01*
X78261385Y-131663427D01*
X78253682Y-131672447D01*
X78223414Y-131704679D01*
X78219595Y-131711625D01*
X78219593Y-131711628D01*
X78213652Y-131722434D01*
X78202801Y-131738953D01*
X78190386Y-131754959D01*
X78187241Y-131762228D01*
X78187238Y-131762232D01*
X78172826Y-131795537D01*
X78167609Y-131806187D01*
X78146305Y-131844940D01*
X78144334Y-131852615D01*
X78144334Y-131852616D01*
X78141267Y-131864562D01*
X78134863Y-131883266D01*
X78126819Y-131901855D01*
X78125580Y-131909678D01*
X78125577Y-131909688D01*
X78119901Y-131945524D01*
X78117495Y-131957144D01*
X78106500Y-131999970D01*
X78106500Y-132020224D01*
X78104949Y-132039934D01*
X78101780Y-132059943D01*
X78102526Y-132067835D01*
X78105941Y-132103961D01*
X78106500Y-132115819D01*
X78106500Y-151640500D01*
X78086498Y-151708621D01*
X78032842Y-151755114D01*
X77980500Y-151766500D01*
X66799500Y-151766500D01*
X66731379Y-151746498D01*
X66684886Y-151692842D01*
X66673500Y-151640500D01*
X66673500Y-149860000D01*
X74906578Y-149860000D01*
X74926228Y-150084600D01*
X74927652Y-150089913D01*
X74927652Y-150089915D01*
X74978803Y-150280811D01*
X74984581Y-150302376D01*
X74986903Y-150307357D01*
X74986904Y-150307358D01*
X75075232Y-150496777D01*
X75079864Y-150506711D01*
X75209181Y-150691396D01*
X75368604Y-150850819D01*
X75553289Y-150980136D01*
X75558267Y-150982457D01*
X75558270Y-150982459D01*
X75713786Y-151054977D01*
X75757624Y-151075419D01*
X75762932Y-151076841D01*
X75762934Y-151076842D01*
X75970085Y-151132348D01*
X75970087Y-151132348D01*
X75975400Y-151133772D01*
X76200000Y-151153422D01*
X76424600Y-151133772D01*
X76429913Y-151132348D01*
X76429915Y-151132348D01*
X76637066Y-151076842D01*
X76637068Y-151076841D01*
X76642376Y-151075419D01*
X76686214Y-151054977D01*
X76841730Y-150982459D01*
X76841733Y-150982457D01*
X76846711Y-150980136D01*
X77031396Y-150850819D01*
X77190819Y-150691396D01*
X77320136Y-150506711D01*
X77324769Y-150496777D01*
X77413096Y-150307358D01*
X77413097Y-150307357D01*
X77415419Y-150302376D01*
X77421198Y-150280811D01*
X77472348Y-150089915D01*
X77472348Y-150089913D01*
X77473772Y-150084600D01*
X77493422Y-149860000D01*
X77473772Y-149635400D01*
X77472348Y-149630085D01*
X77416842Y-149422934D01*
X77416841Y-149422932D01*
X77415419Y-149417624D01*
X77413096Y-149412642D01*
X77322459Y-149218270D01*
X77322457Y-149218267D01*
X77320136Y-149213289D01*
X77190819Y-149028604D01*
X77031396Y-148869181D01*
X76846711Y-148739864D01*
X76841733Y-148737543D01*
X76841730Y-148737541D01*
X76770219Y-148704195D01*
X76716934Y-148657277D01*
X76697473Y-148589000D01*
X76718015Y-148521040D01*
X76770219Y-148475805D01*
X76841730Y-148442459D01*
X76841733Y-148442457D01*
X76846711Y-148440136D01*
X77031396Y-148310819D01*
X77190819Y-148151396D01*
X77320136Y-147966711D01*
X77328604Y-147948553D01*
X77413096Y-147767358D01*
X77413097Y-147767357D01*
X77415419Y-147762376D01*
X77469958Y-147558836D01*
X77472348Y-147549915D01*
X77472348Y-147549913D01*
X77473772Y-147544600D01*
X77493422Y-147320000D01*
X77473772Y-147095400D01*
X77472348Y-147090085D01*
X77416842Y-146882934D01*
X77416841Y-146882932D01*
X77415419Y-146877624D01*
X77413096Y-146872642D01*
X77322459Y-146678270D01*
X77322457Y-146678267D01*
X77320136Y-146673289D01*
X77190819Y-146488604D01*
X77031396Y-146329181D01*
X76846711Y-146199864D01*
X76841733Y-146197543D01*
X76841730Y-146197541D01*
X76770219Y-146164195D01*
X76716934Y-146117277D01*
X76697473Y-146049000D01*
X76718015Y-145981040D01*
X76770219Y-145935805D01*
X76841730Y-145902459D01*
X76841733Y-145902457D01*
X76846711Y-145900136D01*
X77031396Y-145770819D01*
X77190819Y-145611396D01*
X77320136Y-145426711D01*
X77328604Y-145408553D01*
X77413096Y-145227358D01*
X77413097Y-145227357D01*
X77415419Y-145222376D01*
X77469958Y-145018836D01*
X77472348Y-145009915D01*
X77472348Y-145009913D01*
X77473772Y-145004600D01*
X77493422Y-144780000D01*
X77473772Y-144555400D01*
X77472348Y-144550085D01*
X77416842Y-144342934D01*
X77416841Y-144342932D01*
X77415419Y-144337624D01*
X77413096Y-144332642D01*
X77322459Y-144138270D01*
X77322457Y-144138267D01*
X77320136Y-144133289D01*
X77190819Y-143948604D01*
X77031396Y-143789181D01*
X76846711Y-143659864D01*
X76841733Y-143657543D01*
X76841730Y-143657541D01*
X76770219Y-143624195D01*
X76716934Y-143577277D01*
X76697473Y-143509000D01*
X76718015Y-143441040D01*
X76770219Y-143395805D01*
X76841730Y-143362459D01*
X76841733Y-143362457D01*
X76846711Y-143360136D01*
X77031396Y-143230819D01*
X77190819Y-143071396D01*
X77320136Y-142886711D01*
X77328604Y-142868553D01*
X77413096Y-142687358D01*
X77413097Y-142687357D01*
X77415419Y-142682376D01*
X77469958Y-142478836D01*
X77472348Y-142469915D01*
X77472348Y-142469913D01*
X77473772Y-142464600D01*
X77493422Y-142240000D01*
X77473772Y-142015400D01*
X77472348Y-142010085D01*
X77416842Y-141802934D01*
X77416841Y-141802932D01*
X77415419Y-141797624D01*
X77413096Y-141792642D01*
X77322459Y-141598270D01*
X77322457Y-141598267D01*
X77320136Y-141593289D01*
X77190819Y-141408604D01*
X77031396Y-141249181D01*
X76846711Y-141119864D01*
X76841733Y-141117543D01*
X76841730Y-141117541D01*
X76770219Y-141084195D01*
X76716934Y-141037277D01*
X76697473Y-140969000D01*
X76718015Y-140901040D01*
X76770219Y-140855805D01*
X76841730Y-140822459D01*
X76841733Y-140822457D01*
X76846711Y-140820136D01*
X77031396Y-140690819D01*
X77190819Y-140531396D01*
X77320136Y-140346711D01*
X77328604Y-140328553D01*
X77413096Y-140147358D01*
X77413097Y-140147357D01*
X77415419Y-140142376D01*
X77469958Y-139938836D01*
X77472348Y-139929915D01*
X77472348Y-139929913D01*
X77473772Y-139924600D01*
X77493422Y-139700000D01*
X77473772Y-139475400D01*
X77472348Y-139470085D01*
X77416842Y-139262934D01*
X77416841Y-139262932D01*
X77415419Y-139257624D01*
X77413096Y-139252642D01*
X77322459Y-139058270D01*
X77322457Y-139058267D01*
X77320136Y-139053289D01*
X77190819Y-138868604D01*
X77031396Y-138709181D01*
X76846711Y-138579864D01*
X76841733Y-138577543D01*
X76841730Y-138577541D01*
X76770219Y-138544195D01*
X76716934Y-138497277D01*
X76697473Y-138429000D01*
X76718015Y-138361040D01*
X76770219Y-138315805D01*
X76841730Y-138282459D01*
X76841733Y-138282457D01*
X76846711Y-138280136D01*
X77031396Y-138150819D01*
X77190819Y-137991396D01*
X77320136Y-137806711D01*
X77328604Y-137788553D01*
X77413096Y-137607358D01*
X77413097Y-137607357D01*
X77415419Y-137602376D01*
X77469958Y-137398836D01*
X77472348Y-137389915D01*
X77472348Y-137389913D01*
X77473772Y-137384600D01*
X77493422Y-137160000D01*
X77473772Y-136935400D01*
X77472348Y-136930085D01*
X77416842Y-136722934D01*
X77416841Y-136722932D01*
X77415419Y-136717624D01*
X77413096Y-136712642D01*
X77322459Y-136518270D01*
X77322457Y-136518267D01*
X77320136Y-136513289D01*
X77190819Y-136328604D01*
X77031396Y-136169181D01*
X76846711Y-136039864D01*
X76841733Y-136037543D01*
X76841730Y-136037541D01*
X76770219Y-136004195D01*
X76716934Y-135957277D01*
X76697473Y-135889000D01*
X76718015Y-135821040D01*
X76770219Y-135775805D01*
X76841730Y-135742459D01*
X76841733Y-135742457D01*
X76846711Y-135740136D01*
X77031396Y-135610819D01*
X77190819Y-135451396D01*
X77320136Y-135266711D01*
X77328604Y-135248553D01*
X77413096Y-135067358D01*
X77413097Y-135067357D01*
X77415419Y-135062376D01*
X77469958Y-134858836D01*
X77472348Y-134849915D01*
X77472348Y-134849913D01*
X77473772Y-134844600D01*
X77493422Y-134620000D01*
X77473772Y-134395400D01*
X77428579Y-134226738D01*
X77416842Y-134182934D01*
X77416841Y-134182932D01*
X77415419Y-134177624D01*
X77366351Y-134072397D01*
X77322459Y-133978270D01*
X77322457Y-133978267D01*
X77320136Y-133973289D01*
X77190819Y-133788604D01*
X77031396Y-133629181D01*
X76846711Y-133499864D01*
X76841733Y-133497543D01*
X76841730Y-133497541D01*
X76770219Y-133464195D01*
X76716934Y-133417277D01*
X76697473Y-133349000D01*
X76718015Y-133281040D01*
X76770219Y-133235805D01*
X76841730Y-133202459D01*
X76841733Y-133202457D01*
X76846711Y-133200136D01*
X77031396Y-133070819D01*
X77190819Y-132911396D01*
X77320136Y-132726711D01*
X77333001Y-132699123D01*
X77413096Y-132527358D01*
X77413097Y-132527357D01*
X77415419Y-132522376D01*
X77426598Y-132480658D01*
X77472348Y-132309915D01*
X77472348Y-132309913D01*
X77473772Y-132304600D01*
X77493422Y-132080000D01*
X77473772Y-131855400D01*
X77472348Y-131850085D01*
X77416842Y-131642934D01*
X77416841Y-131642932D01*
X77415419Y-131637624D01*
X77413096Y-131632642D01*
X77322459Y-131438270D01*
X77322457Y-131438267D01*
X77320136Y-131433289D01*
X77190819Y-131248604D01*
X77031396Y-131089181D01*
X76846711Y-130959864D01*
X76841733Y-130957543D01*
X76841730Y-130957541D01*
X76770219Y-130924195D01*
X76716934Y-130877277D01*
X76697473Y-130809000D01*
X76718015Y-130741040D01*
X76770219Y-130695805D01*
X76841730Y-130662459D01*
X76841733Y-130662457D01*
X76846711Y-130660136D01*
X77031396Y-130530819D01*
X77190819Y-130371396D01*
X77320136Y-130186711D01*
X77322549Y-130181538D01*
X77413096Y-129987358D01*
X77413097Y-129987357D01*
X77415419Y-129982376D01*
X77469958Y-129778836D01*
X77472348Y-129769915D01*
X77472348Y-129769913D01*
X77473772Y-129764600D01*
X77493422Y-129540000D01*
X77473772Y-129315400D01*
X77415419Y-129097624D01*
X77320136Y-128893289D01*
X77190819Y-128708604D01*
X77031396Y-128549181D01*
X76846711Y-128419864D01*
X76841733Y-128417543D01*
X76841730Y-128417541D01*
X76770219Y-128384195D01*
X76716934Y-128337277D01*
X76697473Y-128269000D01*
X76718015Y-128201040D01*
X76770219Y-128155805D01*
X76841730Y-128122459D01*
X76841733Y-128122457D01*
X76846711Y-128120136D01*
X77031396Y-127990819D01*
X77190819Y-127831396D01*
X77320136Y-127646711D01*
X77326268Y-127633562D01*
X77413096Y-127447358D01*
X77413097Y-127447357D01*
X77415419Y-127442376D01*
X77418362Y-127431395D01*
X77472348Y-127229915D01*
X77472348Y-127229913D01*
X77473772Y-127224600D01*
X77493422Y-127000000D01*
X77473772Y-126775400D01*
X77464878Y-126742208D01*
X77416842Y-126562934D01*
X77416841Y-126562932D01*
X77415419Y-126557624D01*
X77360582Y-126440026D01*
X77322459Y-126358270D01*
X77322457Y-126358267D01*
X77320136Y-126353289D01*
X77190819Y-126168604D01*
X77031396Y-126009181D01*
X76846711Y-125879864D01*
X76841733Y-125877543D01*
X76841730Y-125877541D01*
X76770219Y-125844195D01*
X76716934Y-125797277D01*
X76697473Y-125729000D01*
X76718015Y-125661040D01*
X76770219Y-125615805D01*
X76841730Y-125582459D01*
X76841733Y-125582457D01*
X76846711Y-125580136D01*
X77031396Y-125450819D01*
X77190819Y-125291396D01*
X77320136Y-125106711D01*
X77365522Y-125009382D01*
X77413096Y-124907358D01*
X77413097Y-124907357D01*
X77415419Y-124902376D01*
X77461041Y-124732115D01*
X77462305Y-124727399D01*
X82344712Y-124727399D01*
X82366194Y-124816537D01*
X82370083Y-124827832D01*
X82452629Y-125009382D01*
X82458576Y-125019724D01*
X82573968Y-125182397D01*
X82581761Y-125191425D01*
X82725831Y-125329342D01*
X82735196Y-125336738D01*
X82902741Y-125444921D01*
X82913345Y-125450417D01*
X83098312Y-125524961D01*
X83109770Y-125528355D01*
X83306928Y-125566857D01*
X83315791Y-125567934D01*
X83318500Y-125568000D01*
X83547885Y-125568000D01*
X83563124Y-125563525D01*
X83564329Y-125562135D01*
X83566000Y-125554452D01*
X83566000Y-125549885D01*
X84074000Y-125549885D01*
X84078475Y-125565124D01*
X84079865Y-125566329D01*
X84087548Y-125568000D01*
X84269832Y-125568000D01*
X84275808Y-125567715D01*
X84424494Y-125553529D01*
X84436228Y-125551270D01*
X84627599Y-125495128D01*
X84638675Y-125490698D01*
X84815978Y-125399381D01*
X84826024Y-125392931D01*
X84982857Y-125269738D01*
X84991506Y-125261501D01*
X85122212Y-125110877D01*
X85129147Y-125101153D01*
X85229010Y-124928533D01*
X85233984Y-124917669D01*
X85299407Y-124729273D01*
X85299648Y-124728284D01*
X85298180Y-124717992D01*
X85284615Y-124714000D01*
X84092115Y-124714000D01*
X84076876Y-124718475D01*
X84075671Y-124719865D01*
X84074000Y-124727548D01*
X84074000Y-125549885D01*
X83566000Y-125549885D01*
X83566000Y-124732115D01*
X83561525Y-124716876D01*
X83560135Y-124715671D01*
X83552452Y-124714000D01*
X82359598Y-124714000D01*
X82346067Y-124717973D01*
X82344712Y-124727399D01*
X77462305Y-124727399D01*
X77472348Y-124689915D01*
X77472348Y-124689913D01*
X77473772Y-124684600D01*
X77493422Y-124460000D01*
X77473772Y-124235400D01*
X77462067Y-124191716D01*
X82340352Y-124191716D01*
X82341820Y-124202008D01*
X82355385Y-124206000D01*
X83547885Y-124206000D01*
X83563124Y-124201525D01*
X83564329Y-124200135D01*
X83566000Y-124192452D01*
X83566000Y-124187885D01*
X84074000Y-124187885D01*
X84078475Y-124203124D01*
X84079865Y-124204329D01*
X84087548Y-124206000D01*
X85280402Y-124206000D01*
X85293933Y-124202027D01*
X85295288Y-124192601D01*
X85273806Y-124103463D01*
X85269917Y-124092168D01*
X85187371Y-123910618D01*
X85181424Y-123900276D01*
X85066032Y-123737603D01*
X85058239Y-123728575D01*
X84914169Y-123590658D01*
X84904804Y-123583262D01*
X84737259Y-123475079D01*
X84726655Y-123469583D01*
X84541688Y-123395039D01*
X84530230Y-123391645D01*
X84333072Y-123353143D01*
X84324209Y-123352066D01*
X84321500Y-123352000D01*
X84092115Y-123352000D01*
X84076876Y-123356475D01*
X84075671Y-123357865D01*
X84074000Y-123365548D01*
X84074000Y-124187885D01*
X83566000Y-124187885D01*
X83566000Y-123370115D01*
X83561525Y-123354876D01*
X83560135Y-123353671D01*
X83552452Y-123352000D01*
X83370168Y-123352000D01*
X83364192Y-123352285D01*
X83215506Y-123366471D01*
X83203772Y-123368730D01*
X83012401Y-123424872D01*
X83001325Y-123429302D01*
X82824022Y-123520619D01*
X82813976Y-123527069D01*
X82657143Y-123650262D01*
X82648494Y-123658499D01*
X82517788Y-123809123D01*
X82510853Y-123818847D01*
X82410990Y-123991467D01*
X82406016Y-124002331D01*
X82340593Y-124190727D01*
X82340352Y-124191716D01*
X77462067Y-124191716D01*
X77461802Y-124190727D01*
X77416842Y-124022934D01*
X77416841Y-124022932D01*
X77415419Y-124017624D01*
X77403222Y-123991467D01*
X77322459Y-123818270D01*
X77322457Y-123818267D01*
X77320136Y-123813289D01*
X77190819Y-123628604D01*
X77031396Y-123469181D01*
X76846711Y-123339864D01*
X76841733Y-123337543D01*
X76841730Y-123337541D01*
X76770219Y-123304195D01*
X76716934Y-123257277D01*
X76697473Y-123189000D01*
X76718015Y-123121040D01*
X76770219Y-123075805D01*
X76841730Y-123042459D01*
X76841733Y-123042457D01*
X76846711Y-123040136D01*
X77031396Y-122910819D01*
X77190819Y-122751396D01*
X77320136Y-122566711D01*
X77415419Y-122362376D01*
X77463288Y-122183729D01*
X77472348Y-122149915D01*
X77472348Y-122149913D01*
X77473772Y-122144600D01*
X77493422Y-121920000D01*
X77488663Y-121865604D01*
X82307787Y-121865604D01*
X82317567Y-122076899D01*
X82367125Y-122282534D01*
X82369607Y-122287992D01*
X82369608Y-122287996D01*
X82413053Y-122383546D01*
X82454674Y-122475087D01*
X82577054Y-122647611D01*
X82729850Y-122793881D01*
X82907548Y-122908620D01*
X82913114Y-122910863D01*
X83098168Y-122985442D01*
X83098171Y-122985443D01*
X83103737Y-122987686D01*
X83311337Y-123028228D01*
X83316899Y-123028500D01*
X84272846Y-123028500D01*
X84430566Y-123013452D01*
X84633534Y-122953908D01*
X84717197Y-122910819D01*
X84816249Y-122859804D01*
X84816252Y-122859802D01*
X84821580Y-122857058D01*
X84987920Y-122726396D01*
X84991852Y-122721865D01*
X84991855Y-122721862D01*
X85110446Y-122585198D01*
X85126552Y-122566637D01*
X85129552Y-122561451D01*
X85129555Y-122561447D01*
X85229467Y-122388742D01*
X85232473Y-122383546D01*
X85301861Y-122183729D01*
X85306764Y-122149915D01*
X85331352Y-121980336D01*
X85331352Y-121980333D01*
X85332213Y-121974396D01*
X85322433Y-121763101D01*
X85272875Y-121557466D01*
X85229525Y-121462122D01*
X85187806Y-121370368D01*
X85185326Y-121364913D01*
X85062946Y-121192389D01*
X84910150Y-121046119D01*
X84732452Y-120931380D01*
X84672354Y-120907160D01*
X84541832Y-120854558D01*
X84541829Y-120854557D01*
X84536263Y-120852314D01*
X84328663Y-120811772D01*
X84323101Y-120811500D01*
X83367154Y-120811500D01*
X83209434Y-120826548D01*
X83006466Y-120886092D01*
X83001139Y-120888836D01*
X83001138Y-120888836D01*
X82823751Y-120980196D01*
X82823748Y-120980198D01*
X82818420Y-120982942D01*
X82652080Y-121113604D01*
X82648148Y-121118135D01*
X82648145Y-121118138D01*
X82579474Y-121197275D01*
X82513448Y-121273363D01*
X82510448Y-121278549D01*
X82510445Y-121278553D01*
X82463312Y-121360026D01*
X82407527Y-121456454D01*
X82338139Y-121656271D01*
X82337278Y-121662206D01*
X82337278Y-121662208D01*
X82332466Y-121695400D01*
X82307787Y-121865604D01*
X77488663Y-121865604D01*
X77473772Y-121695400D01*
X77464878Y-121662208D01*
X77416842Y-121482934D01*
X77416841Y-121482932D01*
X77415419Y-121477624D01*
X77320136Y-121273289D01*
X77190819Y-121088604D01*
X77031396Y-120929181D01*
X76846711Y-120799864D01*
X76841733Y-120797543D01*
X76841730Y-120797541D01*
X76770219Y-120764195D01*
X76716934Y-120717277D01*
X76697473Y-120649000D01*
X76718015Y-120581040D01*
X76770219Y-120535805D01*
X76841730Y-120502459D01*
X76841733Y-120502457D01*
X76846711Y-120500136D01*
X77031396Y-120370819D01*
X77190819Y-120211396D01*
X77320136Y-120026711D01*
X77326268Y-120013562D01*
X77413096Y-119827358D01*
X77413097Y-119827357D01*
X77415419Y-119822376D01*
X77418362Y-119811395D01*
X77472348Y-119609915D01*
X77472348Y-119609913D01*
X77473772Y-119604600D01*
X77493422Y-119380000D01*
X77488663Y-119325604D01*
X82307787Y-119325604D01*
X82317567Y-119536899D01*
X82367125Y-119742534D01*
X82369607Y-119747992D01*
X82369608Y-119747996D01*
X82411152Y-119839366D01*
X82454674Y-119935087D01*
X82577054Y-120107611D01*
X82729850Y-120253881D01*
X82907548Y-120368620D01*
X82913114Y-120370863D01*
X83098168Y-120445442D01*
X83098171Y-120445443D01*
X83103737Y-120447686D01*
X83311337Y-120488228D01*
X83316899Y-120488500D01*
X84272846Y-120488500D01*
X84430566Y-120473452D01*
X84633534Y-120413908D01*
X84717197Y-120370819D01*
X84816249Y-120319804D01*
X84816252Y-120319802D01*
X84821580Y-120317058D01*
X84987920Y-120186396D01*
X84991852Y-120181865D01*
X84991855Y-120181862D01*
X85110446Y-120045198D01*
X85126552Y-120026637D01*
X85129552Y-120021451D01*
X85129555Y-120021447D01*
X85229467Y-119848742D01*
X85232473Y-119843546D01*
X85301861Y-119643729D01*
X85306764Y-119609915D01*
X85331352Y-119440336D01*
X85331352Y-119440333D01*
X85332213Y-119434396D01*
X85322433Y-119223101D01*
X85272875Y-119017466D01*
X85229525Y-118922122D01*
X85218084Y-118896959D01*
X85185326Y-118824913D01*
X85075243Y-118669724D01*
X85066412Y-118657275D01*
X85066411Y-118657274D01*
X85062946Y-118652389D01*
X84910150Y-118506119D01*
X84732452Y-118391380D01*
X84664513Y-118364000D01*
X84541832Y-118314558D01*
X84541829Y-118314557D01*
X84536263Y-118312314D01*
X84328663Y-118271772D01*
X84323101Y-118271500D01*
X83367154Y-118271500D01*
X83209434Y-118286548D01*
X83006466Y-118346092D01*
X83001139Y-118348836D01*
X83001138Y-118348836D01*
X82823751Y-118440196D01*
X82823748Y-118440198D01*
X82818420Y-118442942D01*
X82652080Y-118573604D01*
X82648148Y-118578135D01*
X82648145Y-118578138D01*
X82568671Y-118669724D01*
X82513448Y-118733363D01*
X82510448Y-118738549D01*
X82510445Y-118738553D01*
X82463312Y-118820026D01*
X82407527Y-118916454D01*
X82338139Y-119116271D01*
X82337278Y-119122206D01*
X82337278Y-119122208D01*
X82323555Y-119216857D01*
X82307787Y-119325604D01*
X77488663Y-119325604D01*
X77473772Y-119155400D01*
X77464878Y-119122208D01*
X77416842Y-118942934D01*
X77416841Y-118942932D01*
X77415419Y-118937624D01*
X77360582Y-118820026D01*
X77322459Y-118738270D01*
X77322457Y-118738267D01*
X77320136Y-118733289D01*
X77190819Y-118548604D01*
X77031396Y-118389181D01*
X76846711Y-118259864D01*
X76841733Y-118257543D01*
X76841730Y-118257541D01*
X76770219Y-118224195D01*
X76716934Y-118177277D01*
X76697473Y-118109000D01*
X76718015Y-118041040D01*
X76770219Y-117995805D01*
X76841730Y-117962459D01*
X76841733Y-117962457D01*
X76846711Y-117960136D01*
X77031396Y-117830819D01*
X77190819Y-117671396D01*
X77320136Y-117486711D01*
X77333001Y-117459123D01*
X77413096Y-117287358D01*
X77413097Y-117287357D01*
X77415419Y-117282376D01*
X77426598Y-117240658D01*
X77472348Y-117069915D01*
X77472348Y-117069913D01*
X77473772Y-117064600D01*
X77493422Y-116840000D01*
X77473772Y-116615400D01*
X77472348Y-116610085D01*
X77416842Y-116402934D01*
X77416841Y-116402932D01*
X77415419Y-116397624D01*
X77413096Y-116392642D01*
X77322459Y-116198270D01*
X77322457Y-116198267D01*
X77320136Y-116193289D01*
X77190819Y-116008604D01*
X77031396Y-115849181D01*
X76846711Y-115719864D01*
X76841733Y-115717543D01*
X76841730Y-115717541D01*
X76770219Y-115684195D01*
X76716934Y-115637277D01*
X76697473Y-115569000D01*
X76718015Y-115501040D01*
X76770219Y-115455805D01*
X76841730Y-115422459D01*
X76841733Y-115422457D01*
X76846711Y-115420136D01*
X77031396Y-115290819D01*
X77190819Y-115131396D01*
X77320136Y-114946711D01*
X77328604Y-114928553D01*
X77413096Y-114747358D01*
X77413097Y-114747357D01*
X77415419Y-114742376D01*
X77469958Y-114538836D01*
X77472348Y-114529915D01*
X77472348Y-114529913D01*
X77473772Y-114524600D01*
X77493422Y-114300000D01*
X77473772Y-114075400D01*
X77415419Y-113857624D01*
X77320136Y-113653289D01*
X77190819Y-113468604D01*
X77031396Y-113309181D01*
X76846711Y-113179864D01*
X76841733Y-113177543D01*
X76841730Y-113177541D01*
X76770219Y-113144195D01*
X76716934Y-113097277D01*
X76697473Y-113029000D01*
X76718015Y-112961040D01*
X76770219Y-112915805D01*
X76841730Y-112882459D01*
X76841733Y-112882457D01*
X76846711Y-112880136D01*
X77031396Y-112750819D01*
X77190819Y-112591396D01*
X77320136Y-112406711D01*
X77415419Y-112202376D01*
X77473772Y-111984600D01*
X77493422Y-111760000D01*
X77473772Y-111535400D01*
X77415419Y-111317624D01*
X77320136Y-111113289D01*
X77190819Y-110928604D01*
X77031396Y-110769181D01*
X76846711Y-110639864D01*
X76841733Y-110637543D01*
X76841730Y-110637541D01*
X76770219Y-110604195D01*
X76716934Y-110557277D01*
X76697473Y-110489000D01*
X76718015Y-110421040D01*
X76770219Y-110375805D01*
X76841730Y-110342459D01*
X76841733Y-110342457D01*
X76846711Y-110340136D01*
X77031396Y-110210819D01*
X77190819Y-110051396D01*
X77320136Y-109866711D01*
X77415419Y-109662376D01*
X77473772Y-109444600D01*
X77493422Y-109220000D01*
X77473772Y-108995400D01*
X77415419Y-108777624D01*
X77320136Y-108573289D01*
X77190819Y-108388604D01*
X77031396Y-108229181D01*
X76846711Y-108099864D01*
X76841733Y-108097543D01*
X76841730Y-108097541D01*
X76770219Y-108064195D01*
X76716934Y-108017277D01*
X76697473Y-107949000D01*
X76718015Y-107881040D01*
X76770219Y-107835805D01*
X76841730Y-107802459D01*
X76841733Y-107802457D01*
X76846711Y-107800136D01*
X77031396Y-107670819D01*
X77190819Y-107511396D01*
X77320136Y-107326711D01*
X77415419Y-107122376D01*
X77473772Y-106904600D01*
X77493422Y-106680000D01*
X77473772Y-106455400D01*
X77415419Y-106237624D01*
X77320136Y-106033289D01*
X77190819Y-105848604D01*
X77031396Y-105689181D01*
X76846711Y-105559864D01*
X76841733Y-105557543D01*
X76841730Y-105557541D01*
X76769627Y-105523919D01*
X76716342Y-105477002D01*
X76696881Y-105408724D01*
X76717423Y-105340764D01*
X76769628Y-105295529D01*
X76841469Y-105262030D01*
X76850968Y-105256545D01*
X76898689Y-105223130D01*
X76907064Y-105212653D01*
X76899996Y-105199206D01*
X76212812Y-104512022D01*
X76198868Y-104504408D01*
X76197035Y-104504539D01*
X76190420Y-104508790D01*
X75499283Y-105199927D01*
X75492853Y-105211702D01*
X75502149Y-105223717D01*
X75549032Y-105256545D01*
X75558531Y-105262030D01*
X75630372Y-105295529D01*
X75683657Y-105342445D01*
X75703119Y-105410722D01*
X75682578Y-105478683D01*
X75630373Y-105523919D01*
X75558270Y-105557541D01*
X75558267Y-105557543D01*
X75553289Y-105559864D01*
X75368604Y-105689181D01*
X75209181Y-105848604D01*
X75079864Y-106033289D01*
X74984581Y-106237624D01*
X74926228Y-106455400D01*
X74906578Y-106680000D01*
X74926228Y-106904600D01*
X74984581Y-107122376D01*
X75079864Y-107326711D01*
X75209181Y-107511396D01*
X75368604Y-107670819D01*
X75553289Y-107800136D01*
X75558267Y-107802457D01*
X75558270Y-107802459D01*
X75629781Y-107835805D01*
X75683066Y-107882723D01*
X75702527Y-107951000D01*
X75681985Y-108018960D01*
X75629781Y-108064195D01*
X75558270Y-108097541D01*
X75558267Y-108097543D01*
X75553289Y-108099864D01*
X75368604Y-108229181D01*
X75209181Y-108388604D01*
X75079864Y-108573289D01*
X74984581Y-108777624D01*
X74926228Y-108995400D01*
X74906578Y-109220000D01*
X74926228Y-109444600D01*
X74984581Y-109662376D01*
X75079864Y-109866711D01*
X75209181Y-110051396D01*
X75368604Y-110210819D01*
X75553289Y-110340136D01*
X75558267Y-110342457D01*
X75558270Y-110342459D01*
X75629781Y-110375805D01*
X75683066Y-110422723D01*
X75702527Y-110491000D01*
X75681985Y-110558960D01*
X75629781Y-110604195D01*
X75558270Y-110637541D01*
X75558267Y-110637543D01*
X75553289Y-110639864D01*
X75368604Y-110769181D01*
X75209181Y-110928604D01*
X75079864Y-111113289D01*
X74984581Y-111317624D01*
X74926228Y-111535400D01*
X74906578Y-111760000D01*
X74926228Y-111984600D01*
X74984581Y-112202376D01*
X75079864Y-112406711D01*
X75209181Y-112591396D01*
X75368604Y-112750819D01*
X75553289Y-112880136D01*
X75558267Y-112882457D01*
X75558270Y-112882459D01*
X75629781Y-112915805D01*
X75683066Y-112962723D01*
X75702527Y-113031000D01*
X75681985Y-113098960D01*
X75629781Y-113144195D01*
X75558270Y-113177541D01*
X75558267Y-113177543D01*
X75553289Y-113179864D01*
X75368604Y-113309181D01*
X75209181Y-113468604D01*
X75079864Y-113653289D01*
X74984581Y-113857624D01*
X74926228Y-114075400D01*
X74906578Y-114300000D01*
X74926228Y-114524600D01*
X74927652Y-114529913D01*
X74927652Y-114529915D01*
X74930043Y-114538836D01*
X74984581Y-114742376D01*
X74986903Y-114747357D01*
X74986904Y-114747358D01*
X75071397Y-114928553D01*
X75079864Y-114946711D01*
X75209181Y-115131396D01*
X75368604Y-115290819D01*
X75553289Y-115420136D01*
X75558267Y-115422457D01*
X75558270Y-115422459D01*
X75629781Y-115455805D01*
X75683066Y-115502723D01*
X75702527Y-115571000D01*
X75681985Y-115638960D01*
X75629781Y-115684195D01*
X75558270Y-115717541D01*
X75558267Y-115717543D01*
X75553289Y-115719864D01*
X75368604Y-115849181D01*
X75209181Y-116008604D01*
X75079864Y-116193289D01*
X75077543Y-116198267D01*
X75077541Y-116198270D01*
X74986904Y-116392642D01*
X74984581Y-116397624D01*
X74983159Y-116402932D01*
X74983158Y-116402934D01*
X74927652Y-116610085D01*
X74926228Y-116615400D01*
X74906578Y-116840000D01*
X74926228Y-117064600D01*
X74927652Y-117069913D01*
X74927652Y-117069915D01*
X74973403Y-117240658D01*
X74984581Y-117282376D01*
X74986903Y-117287357D01*
X74986904Y-117287358D01*
X75067000Y-117459123D01*
X75079864Y-117486711D01*
X75209181Y-117671396D01*
X75368604Y-117830819D01*
X75553289Y-117960136D01*
X75558267Y-117962457D01*
X75558270Y-117962459D01*
X75629781Y-117995805D01*
X75683066Y-118042723D01*
X75702527Y-118111000D01*
X75681985Y-118178960D01*
X75629781Y-118224195D01*
X75558270Y-118257541D01*
X75558267Y-118257543D01*
X75553289Y-118259864D01*
X75368604Y-118389181D01*
X75209181Y-118548604D01*
X75079864Y-118733289D01*
X75077543Y-118738267D01*
X75077541Y-118738270D01*
X75039418Y-118820026D01*
X74984581Y-118937624D01*
X74983159Y-118942932D01*
X74983158Y-118942934D01*
X74935122Y-119122208D01*
X74926228Y-119155400D01*
X74906578Y-119380000D01*
X74926228Y-119604600D01*
X74927652Y-119609913D01*
X74927652Y-119609915D01*
X74981639Y-119811395D01*
X74984581Y-119822376D01*
X74986903Y-119827357D01*
X74986904Y-119827358D01*
X75073733Y-120013562D01*
X75079864Y-120026711D01*
X75209181Y-120211396D01*
X75368604Y-120370819D01*
X75553289Y-120500136D01*
X75558267Y-120502457D01*
X75558270Y-120502459D01*
X75629781Y-120535805D01*
X75683066Y-120582723D01*
X75702527Y-120651000D01*
X75681985Y-120718960D01*
X75629781Y-120764195D01*
X75558270Y-120797541D01*
X75558267Y-120797543D01*
X75553289Y-120799864D01*
X75368604Y-120929181D01*
X75209181Y-121088604D01*
X75079864Y-121273289D01*
X74984581Y-121477624D01*
X74983159Y-121482932D01*
X74983158Y-121482934D01*
X74935122Y-121662208D01*
X74926228Y-121695400D01*
X74906578Y-121920000D01*
X74926228Y-122144600D01*
X74927652Y-122149913D01*
X74927652Y-122149915D01*
X74936713Y-122183729D01*
X74984581Y-122362376D01*
X75079864Y-122566711D01*
X75209181Y-122751396D01*
X75368604Y-122910819D01*
X75553289Y-123040136D01*
X75558267Y-123042457D01*
X75558270Y-123042459D01*
X75629781Y-123075805D01*
X75683066Y-123122723D01*
X75702527Y-123191000D01*
X75681985Y-123258960D01*
X75629781Y-123304195D01*
X75558270Y-123337541D01*
X75558267Y-123337543D01*
X75553289Y-123339864D01*
X75368604Y-123469181D01*
X75209181Y-123628604D01*
X75079864Y-123813289D01*
X75077543Y-123818267D01*
X75077541Y-123818270D01*
X74996778Y-123991467D01*
X74984581Y-124017624D01*
X74983159Y-124022932D01*
X74983158Y-124022934D01*
X74938198Y-124190727D01*
X74926228Y-124235400D01*
X74906578Y-124460000D01*
X74926228Y-124684600D01*
X74927652Y-124689913D01*
X74927652Y-124689915D01*
X74938960Y-124732115D01*
X74984581Y-124902376D01*
X74986903Y-124907357D01*
X74986904Y-124907358D01*
X75034479Y-125009382D01*
X75079864Y-125106711D01*
X75209181Y-125291396D01*
X75368604Y-125450819D01*
X75553289Y-125580136D01*
X75558267Y-125582457D01*
X75558270Y-125582459D01*
X75629781Y-125615805D01*
X75683066Y-125662723D01*
X75702527Y-125731000D01*
X75681985Y-125798960D01*
X75629781Y-125844195D01*
X75558270Y-125877541D01*
X75558267Y-125877543D01*
X75553289Y-125879864D01*
X75368604Y-126009181D01*
X75209181Y-126168604D01*
X75079864Y-126353289D01*
X75077543Y-126358267D01*
X75077541Y-126358270D01*
X75039418Y-126440026D01*
X74984581Y-126557624D01*
X74983159Y-126562932D01*
X74983158Y-126562934D01*
X74935122Y-126742208D01*
X74926228Y-126775400D01*
X74906578Y-127000000D01*
X74926228Y-127224600D01*
X74927652Y-127229913D01*
X74927652Y-127229915D01*
X74981639Y-127431395D01*
X74984581Y-127442376D01*
X74986903Y-127447357D01*
X74986904Y-127447358D01*
X75073733Y-127633562D01*
X75079864Y-127646711D01*
X75209181Y-127831396D01*
X75368604Y-127990819D01*
X75553289Y-128120136D01*
X75558267Y-128122457D01*
X75558270Y-128122459D01*
X75629781Y-128155805D01*
X75683066Y-128202723D01*
X75702527Y-128271000D01*
X75681985Y-128338960D01*
X75629781Y-128384195D01*
X75558270Y-128417541D01*
X75558267Y-128417543D01*
X75553289Y-128419864D01*
X75368604Y-128549181D01*
X75209181Y-128708604D01*
X75079864Y-128893289D01*
X74984581Y-129097624D01*
X74926228Y-129315400D01*
X74906578Y-129540000D01*
X74926228Y-129764600D01*
X74927652Y-129769913D01*
X74927652Y-129769915D01*
X74930043Y-129778836D01*
X74984581Y-129982376D01*
X74986903Y-129987357D01*
X74986904Y-129987358D01*
X75077452Y-130181538D01*
X75079864Y-130186711D01*
X75209181Y-130371396D01*
X75368604Y-130530819D01*
X75553289Y-130660136D01*
X75558267Y-130662457D01*
X75558270Y-130662459D01*
X75629781Y-130695805D01*
X75683066Y-130742723D01*
X75702527Y-130811000D01*
X75681985Y-130878960D01*
X75629781Y-130924195D01*
X75558270Y-130957541D01*
X75558267Y-130957543D01*
X75553289Y-130959864D01*
X75368604Y-131089181D01*
X75209181Y-131248604D01*
X75079864Y-131433289D01*
X75077543Y-131438267D01*
X75077541Y-131438270D01*
X74986904Y-131632642D01*
X74984581Y-131637624D01*
X74983159Y-131642932D01*
X74983158Y-131642934D01*
X74927652Y-131850085D01*
X74926228Y-131855400D01*
X74906578Y-132080000D01*
X74926228Y-132304600D01*
X74927652Y-132309913D01*
X74927652Y-132309915D01*
X74973403Y-132480658D01*
X74984581Y-132522376D01*
X74986903Y-132527357D01*
X74986904Y-132527358D01*
X75067000Y-132699123D01*
X75079864Y-132726711D01*
X75209181Y-132911396D01*
X75368604Y-133070819D01*
X75553289Y-133200136D01*
X75558267Y-133202457D01*
X75558270Y-133202459D01*
X75629781Y-133235805D01*
X75683066Y-133282723D01*
X75702527Y-133351000D01*
X75681985Y-133418960D01*
X75629781Y-133464195D01*
X75558270Y-133497541D01*
X75558267Y-133497543D01*
X75553289Y-133499864D01*
X75368604Y-133629181D01*
X75209181Y-133788604D01*
X75079864Y-133973289D01*
X75077543Y-133978267D01*
X75077541Y-133978270D01*
X75033649Y-134072397D01*
X74984581Y-134177624D01*
X74983159Y-134182932D01*
X74983158Y-134182934D01*
X74971421Y-134226738D01*
X74926228Y-134395400D01*
X74906578Y-134620000D01*
X74926228Y-134844600D01*
X74927652Y-134849913D01*
X74927652Y-134849915D01*
X74930043Y-134858836D01*
X74984581Y-135062376D01*
X74986903Y-135067357D01*
X74986904Y-135067358D01*
X75071397Y-135248553D01*
X75079864Y-135266711D01*
X75209181Y-135451396D01*
X75368604Y-135610819D01*
X75553289Y-135740136D01*
X75558267Y-135742457D01*
X75558270Y-135742459D01*
X75629781Y-135775805D01*
X75683066Y-135822723D01*
X75702527Y-135891000D01*
X75681985Y-135958960D01*
X75629781Y-136004195D01*
X75558270Y-136037541D01*
X75558267Y-136037543D01*
X75553289Y-136039864D01*
X75368604Y-136169181D01*
X75209181Y-136328604D01*
X75079864Y-136513289D01*
X75077543Y-136518267D01*
X75077541Y-136518270D01*
X74986904Y-136712642D01*
X74984581Y-136717624D01*
X74983159Y-136722932D01*
X74983158Y-136722934D01*
X74927652Y-136930085D01*
X74926228Y-136935400D01*
X74906578Y-137160000D01*
X74926228Y-137384600D01*
X74927652Y-137389913D01*
X74927652Y-137389915D01*
X74930043Y-137398836D01*
X74984581Y-137602376D01*
X74986903Y-137607357D01*
X74986904Y-137607358D01*
X75071397Y-137788553D01*
X75079864Y-137806711D01*
X75209181Y-137991396D01*
X75368604Y-138150819D01*
X75553289Y-138280136D01*
X75558267Y-138282457D01*
X75558270Y-138282459D01*
X75629781Y-138315805D01*
X75683066Y-138362723D01*
X75702527Y-138431000D01*
X75681985Y-138498960D01*
X75629781Y-138544195D01*
X75558270Y-138577541D01*
X75558267Y-138577543D01*
X75553289Y-138579864D01*
X75368604Y-138709181D01*
X75209181Y-138868604D01*
X75079864Y-139053289D01*
X75077543Y-139058267D01*
X75077541Y-139058270D01*
X74986904Y-139252642D01*
X74984581Y-139257624D01*
X74983159Y-139262932D01*
X74983158Y-139262934D01*
X74927652Y-139470085D01*
X74926228Y-139475400D01*
X74906578Y-139700000D01*
X74926228Y-139924600D01*
X74927652Y-139929913D01*
X74927652Y-139929915D01*
X74930043Y-139938836D01*
X74984581Y-140142376D01*
X74986903Y-140147357D01*
X74986904Y-140147358D01*
X75071397Y-140328553D01*
X75079864Y-140346711D01*
X75209181Y-140531396D01*
X75368604Y-140690819D01*
X75553289Y-140820136D01*
X75558267Y-140822457D01*
X75558270Y-140822459D01*
X75629781Y-140855805D01*
X75683066Y-140902723D01*
X75702527Y-140971000D01*
X75681985Y-141038960D01*
X75629781Y-141084195D01*
X75558270Y-141117541D01*
X75558267Y-141117543D01*
X75553289Y-141119864D01*
X75368604Y-141249181D01*
X75209181Y-141408604D01*
X75079864Y-141593289D01*
X75077543Y-141598267D01*
X75077541Y-141598270D01*
X74986904Y-141792642D01*
X74984581Y-141797624D01*
X74983159Y-141802932D01*
X74983158Y-141802934D01*
X74927652Y-142010085D01*
X74926228Y-142015400D01*
X74906578Y-142240000D01*
X74926228Y-142464600D01*
X74927652Y-142469913D01*
X74927652Y-142469915D01*
X74930043Y-142478836D01*
X74984581Y-142682376D01*
X74986903Y-142687357D01*
X74986904Y-142687358D01*
X75071397Y-142868553D01*
X75079864Y-142886711D01*
X75209181Y-143071396D01*
X75368604Y-143230819D01*
X75553289Y-143360136D01*
X75558267Y-143362457D01*
X75558270Y-143362459D01*
X75629781Y-143395805D01*
X75683066Y-143442723D01*
X75702527Y-143511000D01*
X75681985Y-143578960D01*
X75629781Y-143624195D01*
X75558270Y-143657541D01*
X75558267Y-143657543D01*
X75553289Y-143659864D01*
X75368604Y-143789181D01*
X75209181Y-143948604D01*
X75079864Y-144133289D01*
X75077543Y-144138267D01*
X75077541Y-144138270D01*
X74986904Y-144332642D01*
X74984581Y-144337624D01*
X74983159Y-144342932D01*
X74983158Y-144342934D01*
X74927652Y-144550085D01*
X74926228Y-144555400D01*
X74906578Y-144780000D01*
X74926228Y-145004600D01*
X74927652Y-145009913D01*
X74927652Y-145009915D01*
X74930043Y-145018836D01*
X74984581Y-145222376D01*
X74986903Y-145227357D01*
X74986904Y-145227358D01*
X75071397Y-145408553D01*
X75079864Y-145426711D01*
X75209181Y-145611396D01*
X75368604Y-145770819D01*
X75553289Y-145900136D01*
X75558267Y-145902457D01*
X75558270Y-145902459D01*
X75629781Y-145935805D01*
X75683066Y-145982723D01*
X75702527Y-146051000D01*
X75681985Y-146118960D01*
X75629781Y-146164195D01*
X75558270Y-146197541D01*
X75558267Y-146197543D01*
X75553289Y-146199864D01*
X75368604Y-146329181D01*
X75209181Y-146488604D01*
X75079864Y-146673289D01*
X75077543Y-146678267D01*
X75077541Y-146678270D01*
X74986904Y-146872642D01*
X74984581Y-146877624D01*
X74983159Y-146882932D01*
X74983158Y-146882934D01*
X74927652Y-147090085D01*
X74926228Y-147095400D01*
X74906578Y-147320000D01*
X74926228Y-147544600D01*
X74927652Y-147549913D01*
X74927652Y-147549915D01*
X74930043Y-147558836D01*
X74984581Y-147762376D01*
X74986903Y-147767357D01*
X74986904Y-147767358D01*
X75071397Y-147948553D01*
X75079864Y-147966711D01*
X75209181Y-148151396D01*
X75368604Y-148310819D01*
X75553289Y-148440136D01*
X75558267Y-148442457D01*
X75558270Y-148442459D01*
X75629781Y-148475805D01*
X75683066Y-148522723D01*
X75702527Y-148591000D01*
X75681985Y-148658960D01*
X75629781Y-148704195D01*
X75558270Y-148737541D01*
X75558267Y-148737543D01*
X75553289Y-148739864D01*
X75368604Y-148869181D01*
X75209181Y-149028604D01*
X75079864Y-149213289D01*
X75077543Y-149218267D01*
X75077541Y-149218270D01*
X74986904Y-149412642D01*
X74984581Y-149417624D01*
X74983159Y-149422932D01*
X74983158Y-149422934D01*
X74927652Y-149630085D01*
X74926228Y-149635400D01*
X74906578Y-149860000D01*
X66673500Y-149860000D01*
X66673500Y-104145475D01*
X74907559Y-104145475D01*
X74926243Y-104359036D01*
X74928145Y-104369823D01*
X74983630Y-104576894D01*
X74987378Y-104587190D01*
X75077972Y-104781473D01*
X75083455Y-104790968D01*
X75116870Y-104838689D01*
X75127347Y-104847064D01*
X75140794Y-104839996D01*
X75827978Y-104152812D01*
X75834356Y-104141132D01*
X76564408Y-104141132D01*
X76564539Y-104142965D01*
X76568790Y-104149580D01*
X77259927Y-104840717D01*
X77271702Y-104847147D01*
X77283717Y-104837851D01*
X77316545Y-104790968D01*
X77322028Y-104781473D01*
X77412622Y-104587190D01*
X77416370Y-104576894D01*
X77471855Y-104369823D01*
X77473757Y-104359036D01*
X77492441Y-104145475D01*
X77492441Y-104134525D01*
X77473757Y-103920964D01*
X77471855Y-103910177D01*
X77416370Y-103703106D01*
X77412622Y-103692810D01*
X77322028Y-103498527D01*
X77316545Y-103489032D01*
X77283130Y-103441311D01*
X77272653Y-103432936D01*
X77259206Y-103440004D01*
X76572022Y-104127188D01*
X76564408Y-104141132D01*
X75834356Y-104141132D01*
X75835592Y-104138868D01*
X75835461Y-104137035D01*
X75831210Y-104130420D01*
X75140073Y-103439283D01*
X75128298Y-103432853D01*
X75116283Y-103442149D01*
X75083455Y-103489032D01*
X75077972Y-103498527D01*
X74987378Y-103692810D01*
X74983630Y-103703106D01*
X74928145Y-103910177D01*
X74926243Y-103920964D01*
X74907559Y-104134525D01*
X74907559Y-104145475D01*
X66673500Y-104145475D01*
X66673500Y-103067347D01*
X75492936Y-103067347D01*
X75500004Y-103080794D01*
X76187188Y-103767978D01*
X76201132Y-103775592D01*
X76202965Y-103775461D01*
X76209580Y-103771210D01*
X76900717Y-103080073D01*
X76907147Y-103068298D01*
X76897851Y-103056283D01*
X76850968Y-103023455D01*
X76841473Y-103017972D01*
X76647190Y-102927378D01*
X76636894Y-102923630D01*
X76429823Y-102868145D01*
X76419036Y-102866243D01*
X76205475Y-102847559D01*
X76194525Y-102847559D01*
X75980964Y-102866243D01*
X75970177Y-102868145D01*
X75763106Y-102923630D01*
X75752810Y-102927378D01*
X75558527Y-103017972D01*
X75549032Y-103023455D01*
X75501311Y-103056870D01*
X75492936Y-103067347D01*
X66673500Y-103067347D01*
X66673500Y-92814807D01*
X66693502Y-92746686D01*
X66726601Y-92712037D01*
X66762720Y-92686416D01*
X66762725Y-92686412D01*
X66767611Y-92682946D01*
X66913881Y-92530150D01*
X67028620Y-92352452D01*
X67107686Y-92156263D01*
X67148228Y-91948663D01*
X67148500Y-91943101D01*
X67148500Y-91892846D01*
X70011500Y-91892846D01*
X70026548Y-92050566D01*
X70086092Y-92253534D01*
X70088836Y-92258861D01*
X70088836Y-92258862D01*
X70180057Y-92435978D01*
X70182942Y-92441580D01*
X70313604Y-92607920D01*
X70318133Y-92611850D01*
X70318138Y-92611855D01*
X70403620Y-92686032D01*
X70473363Y-92746552D01*
X70478549Y-92749552D01*
X70478553Y-92749555D01*
X70574957Y-92805326D01*
X70656454Y-92852473D01*
X70856271Y-92921861D01*
X70862206Y-92922722D01*
X70862208Y-92922722D01*
X71059664Y-92951352D01*
X71059667Y-92951352D01*
X71065604Y-92952213D01*
X71276899Y-92942433D01*
X71408077Y-92910819D01*
X71476701Y-92894281D01*
X71476703Y-92894280D01*
X71482534Y-92892875D01*
X71487992Y-92890393D01*
X71487996Y-92890392D01*
X71603041Y-92838084D01*
X71675087Y-92805326D01*
X71847611Y-92682946D01*
X71993881Y-92530150D01*
X72108620Y-92352452D01*
X72187686Y-92156263D01*
X72228228Y-91948663D01*
X72228500Y-91943101D01*
X72228500Y-91892846D01*
X73821500Y-91892846D01*
X73836548Y-92050566D01*
X73896092Y-92253534D01*
X73898836Y-92258861D01*
X73898836Y-92258862D01*
X73990057Y-92435978D01*
X73992942Y-92441580D01*
X74123604Y-92607920D01*
X74128133Y-92611850D01*
X74128138Y-92611855D01*
X74213620Y-92686032D01*
X74283363Y-92746552D01*
X74288549Y-92749552D01*
X74288553Y-92749555D01*
X74384957Y-92805326D01*
X74466454Y-92852473D01*
X74666271Y-92921861D01*
X74672206Y-92922722D01*
X74672208Y-92922722D01*
X74869664Y-92951352D01*
X74869667Y-92951352D01*
X74875604Y-92952213D01*
X75086899Y-92942433D01*
X75218077Y-92910819D01*
X75286701Y-92894281D01*
X75286703Y-92894280D01*
X75292534Y-92892875D01*
X75297992Y-92890393D01*
X75297996Y-92890392D01*
X75413041Y-92838084D01*
X75485087Y-92805326D01*
X75657611Y-92682946D01*
X75803881Y-92530150D01*
X75918620Y-92352452D01*
X75997686Y-92156263D01*
X76038228Y-91948663D01*
X76038500Y-91943101D01*
X76038500Y-91892846D01*
X76361500Y-91892846D01*
X76376548Y-92050566D01*
X76436092Y-92253534D01*
X76438836Y-92258861D01*
X76438836Y-92258862D01*
X76530057Y-92435978D01*
X76532942Y-92441580D01*
X76663604Y-92607920D01*
X76668133Y-92611850D01*
X76668138Y-92611855D01*
X76753620Y-92686032D01*
X76823363Y-92746552D01*
X76828549Y-92749552D01*
X76828553Y-92749555D01*
X76924957Y-92805326D01*
X77006454Y-92852473D01*
X77206271Y-92921861D01*
X77212206Y-92922722D01*
X77212208Y-92922722D01*
X77409664Y-92951352D01*
X77409667Y-92951352D01*
X77415604Y-92952213D01*
X77626899Y-92942433D01*
X77758077Y-92910819D01*
X77826701Y-92894281D01*
X77826703Y-92894280D01*
X77832534Y-92892875D01*
X77837992Y-92890393D01*
X77837996Y-92890392D01*
X77953041Y-92838084D01*
X78025087Y-92805326D01*
X78197611Y-92682946D01*
X78343881Y-92530150D01*
X78458620Y-92352452D01*
X78537686Y-92156263D01*
X78578228Y-91948663D01*
X78578500Y-91943101D01*
X78578500Y-90987154D01*
X78563452Y-90829434D01*
X78503908Y-90626466D01*
X78450368Y-90522511D01*
X78409804Y-90443751D01*
X78409802Y-90443748D01*
X78407058Y-90438420D01*
X78276396Y-90272080D01*
X78271865Y-90268148D01*
X78271862Y-90268145D01*
X78121167Y-90137379D01*
X78116637Y-90133448D01*
X78111451Y-90130448D01*
X78111447Y-90130445D01*
X77938742Y-90030533D01*
X77933546Y-90027527D01*
X77733729Y-89958139D01*
X77727794Y-89957278D01*
X77727792Y-89957278D01*
X77530336Y-89928648D01*
X77530333Y-89928648D01*
X77524396Y-89927787D01*
X77313101Y-89937567D01*
X77200466Y-89964712D01*
X77113299Y-89985719D01*
X77113297Y-89985720D01*
X77107466Y-89987125D01*
X77102008Y-89989607D01*
X77102004Y-89989608D01*
X77010990Y-90030990D01*
X76914913Y-90074674D01*
X76742389Y-90197054D01*
X76596119Y-90349850D01*
X76481380Y-90527548D01*
X76402314Y-90723737D01*
X76361772Y-90931337D01*
X76361500Y-90936899D01*
X76361500Y-91892846D01*
X76038500Y-91892846D01*
X76038500Y-90987154D01*
X76023452Y-90829434D01*
X75963908Y-90626466D01*
X75910368Y-90522511D01*
X75869804Y-90443751D01*
X75869802Y-90443748D01*
X75867058Y-90438420D01*
X75736396Y-90272080D01*
X75731865Y-90268148D01*
X75731862Y-90268145D01*
X75581167Y-90137379D01*
X75576637Y-90133448D01*
X75571451Y-90130448D01*
X75571447Y-90130445D01*
X75398742Y-90030533D01*
X75393546Y-90027527D01*
X75193729Y-89958139D01*
X75187794Y-89957278D01*
X75187792Y-89957278D01*
X74990336Y-89928648D01*
X74990333Y-89928648D01*
X74984396Y-89927787D01*
X74773101Y-89937567D01*
X74660466Y-89964712D01*
X74573299Y-89985719D01*
X74573297Y-89985720D01*
X74567466Y-89987125D01*
X74562008Y-89989607D01*
X74562004Y-89989608D01*
X74470990Y-90030990D01*
X74374913Y-90074674D01*
X74202389Y-90197054D01*
X74056119Y-90349850D01*
X73941380Y-90527548D01*
X73862314Y-90723737D01*
X73821772Y-90931337D01*
X73821500Y-90936899D01*
X73821500Y-91892846D01*
X72228500Y-91892846D01*
X72228500Y-90987154D01*
X72213452Y-90829434D01*
X72153908Y-90626466D01*
X72100368Y-90522511D01*
X72059804Y-90443751D01*
X72059802Y-90443748D01*
X72057058Y-90438420D01*
X71926396Y-90272080D01*
X71921865Y-90268148D01*
X71921862Y-90268145D01*
X71771167Y-90137379D01*
X71766637Y-90133448D01*
X71761451Y-90130448D01*
X71761447Y-90130445D01*
X71588742Y-90030533D01*
X71583546Y-90027527D01*
X71383729Y-89958139D01*
X71377794Y-89957278D01*
X71377792Y-89957278D01*
X71180336Y-89928648D01*
X71180333Y-89928648D01*
X71174396Y-89927787D01*
X70963101Y-89937567D01*
X70850466Y-89964712D01*
X70763299Y-89985719D01*
X70763297Y-89985720D01*
X70757466Y-89987125D01*
X70752008Y-89989607D01*
X70752004Y-89989608D01*
X70660990Y-90030990D01*
X70564913Y-90074674D01*
X70392389Y-90197054D01*
X70246119Y-90349850D01*
X70131380Y-90527548D01*
X70052314Y-90723737D01*
X70011772Y-90931337D01*
X70011500Y-90936899D01*
X70011500Y-91892846D01*
X67148500Y-91892846D01*
X67148500Y-90987154D01*
X67133452Y-90829434D01*
X67073908Y-90626466D01*
X67020368Y-90522511D01*
X66979804Y-90443751D01*
X66979802Y-90443748D01*
X66977058Y-90438420D01*
X66846396Y-90272080D01*
X66841865Y-90268148D01*
X66841862Y-90268145D01*
X66691167Y-90137379D01*
X66686637Y-90133448D01*
X66681451Y-90130448D01*
X66681447Y-90130445D01*
X66508742Y-90030533D01*
X66503546Y-90027527D01*
X66303729Y-89958139D01*
X66297794Y-89957278D01*
X66297792Y-89957278D01*
X66100336Y-89928648D01*
X66100333Y-89928648D01*
X66094396Y-89927787D01*
X65883101Y-89937567D01*
X65770466Y-89964712D01*
X65683299Y-89985719D01*
X65683297Y-89985720D01*
X65677466Y-89987125D01*
X65672008Y-89989607D01*
X65672004Y-89989608D01*
X65580990Y-90030990D01*
X65484913Y-90074674D01*
X65312389Y-90197054D01*
X65166119Y-90349850D01*
X65051380Y-90527548D01*
X64972314Y-90723737D01*
X64931772Y-90931337D01*
X64931500Y-90936899D01*
X64931500Y-91892846D01*
X64946548Y-92050566D01*
X65006092Y-92253534D01*
X65008836Y-92258861D01*
X65008836Y-92258862D01*
X65100057Y-92435978D01*
X65102942Y-92441580D01*
X65233604Y-92607920D01*
X65363082Y-92720275D01*
X65401421Y-92780027D01*
X65406500Y-92815439D01*
X65406500Y-151640500D01*
X65386498Y-151708621D01*
X65332842Y-151755114D01*
X65280500Y-151766500D01*
X51559500Y-151766500D01*
X51491379Y-151746498D01*
X51444886Y-151692842D01*
X51433500Y-151640500D01*
X51433500Y-151054977D01*
X51453502Y-150986856D01*
X51487226Y-150951768D01*
X51631396Y-150850819D01*
X51790819Y-150691396D01*
X51920136Y-150506711D01*
X51924769Y-150496777D01*
X52013096Y-150307358D01*
X52013097Y-150307357D01*
X52015419Y-150302376D01*
X52021198Y-150280811D01*
X52072348Y-150089915D01*
X52072348Y-150089913D01*
X52073772Y-150084600D01*
X52093422Y-149860000D01*
X52073772Y-149635400D01*
X52072348Y-149630085D01*
X52016842Y-149422934D01*
X52016841Y-149422932D01*
X52015419Y-149417624D01*
X52013096Y-149412642D01*
X51922459Y-149218270D01*
X51922457Y-149218267D01*
X51920136Y-149213289D01*
X51790819Y-149028604D01*
X51631396Y-148869181D01*
X51446711Y-148739864D01*
X51441733Y-148737543D01*
X51441730Y-148737541D01*
X51370219Y-148704195D01*
X51316934Y-148657277D01*
X51297473Y-148589000D01*
X51318015Y-148521040D01*
X51370219Y-148475805D01*
X51441730Y-148442459D01*
X51441733Y-148442457D01*
X51446711Y-148440136D01*
X51631396Y-148310819D01*
X51790819Y-148151396D01*
X51920136Y-147966711D01*
X51928604Y-147948553D01*
X52013096Y-147767358D01*
X52013097Y-147767357D01*
X52015419Y-147762376D01*
X52069958Y-147558836D01*
X52072348Y-147549915D01*
X52072348Y-147549913D01*
X52073772Y-147544600D01*
X52093422Y-147320000D01*
X52073772Y-147095400D01*
X52072348Y-147090085D01*
X52016842Y-146882934D01*
X52016841Y-146882932D01*
X52015419Y-146877624D01*
X52013096Y-146872642D01*
X51922459Y-146678270D01*
X51922457Y-146678267D01*
X51920136Y-146673289D01*
X51790819Y-146488604D01*
X51631396Y-146329181D01*
X51446711Y-146199864D01*
X51441733Y-146197543D01*
X51441730Y-146197541D01*
X51370219Y-146164195D01*
X51316934Y-146117277D01*
X51297473Y-146049000D01*
X51318015Y-145981040D01*
X51370219Y-145935805D01*
X51441730Y-145902459D01*
X51441733Y-145902457D01*
X51446711Y-145900136D01*
X51631396Y-145770819D01*
X51790819Y-145611396D01*
X51920136Y-145426711D01*
X51928604Y-145408553D01*
X52013096Y-145227358D01*
X52013097Y-145227357D01*
X52015419Y-145222376D01*
X52069958Y-145018836D01*
X52072348Y-145009915D01*
X52072348Y-145009913D01*
X52073772Y-145004600D01*
X52093422Y-144780000D01*
X52073772Y-144555400D01*
X52072348Y-144550085D01*
X52016842Y-144342934D01*
X52016841Y-144342932D01*
X52015419Y-144337624D01*
X52013096Y-144332642D01*
X51922459Y-144138270D01*
X51922457Y-144138267D01*
X51920136Y-144133289D01*
X51790819Y-143948604D01*
X51631396Y-143789181D01*
X51446711Y-143659864D01*
X51441733Y-143657543D01*
X51441730Y-143657541D01*
X51370219Y-143624195D01*
X51316934Y-143577277D01*
X51297473Y-143509000D01*
X51318015Y-143441040D01*
X51370219Y-143395805D01*
X51441730Y-143362459D01*
X51441733Y-143362457D01*
X51446711Y-143360136D01*
X51631396Y-143230819D01*
X51790819Y-143071396D01*
X51920136Y-142886711D01*
X51928604Y-142868553D01*
X52013096Y-142687358D01*
X52013097Y-142687357D01*
X52015419Y-142682376D01*
X52069958Y-142478836D01*
X52072348Y-142469915D01*
X52072348Y-142469913D01*
X52073772Y-142464600D01*
X52093422Y-142240000D01*
X52073772Y-142015400D01*
X52072348Y-142010085D01*
X52016842Y-141802934D01*
X52016841Y-141802932D01*
X52015419Y-141797624D01*
X52013096Y-141792642D01*
X51922459Y-141598270D01*
X51922457Y-141598267D01*
X51920136Y-141593289D01*
X51790819Y-141408604D01*
X51631396Y-141249181D01*
X51446711Y-141119864D01*
X51441733Y-141117543D01*
X51441730Y-141117541D01*
X51370219Y-141084195D01*
X51316934Y-141037277D01*
X51297473Y-140969000D01*
X51318015Y-140901040D01*
X51370219Y-140855805D01*
X51441730Y-140822459D01*
X51441733Y-140822457D01*
X51446711Y-140820136D01*
X51631396Y-140690819D01*
X51790819Y-140531396D01*
X51920136Y-140346711D01*
X51928604Y-140328553D01*
X52013096Y-140147358D01*
X52013097Y-140147357D01*
X52015419Y-140142376D01*
X52069958Y-139938836D01*
X52072348Y-139929915D01*
X52072348Y-139929913D01*
X52073772Y-139924600D01*
X52093422Y-139700000D01*
X52073772Y-139475400D01*
X52072348Y-139470085D01*
X52016842Y-139262934D01*
X52016841Y-139262932D01*
X52015419Y-139257624D01*
X52013096Y-139252642D01*
X51922459Y-139058270D01*
X51922457Y-139058267D01*
X51920136Y-139053289D01*
X51790819Y-138868604D01*
X51631396Y-138709181D01*
X51446711Y-138579864D01*
X51441733Y-138577543D01*
X51441730Y-138577541D01*
X51370219Y-138544195D01*
X51316934Y-138497277D01*
X51297473Y-138429000D01*
X51318015Y-138361040D01*
X51370219Y-138315805D01*
X51441730Y-138282459D01*
X51441733Y-138282457D01*
X51446711Y-138280136D01*
X51631396Y-138150819D01*
X51790819Y-137991396D01*
X51920136Y-137806711D01*
X51928604Y-137788553D01*
X52013096Y-137607358D01*
X52013097Y-137607357D01*
X52015419Y-137602376D01*
X52069958Y-137398836D01*
X52072348Y-137389915D01*
X52072348Y-137389913D01*
X52073772Y-137384600D01*
X52093422Y-137160000D01*
X52073772Y-136935400D01*
X52072348Y-136930085D01*
X52016842Y-136722934D01*
X52016841Y-136722932D01*
X52015419Y-136717624D01*
X52013096Y-136712642D01*
X51922459Y-136518270D01*
X51922457Y-136518267D01*
X51920136Y-136513289D01*
X51790819Y-136328604D01*
X51631396Y-136169181D01*
X51446711Y-136039864D01*
X51441733Y-136037543D01*
X51441730Y-136037541D01*
X51370219Y-136004195D01*
X51316934Y-135957277D01*
X51297473Y-135889000D01*
X51318015Y-135821040D01*
X51370219Y-135775805D01*
X51441730Y-135742459D01*
X51441733Y-135742457D01*
X51446711Y-135740136D01*
X51631396Y-135610819D01*
X51790819Y-135451396D01*
X51920136Y-135266711D01*
X51928604Y-135248553D01*
X52013096Y-135067358D01*
X52013097Y-135067357D01*
X52015419Y-135062376D01*
X52069958Y-134858836D01*
X52072348Y-134849915D01*
X52072348Y-134849913D01*
X52073772Y-134844600D01*
X52093422Y-134620000D01*
X52073772Y-134395400D01*
X52028579Y-134226738D01*
X52016842Y-134182934D01*
X52016841Y-134182932D01*
X52015419Y-134177624D01*
X51966351Y-134072397D01*
X51922459Y-133978270D01*
X51922457Y-133978267D01*
X51920136Y-133973289D01*
X51790819Y-133788604D01*
X51631396Y-133629181D01*
X51446711Y-133499864D01*
X51441733Y-133497543D01*
X51441730Y-133497541D01*
X51370219Y-133464195D01*
X51316934Y-133417277D01*
X51297473Y-133349000D01*
X51318015Y-133281040D01*
X51370219Y-133235805D01*
X51441730Y-133202459D01*
X51441733Y-133202457D01*
X51446711Y-133200136D01*
X51631396Y-133070819D01*
X51790819Y-132911396D01*
X51920136Y-132726711D01*
X51933001Y-132699123D01*
X52013096Y-132527358D01*
X52013097Y-132527357D01*
X52015419Y-132522376D01*
X52026598Y-132480658D01*
X52072348Y-132309915D01*
X52072348Y-132309913D01*
X52073772Y-132304600D01*
X52093422Y-132080000D01*
X52073772Y-131855400D01*
X52072348Y-131850085D01*
X52016842Y-131642934D01*
X52016841Y-131642932D01*
X52015419Y-131637624D01*
X52013096Y-131632642D01*
X51922459Y-131438270D01*
X51922457Y-131438267D01*
X51920136Y-131433289D01*
X51790819Y-131248604D01*
X51631396Y-131089181D01*
X51446711Y-130959864D01*
X51441733Y-130957543D01*
X51441730Y-130957541D01*
X51370219Y-130924195D01*
X51316934Y-130877277D01*
X51297473Y-130809000D01*
X51318015Y-130741040D01*
X51370219Y-130695805D01*
X51441730Y-130662459D01*
X51441733Y-130662457D01*
X51446711Y-130660136D01*
X51631396Y-130530819D01*
X51790819Y-130371396D01*
X51920136Y-130186711D01*
X51922549Y-130181538D01*
X52013096Y-129987358D01*
X52013097Y-129987357D01*
X52015419Y-129982376D01*
X52069958Y-129778836D01*
X52072348Y-129769915D01*
X52072348Y-129769913D01*
X52073772Y-129764600D01*
X52093422Y-129540000D01*
X52073772Y-129315400D01*
X52015419Y-129097624D01*
X51920136Y-128893289D01*
X51790819Y-128708604D01*
X51631396Y-128549181D01*
X51446711Y-128419864D01*
X51441733Y-128417543D01*
X51441730Y-128417541D01*
X51370219Y-128384195D01*
X51316934Y-128337277D01*
X51297473Y-128269000D01*
X51318015Y-128201040D01*
X51370219Y-128155805D01*
X51441730Y-128122459D01*
X51441733Y-128122457D01*
X51446711Y-128120136D01*
X51631396Y-127990819D01*
X51790819Y-127831396D01*
X51891766Y-127687227D01*
X51947220Y-127642901D01*
X51994977Y-127633500D01*
X55801233Y-127633500D01*
X55812416Y-127634027D01*
X55819909Y-127635702D01*
X55827835Y-127635453D01*
X55827836Y-127635453D01*
X55887986Y-127633562D01*
X55891945Y-127633500D01*
X55919856Y-127633500D01*
X55923791Y-127633003D01*
X55923856Y-127632995D01*
X55935693Y-127632062D01*
X55967951Y-127631048D01*
X55971970Y-127630922D01*
X55979889Y-127630673D01*
X55999343Y-127625021D01*
X56018700Y-127621013D01*
X56030930Y-127619468D01*
X56030931Y-127619468D01*
X56038797Y-127618474D01*
X56046168Y-127615555D01*
X56046170Y-127615555D01*
X56079912Y-127602196D01*
X56091142Y-127598351D01*
X56125983Y-127588229D01*
X56125984Y-127588229D01*
X56133593Y-127586018D01*
X56140412Y-127581985D01*
X56140417Y-127581983D01*
X56151028Y-127575707D01*
X56168776Y-127567012D01*
X56187617Y-127559552D01*
X56223387Y-127533564D01*
X56233307Y-127527048D01*
X56264535Y-127508580D01*
X56264538Y-127508578D01*
X56271362Y-127504542D01*
X56285683Y-127490221D01*
X56300717Y-127477380D01*
X56310694Y-127470131D01*
X56317107Y-127465472D01*
X56345298Y-127431395D01*
X56353288Y-127422616D01*
X60082247Y-123693657D01*
X60090537Y-123686113D01*
X60097018Y-123682000D01*
X60143659Y-123632332D01*
X60146413Y-123629491D01*
X60166135Y-123609769D01*
X60168612Y-123606576D01*
X60176317Y-123597555D01*
X60206586Y-123565321D01*
X60210407Y-123558371D01*
X60216346Y-123547568D01*
X60227202Y-123531041D01*
X60234757Y-123521302D01*
X60234758Y-123521300D01*
X60239614Y-123515040D01*
X60257174Y-123474460D01*
X60262391Y-123463812D01*
X60279875Y-123432009D01*
X60279876Y-123432007D01*
X60283695Y-123425060D01*
X60288733Y-123405437D01*
X60295137Y-123386734D01*
X60300033Y-123375420D01*
X60300033Y-123375419D01*
X60303181Y-123368145D01*
X60304420Y-123360322D01*
X60304423Y-123360312D01*
X60310099Y-123324476D01*
X60312505Y-123312856D01*
X60321528Y-123277711D01*
X60321528Y-123277710D01*
X60323500Y-123270030D01*
X60323500Y-123249776D01*
X60325051Y-123230065D01*
X60326980Y-123217886D01*
X60328220Y-123210057D01*
X60324059Y-123166038D01*
X60323500Y-123154181D01*
X60323500Y-88128856D01*
X84956601Y-88128856D01*
X84963059Y-88138216D01*
X84979361Y-88152512D01*
X84985901Y-88157530D01*
X85225144Y-88317387D01*
X85232281Y-88321508D01*
X85490349Y-88448772D01*
X85497953Y-88451922D01*
X85770420Y-88544412D01*
X85778383Y-88546546D01*
X86060600Y-88602683D01*
X86068751Y-88603756D01*
X86355881Y-88622575D01*
X86364119Y-88622575D01*
X86651249Y-88603756D01*
X86659400Y-88602683D01*
X86941617Y-88546546D01*
X86949580Y-88544412D01*
X87222047Y-88451922D01*
X87229651Y-88448772D01*
X87487719Y-88321508D01*
X87494856Y-88317387D01*
X87734099Y-88157530D01*
X87740639Y-88152512D01*
X87755074Y-88139853D01*
X87763472Y-88126614D01*
X87757638Y-88116849D01*
X86372810Y-86732020D01*
X86358869Y-86724408D01*
X86357034Y-86724539D01*
X86350420Y-86728790D01*
X84964116Y-88115095D01*
X84956601Y-88128856D01*
X60323500Y-88128856D01*
X60323500Y-87734807D01*
X60343502Y-87666686D01*
X60376601Y-87632037D01*
X60412720Y-87606416D01*
X60412725Y-87606412D01*
X60417611Y-87602946D01*
X60563881Y-87450150D01*
X60678620Y-87272452D01*
X60757686Y-87076263D01*
X60798228Y-86868663D01*
X60798500Y-86863101D01*
X60798500Y-86812846D01*
X61121500Y-86812846D01*
X61136548Y-86970566D01*
X61196092Y-87173534D01*
X61292942Y-87361580D01*
X61423604Y-87527920D01*
X61428133Y-87531850D01*
X61428138Y-87531855D01*
X61514058Y-87606412D01*
X61583363Y-87666552D01*
X61588549Y-87669552D01*
X61588553Y-87669555D01*
X61700122Y-87734099D01*
X61766454Y-87772473D01*
X61966271Y-87841861D01*
X61972206Y-87842722D01*
X61972208Y-87842722D01*
X62169664Y-87871352D01*
X62169667Y-87871352D01*
X62175604Y-87872213D01*
X62386899Y-87862433D01*
X62518077Y-87830819D01*
X62586701Y-87814281D01*
X62586703Y-87814280D01*
X62592534Y-87812875D01*
X62597992Y-87810393D01*
X62597996Y-87810392D01*
X62715554Y-87756941D01*
X62785087Y-87725326D01*
X62957611Y-87602946D01*
X63103881Y-87450150D01*
X63218620Y-87272452D01*
X63297686Y-87076263D01*
X63338228Y-86868663D01*
X63338500Y-86863101D01*
X63338500Y-86812846D01*
X64931500Y-86812846D01*
X64946548Y-86970566D01*
X65006092Y-87173534D01*
X65102942Y-87361580D01*
X65233604Y-87527920D01*
X65238133Y-87531850D01*
X65238138Y-87531855D01*
X65324058Y-87606412D01*
X65393363Y-87666552D01*
X65398549Y-87669552D01*
X65398553Y-87669555D01*
X65510122Y-87734099D01*
X65576454Y-87772473D01*
X65776271Y-87841861D01*
X65782206Y-87842722D01*
X65782208Y-87842722D01*
X65979664Y-87871352D01*
X65979667Y-87871352D01*
X65985604Y-87872213D01*
X66196899Y-87862433D01*
X66328077Y-87830819D01*
X66396701Y-87814281D01*
X66396703Y-87814280D01*
X66402534Y-87812875D01*
X66407992Y-87810393D01*
X66407996Y-87810392D01*
X66525554Y-87756941D01*
X66595087Y-87725326D01*
X66767611Y-87602946D01*
X66913881Y-87450150D01*
X67028620Y-87272452D01*
X67107686Y-87076263D01*
X67148228Y-86868663D01*
X67148500Y-86863101D01*
X67148500Y-86812846D01*
X70011500Y-86812846D01*
X70026548Y-86970566D01*
X70086092Y-87173534D01*
X70182942Y-87361580D01*
X70313604Y-87527920D01*
X70318133Y-87531850D01*
X70318138Y-87531855D01*
X70404058Y-87606412D01*
X70473363Y-87666552D01*
X70478549Y-87669552D01*
X70478553Y-87669555D01*
X70590122Y-87734099D01*
X70656454Y-87772473D01*
X70856271Y-87841861D01*
X70862206Y-87842722D01*
X70862208Y-87842722D01*
X71059664Y-87871352D01*
X71059667Y-87871352D01*
X71065604Y-87872213D01*
X71276899Y-87862433D01*
X71408077Y-87830819D01*
X71476701Y-87814281D01*
X71476703Y-87814280D01*
X71482534Y-87812875D01*
X71487992Y-87810393D01*
X71487996Y-87810392D01*
X71605554Y-87756941D01*
X71675087Y-87725326D01*
X71847611Y-87602946D01*
X71993881Y-87450150D01*
X72108620Y-87272452D01*
X72187686Y-87076263D01*
X72228228Y-86868663D01*
X72228500Y-86863101D01*
X72228500Y-86812846D01*
X73821500Y-86812846D01*
X73836548Y-86970566D01*
X73896092Y-87173534D01*
X73992942Y-87361580D01*
X74123604Y-87527920D01*
X74128133Y-87531850D01*
X74128138Y-87531855D01*
X74214058Y-87606412D01*
X74283363Y-87666552D01*
X74288549Y-87669552D01*
X74288553Y-87669555D01*
X74400122Y-87734099D01*
X74466454Y-87772473D01*
X74666271Y-87841861D01*
X74672206Y-87842722D01*
X74672208Y-87842722D01*
X74869664Y-87871352D01*
X74869667Y-87871352D01*
X74875604Y-87872213D01*
X75086899Y-87862433D01*
X75218077Y-87830819D01*
X75286701Y-87814281D01*
X75286703Y-87814280D01*
X75292534Y-87812875D01*
X75297992Y-87810393D01*
X75297996Y-87810392D01*
X75415554Y-87756941D01*
X75485087Y-87725326D01*
X75657611Y-87602946D01*
X75803881Y-87450150D01*
X75918620Y-87272452D01*
X75997686Y-87076263D01*
X76038228Y-86868663D01*
X76038500Y-86863101D01*
X76038500Y-86812846D01*
X76361500Y-86812846D01*
X76376548Y-86970566D01*
X76436092Y-87173534D01*
X76532942Y-87361580D01*
X76663604Y-87527920D01*
X76668133Y-87531850D01*
X76668138Y-87531855D01*
X76754058Y-87606412D01*
X76823363Y-87666552D01*
X76828549Y-87669552D01*
X76828553Y-87669555D01*
X76940122Y-87734099D01*
X77006454Y-87772473D01*
X77206271Y-87841861D01*
X77212206Y-87842722D01*
X77212208Y-87842722D01*
X77409664Y-87871352D01*
X77409667Y-87871352D01*
X77415604Y-87872213D01*
X77626899Y-87862433D01*
X77758077Y-87830819D01*
X77826701Y-87814281D01*
X77826703Y-87814280D01*
X77832534Y-87812875D01*
X77837992Y-87810393D01*
X77837996Y-87810392D01*
X77955554Y-87756941D01*
X78025087Y-87725326D01*
X78197611Y-87602946D01*
X78343881Y-87450150D01*
X78458620Y-87272452D01*
X78537686Y-87076263D01*
X78578228Y-86868663D01*
X78578500Y-86863101D01*
X78578500Y-86364119D01*
X84097425Y-86364119D01*
X84116244Y-86651249D01*
X84117317Y-86659400D01*
X84173454Y-86941617D01*
X84175588Y-86949580D01*
X84268078Y-87222047D01*
X84271228Y-87229651D01*
X84398492Y-87487718D01*
X84402613Y-87494855D01*
X84562470Y-87734099D01*
X84567488Y-87740639D01*
X84580147Y-87755074D01*
X84593386Y-87763472D01*
X84603151Y-87757638D01*
X85987980Y-86372810D01*
X85995592Y-86358869D01*
X85995461Y-86357034D01*
X85991210Y-86350420D01*
X84604905Y-84964116D01*
X84591144Y-84956601D01*
X84581784Y-84963059D01*
X84567488Y-84979361D01*
X84562470Y-84985901D01*
X84402613Y-85225145D01*
X84398492Y-85232282D01*
X84271228Y-85490349D01*
X84268078Y-85497953D01*
X84175588Y-85770420D01*
X84173454Y-85778383D01*
X84117317Y-86060600D01*
X84116244Y-86068751D01*
X84097425Y-86355881D01*
X84097425Y-86364119D01*
X78578500Y-86364119D01*
X78578500Y-85907154D01*
X78563452Y-85749434D01*
X78503908Y-85546466D01*
X78407058Y-85358420D01*
X78276396Y-85192080D01*
X78271865Y-85188148D01*
X78271862Y-85188145D01*
X78121167Y-85057379D01*
X78116637Y-85053448D01*
X78111451Y-85050448D01*
X78111447Y-85050445D01*
X77938742Y-84950533D01*
X77933546Y-84947527D01*
X77733729Y-84878139D01*
X77727794Y-84877278D01*
X77727792Y-84877278D01*
X77530336Y-84848648D01*
X77530333Y-84848648D01*
X77524396Y-84847787D01*
X77313101Y-84857567D01*
X77181923Y-84889181D01*
X77113299Y-84905719D01*
X77113297Y-84905720D01*
X77107466Y-84907125D01*
X77102008Y-84909607D01*
X77102004Y-84909608D01*
X76998810Y-84956528D01*
X76914913Y-84994674D01*
X76742389Y-85117054D01*
X76596119Y-85269850D01*
X76481380Y-85447548D01*
X76402314Y-85643737D01*
X76361772Y-85851337D01*
X76361500Y-85856899D01*
X76361500Y-86812846D01*
X76038500Y-86812846D01*
X76038500Y-85907154D01*
X76023452Y-85749434D01*
X75963908Y-85546466D01*
X75867058Y-85358420D01*
X75736396Y-85192080D01*
X75731865Y-85188148D01*
X75731862Y-85188145D01*
X75581167Y-85057379D01*
X75576637Y-85053448D01*
X75571451Y-85050448D01*
X75571447Y-85050445D01*
X75398742Y-84950533D01*
X75393546Y-84947527D01*
X75193729Y-84878139D01*
X75187794Y-84877278D01*
X75187792Y-84877278D01*
X74990336Y-84848648D01*
X74990333Y-84848648D01*
X74984396Y-84847787D01*
X74773101Y-84857567D01*
X74641923Y-84889181D01*
X74573299Y-84905719D01*
X74573297Y-84905720D01*
X74567466Y-84907125D01*
X74562008Y-84909607D01*
X74562004Y-84909608D01*
X74458810Y-84956528D01*
X74374913Y-84994674D01*
X74202389Y-85117054D01*
X74056119Y-85269850D01*
X73941380Y-85447548D01*
X73862314Y-85643737D01*
X73821772Y-85851337D01*
X73821500Y-85856899D01*
X73821500Y-86812846D01*
X72228500Y-86812846D01*
X72228500Y-85907154D01*
X72213452Y-85749434D01*
X72153908Y-85546466D01*
X72057058Y-85358420D01*
X71926396Y-85192080D01*
X71921865Y-85188148D01*
X71921862Y-85188145D01*
X71771167Y-85057379D01*
X71766637Y-85053448D01*
X71761451Y-85050448D01*
X71761447Y-85050445D01*
X71588742Y-84950533D01*
X71583546Y-84947527D01*
X71383729Y-84878139D01*
X71377794Y-84877278D01*
X71377792Y-84877278D01*
X71180336Y-84848648D01*
X71180333Y-84848648D01*
X71174396Y-84847787D01*
X70963101Y-84857567D01*
X70831923Y-84889181D01*
X70763299Y-84905719D01*
X70763297Y-84905720D01*
X70757466Y-84907125D01*
X70752008Y-84909607D01*
X70752004Y-84909608D01*
X70648810Y-84956528D01*
X70564913Y-84994674D01*
X70392389Y-85117054D01*
X70246119Y-85269850D01*
X70131380Y-85447548D01*
X70052314Y-85643737D01*
X70011772Y-85851337D01*
X70011500Y-85856899D01*
X70011500Y-86812846D01*
X67148500Y-86812846D01*
X67148500Y-85907154D01*
X67133452Y-85749434D01*
X67073908Y-85546466D01*
X66977058Y-85358420D01*
X66846396Y-85192080D01*
X66841865Y-85188148D01*
X66841862Y-85188145D01*
X66691167Y-85057379D01*
X66686637Y-85053448D01*
X66681451Y-85050448D01*
X66681447Y-85050445D01*
X66508742Y-84950533D01*
X66503546Y-84947527D01*
X66303729Y-84878139D01*
X66297794Y-84877278D01*
X66297792Y-84877278D01*
X66100336Y-84848648D01*
X66100333Y-84848648D01*
X66094396Y-84847787D01*
X65883101Y-84857567D01*
X65751923Y-84889181D01*
X65683299Y-84905719D01*
X65683297Y-84905720D01*
X65677466Y-84907125D01*
X65672008Y-84909607D01*
X65672004Y-84909608D01*
X65568810Y-84956528D01*
X65484913Y-84994674D01*
X65312389Y-85117054D01*
X65166119Y-85269850D01*
X65051380Y-85447548D01*
X64972314Y-85643737D01*
X64931772Y-85851337D01*
X64931500Y-85856899D01*
X64931500Y-86812846D01*
X63338500Y-86812846D01*
X63338500Y-85907154D01*
X63323452Y-85749434D01*
X63263908Y-85546466D01*
X63167058Y-85358420D01*
X63036396Y-85192080D01*
X63031865Y-85188148D01*
X63031862Y-85188145D01*
X62881167Y-85057379D01*
X62876637Y-85053448D01*
X62871451Y-85050448D01*
X62871447Y-85050445D01*
X62698742Y-84950533D01*
X62693546Y-84947527D01*
X62493729Y-84878139D01*
X62487794Y-84877278D01*
X62487792Y-84877278D01*
X62290336Y-84848648D01*
X62290333Y-84848648D01*
X62284396Y-84847787D01*
X62073101Y-84857567D01*
X61941923Y-84889181D01*
X61873299Y-84905719D01*
X61873297Y-84905720D01*
X61867466Y-84907125D01*
X61862008Y-84909607D01*
X61862004Y-84909608D01*
X61758810Y-84956528D01*
X61674913Y-84994674D01*
X61502389Y-85117054D01*
X61356119Y-85269850D01*
X61241380Y-85447548D01*
X61162314Y-85643737D01*
X61121772Y-85851337D01*
X61121500Y-85856899D01*
X61121500Y-86812846D01*
X60798500Y-86812846D01*
X60798500Y-85907154D01*
X60783452Y-85749434D01*
X60723908Y-85546466D01*
X60627058Y-85358420D01*
X60496396Y-85192080D01*
X60491865Y-85188148D01*
X60491862Y-85188145D01*
X60341167Y-85057379D01*
X60336637Y-85053448D01*
X60331451Y-85050448D01*
X60331447Y-85050445D01*
X60158742Y-84950533D01*
X60153546Y-84947527D01*
X59953729Y-84878139D01*
X59947794Y-84877278D01*
X59947792Y-84877278D01*
X59750336Y-84848648D01*
X59750333Y-84848648D01*
X59744396Y-84847787D01*
X59533101Y-84857567D01*
X59401923Y-84889181D01*
X59333299Y-84905719D01*
X59333297Y-84905720D01*
X59327466Y-84907125D01*
X59322008Y-84909607D01*
X59322004Y-84909608D01*
X59218810Y-84956528D01*
X59134913Y-84994674D01*
X58962389Y-85117054D01*
X58816119Y-85269850D01*
X58701380Y-85447548D01*
X58622314Y-85643737D01*
X58581772Y-85851337D01*
X58581500Y-85856899D01*
X58581500Y-86812846D01*
X58596548Y-86970566D01*
X58656092Y-87173534D01*
X58752942Y-87361580D01*
X58883604Y-87527920D01*
X59013082Y-87640275D01*
X59051421Y-87700027D01*
X59056500Y-87735439D01*
X59056500Y-122875406D01*
X59036498Y-122943527D01*
X59019595Y-122964501D01*
X55654500Y-126329595D01*
X55592188Y-126363621D01*
X55565405Y-126366500D01*
X51994977Y-126366500D01*
X51926856Y-126346498D01*
X51891768Y-126312774D01*
X51790819Y-126168604D01*
X51631396Y-126009181D01*
X51446711Y-125879864D01*
X51441733Y-125877543D01*
X51441730Y-125877541D01*
X51370219Y-125844195D01*
X51316934Y-125797277D01*
X51297473Y-125729000D01*
X51318015Y-125661040D01*
X51370219Y-125615805D01*
X51441730Y-125582459D01*
X51441733Y-125582457D01*
X51446711Y-125580136D01*
X51631396Y-125450819D01*
X51790819Y-125291396D01*
X51920136Y-125106711D01*
X51965522Y-125009382D01*
X52013096Y-124907358D01*
X52013097Y-124907357D01*
X52015419Y-124902376D01*
X52061041Y-124732115D01*
X52072348Y-124689915D01*
X52072348Y-124689913D01*
X52073772Y-124684600D01*
X52093422Y-124460000D01*
X52073772Y-124235400D01*
X52061802Y-124190727D01*
X52016842Y-124022934D01*
X52016841Y-124022932D01*
X52015419Y-124017624D01*
X52003222Y-123991467D01*
X51922459Y-123818270D01*
X51922457Y-123818267D01*
X51920136Y-123813289D01*
X51790819Y-123628604D01*
X51631396Y-123469181D01*
X51446711Y-123339864D01*
X51441733Y-123337543D01*
X51441730Y-123337541D01*
X51370219Y-123304195D01*
X51316934Y-123257277D01*
X51297473Y-123189000D01*
X51318015Y-123121040D01*
X51370219Y-123075805D01*
X51441730Y-123042459D01*
X51441733Y-123042457D01*
X51446711Y-123040136D01*
X51631396Y-122910819D01*
X51790819Y-122751396D01*
X51920136Y-122566711D01*
X52015419Y-122362376D01*
X52063288Y-122183729D01*
X52072348Y-122149915D01*
X52072348Y-122149913D01*
X52073772Y-122144600D01*
X52093422Y-121920000D01*
X52073772Y-121695400D01*
X52064878Y-121662208D01*
X52016842Y-121482934D01*
X52016841Y-121482932D01*
X52015419Y-121477624D01*
X51920136Y-121273289D01*
X51790819Y-121088604D01*
X51631396Y-120929181D01*
X51446711Y-120799864D01*
X51441733Y-120797543D01*
X51441730Y-120797541D01*
X51370219Y-120764195D01*
X51316934Y-120717277D01*
X51297473Y-120649000D01*
X51318015Y-120581040D01*
X51370219Y-120535805D01*
X51441730Y-120502459D01*
X51441733Y-120502457D01*
X51446711Y-120500136D01*
X51631396Y-120370819D01*
X51790819Y-120211396D01*
X51891766Y-120067227D01*
X51947220Y-120022901D01*
X51994977Y-120013500D01*
X53261233Y-120013500D01*
X53272416Y-120014027D01*
X53279909Y-120015702D01*
X53287835Y-120015453D01*
X53287836Y-120015453D01*
X53347986Y-120013562D01*
X53351945Y-120013500D01*
X53379856Y-120013500D01*
X53383791Y-120013003D01*
X53383856Y-120012995D01*
X53395693Y-120012062D01*
X53427951Y-120011048D01*
X53431970Y-120010922D01*
X53439889Y-120010673D01*
X53459343Y-120005021D01*
X53478700Y-120001013D01*
X53490930Y-119999468D01*
X53490931Y-119999468D01*
X53498797Y-119998474D01*
X53506168Y-119995555D01*
X53506170Y-119995555D01*
X53539912Y-119982196D01*
X53551142Y-119978351D01*
X53585983Y-119968229D01*
X53585984Y-119968229D01*
X53593593Y-119966018D01*
X53600412Y-119961985D01*
X53600417Y-119961983D01*
X53611028Y-119955707D01*
X53628776Y-119947012D01*
X53647617Y-119939552D01*
X53683387Y-119913564D01*
X53693307Y-119907048D01*
X53724535Y-119888580D01*
X53724538Y-119888578D01*
X53731362Y-119884542D01*
X53745683Y-119870221D01*
X53760717Y-119857380D01*
X53770694Y-119850131D01*
X53777107Y-119845472D01*
X53805298Y-119811395D01*
X53813288Y-119802616D01*
X57542247Y-116073657D01*
X57550537Y-116066113D01*
X57557018Y-116062000D01*
X57603659Y-116012332D01*
X57606413Y-116009491D01*
X57626135Y-115989769D01*
X57628612Y-115986576D01*
X57636317Y-115977555D01*
X57661159Y-115951100D01*
X57666586Y-115945321D01*
X57670613Y-115937996D01*
X57676346Y-115927568D01*
X57687202Y-115911041D01*
X57694757Y-115901302D01*
X57694758Y-115901300D01*
X57699614Y-115895040D01*
X57717174Y-115854460D01*
X57722391Y-115843812D01*
X57739875Y-115812009D01*
X57739876Y-115812007D01*
X57743695Y-115805060D01*
X57748733Y-115785437D01*
X57755137Y-115766734D01*
X57760033Y-115755420D01*
X57760033Y-115755419D01*
X57763181Y-115748145D01*
X57764420Y-115740322D01*
X57764423Y-115740312D01*
X57770099Y-115704476D01*
X57772505Y-115692856D01*
X57781528Y-115657711D01*
X57781528Y-115657710D01*
X57783500Y-115650030D01*
X57783500Y-115629776D01*
X57785051Y-115610065D01*
X57786980Y-115597886D01*
X57788220Y-115590057D01*
X57784059Y-115546038D01*
X57783500Y-115534181D01*
X57783500Y-92814807D01*
X57803502Y-92746686D01*
X57836601Y-92712037D01*
X57872720Y-92686416D01*
X57872725Y-92686412D01*
X57877611Y-92682946D01*
X58023881Y-92530150D01*
X58138620Y-92352452D01*
X58217686Y-92156263D01*
X58258228Y-91948663D01*
X58258500Y-91943101D01*
X58258500Y-90987154D01*
X58243452Y-90829434D01*
X58183908Y-90626466D01*
X58130368Y-90522511D01*
X58089804Y-90443751D01*
X58089802Y-90443748D01*
X58087058Y-90438420D01*
X57956396Y-90272080D01*
X57951865Y-90268148D01*
X57951862Y-90268145D01*
X57801167Y-90137379D01*
X57796637Y-90133448D01*
X57791451Y-90130448D01*
X57791447Y-90130445D01*
X57618742Y-90030533D01*
X57613546Y-90027527D01*
X57413729Y-89958139D01*
X57407794Y-89957278D01*
X57407792Y-89957278D01*
X57210336Y-89928648D01*
X57210333Y-89928648D01*
X57204396Y-89927787D01*
X56993101Y-89937567D01*
X56880466Y-89964712D01*
X56793299Y-89985719D01*
X56793297Y-89985720D01*
X56787466Y-89987125D01*
X56782008Y-89989607D01*
X56782004Y-89989608D01*
X56690990Y-90030990D01*
X56594913Y-90074674D01*
X56422389Y-90197054D01*
X56276119Y-90349850D01*
X56161380Y-90527548D01*
X56082314Y-90723737D01*
X56041772Y-90931337D01*
X56041500Y-90936899D01*
X56041500Y-91892846D01*
X56056548Y-92050566D01*
X56116092Y-92253534D01*
X56118836Y-92258861D01*
X56118836Y-92258862D01*
X56210057Y-92435978D01*
X56212942Y-92441580D01*
X56343604Y-92607920D01*
X56473082Y-92720275D01*
X56511421Y-92780027D01*
X56516500Y-92815439D01*
X56516500Y-115255406D01*
X56496498Y-115323527D01*
X56479595Y-115344501D01*
X53114500Y-118709595D01*
X53052188Y-118743621D01*
X53025405Y-118746500D01*
X51994977Y-118746500D01*
X51926856Y-118726498D01*
X51891768Y-118692774D01*
X51790819Y-118548604D01*
X51631396Y-118389181D01*
X51446711Y-118259864D01*
X51441733Y-118257543D01*
X51441730Y-118257541D01*
X51370219Y-118224195D01*
X51316934Y-118177277D01*
X51297473Y-118109000D01*
X51318015Y-118041040D01*
X51370219Y-117995805D01*
X51441730Y-117962459D01*
X51441733Y-117962457D01*
X51446711Y-117960136D01*
X51631396Y-117830819D01*
X51790819Y-117671396D01*
X51920136Y-117486711D01*
X51933001Y-117459123D01*
X52013096Y-117287358D01*
X52013097Y-117287357D01*
X52015419Y-117282376D01*
X52026598Y-117240658D01*
X52072348Y-117069915D01*
X52072348Y-117069913D01*
X52073772Y-117064600D01*
X52093422Y-116840000D01*
X52073772Y-116615400D01*
X52072348Y-116610085D01*
X52016842Y-116402934D01*
X52016841Y-116402932D01*
X52015419Y-116397624D01*
X52013096Y-116392642D01*
X51922459Y-116198270D01*
X51922457Y-116198267D01*
X51920136Y-116193289D01*
X51790819Y-116008604D01*
X51631396Y-115849181D01*
X51446711Y-115719864D01*
X51441733Y-115717543D01*
X51441730Y-115717541D01*
X51370219Y-115684195D01*
X51316934Y-115637277D01*
X51297473Y-115569000D01*
X51318015Y-115501040D01*
X51370219Y-115455805D01*
X51441730Y-115422459D01*
X51441733Y-115422457D01*
X51446711Y-115420136D01*
X51631396Y-115290819D01*
X51790819Y-115131396D01*
X51920136Y-114946711D01*
X51928604Y-114928553D01*
X52013096Y-114747358D01*
X52013097Y-114747357D01*
X52015419Y-114742376D01*
X52069958Y-114538836D01*
X52072348Y-114529915D01*
X52072348Y-114529913D01*
X52073772Y-114524600D01*
X52093422Y-114300000D01*
X52073772Y-114075400D01*
X52015419Y-113857624D01*
X51920136Y-113653289D01*
X51790819Y-113468604D01*
X51631396Y-113309181D01*
X51446711Y-113179864D01*
X51441733Y-113177543D01*
X51441730Y-113177541D01*
X51370219Y-113144195D01*
X51316934Y-113097277D01*
X51297473Y-113029000D01*
X51318015Y-112961040D01*
X51370219Y-112915805D01*
X51441730Y-112882459D01*
X51441733Y-112882457D01*
X51446711Y-112880136D01*
X51631396Y-112750819D01*
X51790819Y-112591396D01*
X51920136Y-112406711D01*
X52015419Y-112202376D01*
X52073772Y-111984600D01*
X52093422Y-111760000D01*
X52073772Y-111535400D01*
X52015419Y-111317624D01*
X51920136Y-111113289D01*
X51790819Y-110928604D01*
X51631396Y-110769181D01*
X51446711Y-110639864D01*
X51441733Y-110637543D01*
X51441730Y-110637541D01*
X51370219Y-110604195D01*
X51316934Y-110557277D01*
X51297473Y-110489000D01*
X51318015Y-110421040D01*
X51370219Y-110375805D01*
X51441730Y-110342459D01*
X51441733Y-110342457D01*
X51446711Y-110340136D01*
X51631396Y-110210819D01*
X51790819Y-110051396D01*
X51920136Y-109866711D01*
X52015419Y-109662376D01*
X52073772Y-109444600D01*
X52093422Y-109220000D01*
X52073772Y-108995400D01*
X52015419Y-108777624D01*
X51920136Y-108573289D01*
X51790819Y-108388604D01*
X51631396Y-108229181D01*
X51446711Y-108099864D01*
X51441733Y-108097543D01*
X51441730Y-108097541D01*
X51370219Y-108064195D01*
X51316934Y-108017277D01*
X51297473Y-107949000D01*
X51318015Y-107881040D01*
X51370219Y-107835805D01*
X51441730Y-107802459D01*
X51441733Y-107802457D01*
X51446711Y-107800136D01*
X51631396Y-107670819D01*
X51790819Y-107511396D01*
X51920136Y-107326711D01*
X52015419Y-107122376D01*
X52073772Y-106904600D01*
X52093422Y-106680000D01*
X52073772Y-106455400D01*
X52015419Y-106237624D01*
X51920136Y-106033289D01*
X51790819Y-105848604D01*
X51631396Y-105689181D01*
X51583261Y-105655477D01*
X51538934Y-105600021D01*
X51531625Y-105529402D01*
X51563655Y-105466041D01*
X51624857Y-105430056D01*
X51641925Y-105427002D01*
X51652820Y-105425818D01*
X51690316Y-105421745D01*
X51826705Y-105370615D01*
X51943261Y-105283261D01*
X52030615Y-105166705D01*
X52081745Y-105030316D01*
X52088500Y-104968134D01*
X52088500Y-103311866D01*
X52081745Y-103249684D01*
X52030615Y-103113295D01*
X51943261Y-102996739D01*
X51826705Y-102909385D01*
X51690316Y-102858255D01*
X51628134Y-102851500D01*
X50459594Y-102851500D01*
X50391473Y-102831498D01*
X50370499Y-102814595D01*
X47660405Y-100104500D01*
X47626379Y-100042188D01*
X47623500Y-100015405D01*
X47623500Y-92814807D01*
X47643502Y-92746686D01*
X47676601Y-92712037D01*
X47712720Y-92686416D01*
X47712725Y-92686412D01*
X47717611Y-92682946D01*
X47863881Y-92530150D01*
X47978620Y-92352452D01*
X48057686Y-92156263D01*
X48098228Y-91948663D01*
X48098500Y-91943101D01*
X48098500Y-91279594D01*
X48118502Y-91211473D01*
X48135405Y-91190499D01*
X48206405Y-91119499D01*
X48268717Y-91085473D01*
X48339532Y-91090538D01*
X48396368Y-91133085D01*
X48421179Y-91199605D01*
X48421500Y-91208594D01*
X48421500Y-91892846D01*
X48436548Y-92050566D01*
X48496092Y-92253534D01*
X48498836Y-92258861D01*
X48498836Y-92258862D01*
X48590057Y-92435978D01*
X48592942Y-92441580D01*
X48723604Y-92607920D01*
X48728133Y-92611850D01*
X48728138Y-92611855D01*
X48813620Y-92686032D01*
X48883363Y-92746552D01*
X48888549Y-92749552D01*
X48888553Y-92749555D01*
X48984957Y-92805326D01*
X49066454Y-92852473D01*
X49266271Y-92921861D01*
X49272206Y-92922722D01*
X49272208Y-92922722D01*
X49469664Y-92951352D01*
X49469667Y-92951352D01*
X49475604Y-92952213D01*
X49686899Y-92942433D01*
X49818077Y-92910819D01*
X49886701Y-92894281D01*
X49886703Y-92894280D01*
X49892534Y-92892875D01*
X49897992Y-92890393D01*
X49897996Y-92890392D01*
X50013041Y-92838084D01*
X50085087Y-92805326D01*
X50257611Y-92682946D01*
X50403881Y-92530150D01*
X50518620Y-92352452D01*
X50597686Y-92156263D01*
X50638228Y-91948663D01*
X50638500Y-91943101D01*
X50638500Y-91889832D01*
X53502000Y-91889832D01*
X53502285Y-91895808D01*
X53516471Y-92044494D01*
X53518730Y-92056228D01*
X53574872Y-92247599D01*
X53579302Y-92258675D01*
X53670619Y-92435978D01*
X53677069Y-92446024D01*
X53800262Y-92602857D01*
X53808499Y-92611506D01*
X53959123Y-92742212D01*
X53968847Y-92749147D01*
X54141467Y-92849010D01*
X54152331Y-92853984D01*
X54340727Y-92919407D01*
X54341716Y-92919648D01*
X54352008Y-92918180D01*
X54356000Y-92904615D01*
X54356000Y-92900402D01*
X54864000Y-92900402D01*
X54867973Y-92913933D01*
X54877399Y-92915288D01*
X54966537Y-92893806D01*
X54977832Y-92889917D01*
X55159382Y-92807371D01*
X55169724Y-92801424D01*
X55332397Y-92686032D01*
X55341425Y-92678239D01*
X55479342Y-92534169D01*
X55486738Y-92524804D01*
X55594921Y-92357259D01*
X55600417Y-92346655D01*
X55674961Y-92161688D01*
X55678355Y-92150230D01*
X55716857Y-91953072D01*
X55717934Y-91944209D01*
X55718000Y-91941500D01*
X55718000Y-91712115D01*
X55713525Y-91696876D01*
X55712135Y-91695671D01*
X55704452Y-91694000D01*
X54882115Y-91694000D01*
X54866876Y-91698475D01*
X54865671Y-91699865D01*
X54864000Y-91707548D01*
X54864000Y-92900402D01*
X54356000Y-92900402D01*
X54356000Y-91712115D01*
X54351525Y-91696876D01*
X54350135Y-91695671D01*
X54342452Y-91694000D01*
X53520115Y-91694000D01*
X53504876Y-91698475D01*
X53503671Y-91699865D01*
X53502000Y-91707548D01*
X53502000Y-91889832D01*
X50638500Y-91889832D01*
X50638500Y-91167885D01*
X53502000Y-91167885D01*
X53506475Y-91183124D01*
X53507865Y-91184329D01*
X53515548Y-91186000D01*
X54337885Y-91186000D01*
X54353124Y-91181525D01*
X54354329Y-91180135D01*
X54356000Y-91172452D01*
X54356000Y-91167885D01*
X54864000Y-91167885D01*
X54868475Y-91183124D01*
X54869865Y-91184329D01*
X54877548Y-91186000D01*
X55699885Y-91186000D01*
X55715124Y-91181525D01*
X55716329Y-91180135D01*
X55718000Y-91172452D01*
X55718000Y-90990168D01*
X55717715Y-90984192D01*
X55703529Y-90835506D01*
X55701270Y-90823772D01*
X55645128Y-90632401D01*
X55640698Y-90621325D01*
X55549381Y-90444022D01*
X55542931Y-90433976D01*
X55419738Y-90277143D01*
X55411501Y-90268494D01*
X55260877Y-90137788D01*
X55251153Y-90130853D01*
X55078533Y-90030990D01*
X55067669Y-90026016D01*
X54879273Y-89960593D01*
X54878284Y-89960352D01*
X54867992Y-89961820D01*
X54864000Y-89975385D01*
X54864000Y-91167885D01*
X54356000Y-91167885D01*
X54356000Y-89979598D01*
X54352027Y-89966067D01*
X54342601Y-89964712D01*
X54253463Y-89986194D01*
X54242168Y-89990083D01*
X54060618Y-90072629D01*
X54050276Y-90078576D01*
X53887603Y-90193968D01*
X53878575Y-90201761D01*
X53740658Y-90345831D01*
X53733262Y-90355196D01*
X53625079Y-90522741D01*
X53619583Y-90533345D01*
X53545039Y-90718312D01*
X53541645Y-90729770D01*
X53503143Y-90926928D01*
X53502066Y-90935791D01*
X53502000Y-90938500D01*
X53502000Y-91167885D01*
X50638500Y-91167885D01*
X50638500Y-90987154D01*
X50623452Y-90829434D01*
X50563908Y-90626466D01*
X50510368Y-90522511D01*
X50469804Y-90443751D01*
X50469802Y-90443748D01*
X50467058Y-90438420D01*
X50336396Y-90272080D01*
X50331865Y-90268148D01*
X50331862Y-90268145D01*
X50181167Y-90137379D01*
X50176637Y-90133448D01*
X50171451Y-90130448D01*
X50171447Y-90130445D01*
X49998742Y-90030533D01*
X49993546Y-90027527D01*
X49793729Y-89958139D01*
X49787796Y-89957279D01*
X49787793Y-89957278D01*
X49725349Y-89948224D01*
X49670445Y-89940264D01*
X49605900Y-89910694D01*
X49567588Y-89850923D01*
X49567672Y-89779926D01*
X49599431Y-89726473D01*
X49922247Y-89403657D01*
X49930537Y-89396113D01*
X49937018Y-89392000D01*
X49983659Y-89342332D01*
X49986413Y-89339491D01*
X50006134Y-89319770D01*
X50008612Y-89316575D01*
X50016318Y-89307553D01*
X50041158Y-89281101D01*
X50046586Y-89275321D01*
X50056346Y-89257568D01*
X50067199Y-89241045D01*
X50074753Y-89231306D01*
X50079613Y-89225041D01*
X50097176Y-89184457D01*
X50102383Y-89173827D01*
X50123695Y-89135060D01*
X50125666Y-89127383D01*
X50125668Y-89127378D01*
X50128732Y-89115442D01*
X50135138Y-89096730D01*
X50140034Y-89085417D01*
X50143181Y-89078145D01*
X50145637Y-89062643D01*
X50150097Y-89034481D01*
X50152504Y-89022860D01*
X50161528Y-88987711D01*
X50161528Y-88987710D01*
X50163500Y-88980030D01*
X50163500Y-88959769D01*
X50165051Y-88940058D01*
X50166979Y-88927885D01*
X50168219Y-88920057D01*
X50164059Y-88876046D01*
X50163500Y-88864189D01*
X50163500Y-87734807D01*
X50183502Y-87666686D01*
X50216601Y-87632037D01*
X50252720Y-87606416D01*
X50252725Y-87606412D01*
X50257611Y-87602946D01*
X50403881Y-87450150D01*
X50518620Y-87272452D01*
X50597686Y-87076263D01*
X50638228Y-86868663D01*
X50638500Y-86863101D01*
X50638500Y-86812846D01*
X50961500Y-86812846D01*
X50976548Y-86970566D01*
X51036092Y-87173534D01*
X51132942Y-87361580D01*
X51263604Y-87527920D01*
X51268133Y-87531850D01*
X51268138Y-87531855D01*
X51354058Y-87606412D01*
X51423363Y-87666552D01*
X51428549Y-87669552D01*
X51428553Y-87669555D01*
X51540122Y-87734099D01*
X51606454Y-87772473D01*
X51806271Y-87841861D01*
X51812206Y-87842722D01*
X51812208Y-87842722D01*
X52009664Y-87871352D01*
X52009667Y-87871352D01*
X52015604Y-87872213D01*
X52226899Y-87862433D01*
X52358077Y-87830819D01*
X52426701Y-87814281D01*
X52426703Y-87814280D01*
X52432534Y-87812875D01*
X52437992Y-87810393D01*
X52437996Y-87810392D01*
X52555554Y-87756941D01*
X52625087Y-87725326D01*
X52797611Y-87602946D01*
X52943881Y-87450150D01*
X53058620Y-87272452D01*
X53137686Y-87076263D01*
X53178228Y-86868663D01*
X53178500Y-86863101D01*
X53178500Y-85907154D01*
X53163452Y-85749434D01*
X53103908Y-85546466D01*
X53007058Y-85358420D01*
X52876396Y-85192080D01*
X52871865Y-85188148D01*
X52871862Y-85188145D01*
X52721167Y-85057379D01*
X52716637Y-85053448D01*
X52711451Y-85050448D01*
X52711447Y-85050445D01*
X52538742Y-84950533D01*
X52533546Y-84947527D01*
X52333729Y-84878139D01*
X52327794Y-84877278D01*
X52327792Y-84877278D01*
X52130336Y-84848648D01*
X52130333Y-84848648D01*
X52124396Y-84847787D01*
X51913101Y-84857567D01*
X51781923Y-84889181D01*
X51713299Y-84905719D01*
X51713297Y-84905720D01*
X51707466Y-84907125D01*
X51702008Y-84909607D01*
X51702004Y-84909608D01*
X51598810Y-84956528D01*
X51514913Y-84994674D01*
X51342389Y-85117054D01*
X51196119Y-85269850D01*
X51081380Y-85447548D01*
X51002314Y-85643737D01*
X50961772Y-85851337D01*
X50961500Y-85856899D01*
X50961500Y-86812846D01*
X50638500Y-86812846D01*
X50638500Y-85907154D01*
X50623452Y-85749434D01*
X50563908Y-85546466D01*
X50467058Y-85358420D01*
X50336396Y-85192080D01*
X50331865Y-85188148D01*
X50331862Y-85188145D01*
X50181167Y-85057379D01*
X50176637Y-85053448D01*
X50171451Y-85050448D01*
X50171447Y-85050445D01*
X49998742Y-84950533D01*
X49993546Y-84947527D01*
X49793729Y-84878139D01*
X49787794Y-84877278D01*
X49787792Y-84877278D01*
X49590336Y-84848648D01*
X49590333Y-84848648D01*
X49584396Y-84847787D01*
X49373101Y-84857567D01*
X49241923Y-84889181D01*
X49173299Y-84905719D01*
X49173297Y-84905720D01*
X49167466Y-84907125D01*
X49162008Y-84909607D01*
X49162004Y-84909608D01*
X49058810Y-84956528D01*
X48974913Y-84994674D01*
X48802389Y-85117054D01*
X48656119Y-85269850D01*
X48541380Y-85447548D01*
X48462314Y-85643737D01*
X48421772Y-85851337D01*
X48421500Y-85856899D01*
X48421500Y-86812846D01*
X48436548Y-86970566D01*
X48496092Y-87173534D01*
X48592942Y-87361580D01*
X48723604Y-87527920D01*
X48853082Y-87640275D01*
X48891421Y-87700027D01*
X48896500Y-87735439D01*
X48896500Y-88585405D01*
X48876498Y-88653526D01*
X48859595Y-88674500D01*
X47548737Y-89985358D01*
X47486425Y-90019384D01*
X47418309Y-90015290D01*
X47259403Y-89960108D01*
X47259390Y-89960105D01*
X47253729Y-89958139D01*
X47247794Y-89957278D01*
X47247792Y-89957278D01*
X47050336Y-89928648D01*
X47050333Y-89928648D01*
X47044396Y-89927787D01*
X46833101Y-89937567D01*
X46720466Y-89964712D01*
X46633299Y-89985719D01*
X46633297Y-89985720D01*
X46627466Y-89987125D01*
X46622008Y-89989607D01*
X46622004Y-89989608D01*
X46530990Y-90030990D01*
X46434913Y-90074674D01*
X46262389Y-90197054D01*
X46116119Y-90349850D01*
X46001380Y-90527548D01*
X45922314Y-90723737D01*
X45881772Y-90931337D01*
X45881500Y-90936899D01*
X45881500Y-91892846D01*
X45896548Y-92050566D01*
X45956092Y-92253534D01*
X45958836Y-92258861D01*
X45958836Y-92258862D01*
X46050057Y-92435978D01*
X46052942Y-92441580D01*
X46183604Y-92607920D01*
X46313082Y-92720275D01*
X46351421Y-92780027D01*
X46356500Y-92815439D01*
X46356500Y-100251233D01*
X46355973Y-100262416D01*
X46354298Y-100269909D01*
X46354547Y-100277835D01*
X46354547Y-100277836D01*
X46356438Y-100337986D01*
X46356500Y-100341945D01*
X46356500Y-100369856D01*
X46356997Y-100373790D01*
X46356997Y-100373791D01*
X46357005Y-100373856D01*
X46357938Y-100385693D01*
X46359327Y-100429889D01*
X46364978Y-100449339D01*
X46368987Y-100468700D01*
X46371526Y-100488797D01*
X46374445Y-100496168D01*
X46374445Y-100496170D01*
X46387804Y-100529912D01*
X46391649Y-100541142D01*
X46403982Y-100583593D01*
X46408015Y-100590412D01*
X46408017Y-100590417D01*
X46414293Y-100601028D01*
X46422988Y-100618776D01*
X46430448Y-100637617D01*
X46435110Y-100644033D01*
X46435110Y-100644034D01*
X46456436Y-100673387D01*
X46462952Y-100683307D01*
X46485458Y-100721362D01*
X46499779Y-100735683D01*
X46512619Y-100750716D01*
X46524528Y-100767107D01*
X46530634Y-100772158D01*
X46558605Y-100795298D01*
X46567384Y-100803288D01*
X49474595Y-103710499D01*
X49508621Y-103772811D01*
X49511500Y-103799594D01*
X49511500Y-104968134D01*
X49518255Y-105030316D01*
X49569385Y-105166705D01*
X49656739Y-105283261D01*
X49773295Y-105370615D01*
X49909684Y-105421745D01*
X49947180Y-105425818D01*
X49958075Y-105427002D01*
X50023637Y-105454244D01*
X50064063Y-105512607D01*
X50066518Y-105583561D01*
X50030223Y-105644579D01*
X50016743Y-105655474D01*
X49968604Y-105689181D01*
X49809181Y-105848604D01*
X49679864Y-106033289D01*
X49584581Y-106237624D01*
X49526228Y-106455400D01*
X49506578Y-106680000D01*
X49526228Y-106904600D01*
X49584581Y-107122376D01*
X49679864Y-107326711D01*
X49809181Y-107511396D01*
X49968604Y-107670819D01*
X50153289Y-107800136D01*
X50158267Y-107802457D01*
X50158270Y-107802459D01*
X50229781Y-107835805D01*
X50283066Y-107882723D01*
X50302527Y-107951000D01*
X50281985Y-108018960D01*
X50229781Y-108064195D01*
X50158270Y-108097541D01*
X50158267Y-108097543D01*
X50153289Y-108099864D01*
X49968604Y-108229181D01*
X49809181Y-108388604D01*
X49679864Y-108573289D01*
X49584581Y-108777624D01*
X49526228Y-108995400D01*
X49506578Y-109220000D01*
X49526228Y-109444600D01*
X49584581Y-109662376D01*
X49679864Y-109866711D01*
X49809181Y-110051396D01*
X49968604Y-110210819D01*
X50153289Y-110340136D01*
X50158267Y-110342457D01*
X50158270Y-110342459D01*
X50229781Y-110375805D01*
X50283066Y-110422723D01*
X50302527Y-110491000D01*
X50281985Y-110558960D01*
X50229781Y-110604195D01*
X50158270Y-110637541D01*
X50158267Y-110637543D01*
X50153289Y-110639864D01*
X49968604Y-110769181D01*
X49809181Y-110928604D01*
X49679864Y-111113289D01*
X49584581Y-111317624D01*
X49526228Y-111535400D01*
X49506578Y-111760000D01*
X49526228Y-111984600D01*
X49584581Y-112202376D01*
X49679864Y-112406711D01*
X49809181Y-112591396D01*
X49968604Y-112750819D01*
X50153289Y-112880136D01*
X50158267Y-112882457D01*
X50158270Y-112882459D01*
X50229781Y-112915805D01*
X50283066Y-112962723D01*
X50302527Y-113031000D01*
X50281985Y-113098960D01*
X50229781Y-113144195D01*
X50158270Y-113177541D01*
X50158267Y-113177543D01*
X50153289Y-113179864D01*
X49968604Y-113309181D01*
X49809181Y-113468604D01*
X49679864Y-113653289D01*
X49584581Y-113857624D01*
X49526228Y-114075400D01*
X49506578Y-114300000D01*
X49526228Y-114524600D01*
X49527652Y-114529913D01*
X49527652Y-114529915D01*
X49530043Y-114538836D01*
X49584581Y-114742376D01*
X49586903Y-114747357D01*
X49586904Y-114747358D01*
X49671397Y-114928553D01*
X49679864Y-114946711D01*
X49809181Y-115131396D01*
X49968604Y-115290819D01*
X50153289Y-115420136D01*
X50158267Y-115422457D01*
X50158270Y-115422459D01*
X50229781Y-115455805D01*
X50283066Y-115502723D01*
X50302527Y-115571000D01*
X50281985Y-115638960D01*
X50229781Y-115684195D01*
X50158270Y-115717541D01*
X50158267Y-115717543D01*
X50153289Y-115719864D01*
X49968604Y-115849181D01*
X49809181Y-116008604D01*
X49679864Y-116193289D01*
X49677543Y-116198267D01*
X49677541Y-116198270D01*
X49586904Y-116392642D01*
X49584581Y-116397624D01*
X49583159Y-116402932D01*
X49583158Y-116402934D01*
X49527652Y-116610085D01*
X49526228Y-116615400D01*
X49506578Y-116840000D01*
X49526228Y-117064600D01*
X49527652Y-117069913D01*
X49527652Y-117069915D01*
X49573403Y-117240658D01*
X49584581Y-117282376D01*
X49586903Y-117287357D01*
X49586904Y-117287358D01*
X49667000Y-117459123D01*
X49679864Y-117486711D01*
X49809181Y-117671396D01*
X49968604Y-117830819D01*
X50153289Y-117960136D01*
X50158267Y-117962457D01*
X50158270Y-117962459D01*
X50229781Y-117995805D01*
X50283066Y-118042723D01*
X50302527Y-118111000D01*
X50281985Y-118178960D01*
X50229781Y-118224195D01*
X50158270Y-118257541D01*
X50158267Y-118257543D01*
X50153289Y-118259864D01*
X49968604Y-118389181D01*
X49809181Y-118548604D01*
X49679864Y-118733289D01*
X49677543Y-118738267D01*
X49677541Y-118738270D01*
X49639418Y-118820026D01*
X49584581Y-118937624D01*
X49583159Y-118942932D01*
X49583158Y-118942934D01*
X49535122Y-119122208D01*
X49526228Y-119155400D01*
X49506578Y-119380000D01*
X49526228Y-119604600D01*
X49527652Y-119609913D01*
X49527652Y-119609915D01*
X49581639Y-119811395D01*
X49584581Y-119822376D01*
X49586903Y-119827357D01*
X49586904Y-119827358D01*
X49673733Y-120013562D01*
X49679864Y-120026711D01*
X49809181Y-120211396D01*
X49968604Y-120370819D01*
X50153289Y-120500136D01*
X50158267Y-120502457D01*
X50158270Y-120502459D01*
X50229781Y-120535805D01*
X50283066Y-120582723D01*
X50302527Y-120651000D01*
X50281985Y-120718960D01*
X50229781Y-120764195D01*
X50158270Y-120797541D01*
X50158267Y-120797543D01*
X50153289Y-120799864D01*
X49968604Y-120929181D01*
X49809181Y-121088604D01*
X49679864Y-121273289D01*
X49584581Y-121477624D01*
X49583159Y-121482932D01*
X49583158Y-121482934D01*
X49535122Y-121662208D01*
X49526228Y-121695400D01*
X49506578Y-121920000D01*
X49526228Y-122144600D01*
X49527652Y-122149913D01*
X49527652Y-122149915D01*
X49536713Y-122183729D01*
X49584581Y-122362376D01*
X49679864Y-122566711D01*
X49809181Y-122751396D01*
X49968604Y-122910819D01*
X50153289Y-123040136D01*
X50158267Y-123042457D01*
X50158270Y-123042459D01*
X50229781Y-123075805D01*
X50283066Y-123122723D01*
X50302527Y-123191000D01*
X50281985Y-123258960D01*
X50229781Y-123304195D01*
X50158270Y-123337541D01*
X50158267Y-123337543D01*
X50153289Y-123339864D01*
X49968604Y-123469181D01*
X49809181Y-123628604D01*
X49679864Y-123813289D01*
X49677543Y-123818267D01*
X49677541Y-123818270D01*
X49596778Y-123991467D01*
X49584581Y-124017624D01*
X49583159Y-124022932D01*
X49583158Y-124022934D01*
X49538198Y-124190727D01*
X49526228Y-124235400D01*
X49506578Y-124460000D01*
X49526228Y-124684600D01*
X49527652Y-124689913D01*
X49527652Y-124689915D01*
X49538960Y-124732115D01*
X49584581Y-124902376D01*
X49586903Y-124907357D01*
X49586904Y-124907358D01*
X49634479Y-125009382D01*
X49679864Y-125106711D01*
X49809181Y-125291396D01*
X49968604Y-125450819D01*
X50153289Y-125580136D01*
X50158267Y-125582457D01*
X50158270Y-125582459D01*
X50229781Y-125615805D01*
X50283066Y-125662723D01*
X50302527Y-125731000D01*
X50281985Y-125798960D01*
X50229781Y-125844195D01*
X50158270Y-125877541D01*
X50158267Y-125877543D01*
X50153289Y-125879864D01*
X49968604Y-126009181D01*
X49809181Y-126168604D01*
X49679864Y-126353289D01*
X49677543Y-126358267D01*
X49677541Y-126358270D01*
X49639418Y-126440026D01*
X49584581Y-126557624D01*
X49583159Y-126562932D01*
X49583158Y-126562934D01*
X49535122Y-126742208D01*
X49526228Y-126775400D01*
X49506578Y-127000000D01*
X49526228Y-127224600D01*
X49527652Y-127229913D01*
X49527652Y-127229915D01*
X49581639Y-127431395D01*
X49584581Y-127442376D01*
X49586903Y-127447357D01*
X49586904Y-127447358D01*
X49673733Y-127633562D01*
X49679864Y-127646711D01*
X49809181Y-127831396D01*
X49968604Y-127990819D01*
X50153289Y-128120136D01*
X50158267Y-128122457D01*
X50158270Y-128122459D01*
X50229781Y-128155805D01*
X50283066Y-128202723D01*
X50302527Y-128271000D01*
X50281985Y-128338960D01*
X50229781Y-128384195D01*
X50158270Y-128417541D01*
X50158267Y-128417543D01*
X50153289Y-128419864D01*
X49968604Y-128549181D01*
X49809181Y-128708604D01*
X49679864Y-128893289D01*
X49584581Y-129097624D01*
X49526228Y-129315400D01*
X49506578Y-129540000D01*
X49526228Y-129764600D01*
X49527652Y-129769913D01*
X49527652Y-129769915D01*
X49530043Y-129778836D01*
X49584581Y-129982376D01*
X49586903Y-129987357D01*
X49586904Y-129987358D01*
X49677452Y-130181538D01*
X49679864Y-130186711D01*
X49809181Y-130371396D01*
X49968604Y-130530819D01*
X50153289Y-130660136D01*
X50158267Y-130662457D01*
X50158270Y-130662459D01*
X50229781Y-130695805D01*
X50283066Y-130742723D01*
X50302527Y-130811000D01*
X50281985Y-130878960D01*
X50229781Y-130924195D01*
X50158270Y-130957541D01*
X50158267Y-130957543D01*
X50153289Y-130959864D01*
X49968604Y-131089181D01*
X49809181Y-131248604D01*
X49679864Y-131433289D01*
X49677543Y-131438267D01*
X49677541Y-131438270D01*
X49586904Y-131632642D01*
X49584581Y-131637624D01*
X49583159Y-131642932D01*
X49583158Y-131642934D01*
X49527652Y-131850085D01*
X49526228Y-131855400D01*
X49506578Y-132080000D01*
X49526228Y-132304600D01*
X49527652Y-132309913D01*
X49527652Y-132309915D01*
X49573403Y-132480658D01*
X49584581Y-132522376D01*
X49586903Y-132527357D01*
X49586904Y-132527358D01*
X49667000Y-132699123D01*
X49679864Y-132726711D01*
X49809181Y-132911396D01*
X49968604Y-133070819D01*
X50153289Y-133200136D01*
X50158267Y-133202457D01*
X50158270Y-133202459D01*
X50229781Y-133235805D01*
X50283066Y-133282723D01*
X50302527Y-133351000D01*
X50281985Y-133418960D01*
X50229781Y-133464195D01*
X50158270Y-133497541D01*
X50158267Y-133497543D01*
X50153289Y-133499864D01*
X49968604Y-133629181D01*
X49809181Y-133788604D01*
X49679864Y-133973289D01*
X49677543Y-133978267D01*
X49677541Y-133978270D01*
X49633649Y-134072397D01*
X49584581Y-134177624D01*
X49583159Y-134182932D01*
X49583158Y-134182934D01*
X49571421Y-134226738D01*
X49526228Y-134395400D01*
X49506578Y-134620000D01*
X49526228Y-134844600D01*
X49527652Y-134849913D01*
X49527652Y-134849915D01*
X49530043Y-134858836D01*
X49584581Y-135062376D01*
X49586903Y-135067357D01*
X49586904Y-135067358D01*
X49671397Y-135248553D01*
X49679864Y-135266711D01*
X49809181Y-135451396D01*
X49968604Y-135610819D01*
X50153289Y-135740136D01*
X50158267Y-135742457D01*
X50158270Y-135742459D01*
X50229781Y-135775805D01*
X50283066Y-135822723D01*
X50302527Y-135891000D01*
X50281985Y-135958960D01*
X50229781Y-136004195D01*
X50158270Y-136037541D01*
X50158267Y-136037543D01*
X50153289Y-136039864D01*
X49968604Y-136169181D01*
X49809181Y-136328604D01*
X49679864Y-136513289D01*
X49677543Y-136518267D01*
X49677541Y-136518270D01*
X49586904Y-136712642D01*
X49584581Y-136717624D01*
X49583159Y-136722932D01*
X49583158Y-136722934D01*
X49527652Y-136930085D01*
X49526228Y-136935400D01*
X49506578Y-137160000D01*
X49526228Y-137384600D01*
X49527652Y-137389913D01*
X49527652Y-137389915D01*
X49530043Y-137398836D01*
X49584581Y-137602376D01*
X49586903Y-137607357D01*
X49586904Y-137607358D01*
X49671397Y-137788553D01*
X49679864Y-137806711D01*
X49809181Y-137991396D01*
X49968604Y-138150819D01*
X50153289Y-138280136D01*
X50158267Y-138282457D01*
X50158270Y-138282459D01*
X50229781Y-138315805D01*
X50283066Y-138362723D01*
X50302527Y-138431000D01*
X50281985Y-138498960D01*
X50229781Y-138544195D01*
X50158270Y-138577541D01*
X50158267Y-138577543D01*
X50153289Y-138579864D01*
X49968604Y-138709181D01*
X49809181Y-138868604D01*
X49679864Y-139053289D01*
X49677543Y-139058267D01*
X49677541Y-139058270D01*
X49586904Y-139252642D01*
X49584581Y-139257624D01*
X49583159Y-139262932D01*
X49583158Y-139262934D01*
X49527652Y-139470085D01*
X49526228Y-139475400D01*
X49506578Y-139700000D01*
X49526228Y-139924600D01*
X49527652Y-139929913D01*
X49527652Y-139929915D01*
X49530043Y-139938836D01*
X49584581Y-140142376D01*
X49586903Y-140147357D01*
X49586904Y-140147358D01*
X49671397Y-140328553D01*
X49679864Y-140346711D01*
X49809181Y-140531396D01*
X49968604Y-140690819D01*
X50153289Y-140820136D01*
X50158267Y-140822457D01*
X50158270Y-140822459D01*
X50229781Y-140855805D01*
X50283066Y-140902723D01*
X50302527Y-140971000D01*
X50281985Y-141038960D01*
X50229781Y-141084195D01*
X50158270Y-141117541D01*
X50158267Y-141117543D01*
X50153289Y-141119864D01*
X49968604Y-141249181D01*
X49809181Y-141408604D01*
X49679864Y-141593289D01*
X49677543Y-141598267D01*
X49677541Y-141598270D01*
X49586904Y-141792642D01*
X49584581Y-141797624D01*
X49583159Y-141802932D01*
X49583158Y-141802934D01*
X49527652Y-142010085D01*
X49526228Y-142015400D01*
X49506578Y-142240000D01*
X49526228Y-142464600D01*
X49527652Y-142469913D01*
X49527652Y-142469915D01*
X49530043Y-142478836D01*
X49584581Y-142682376D01*
X49586903Y-142687357D01*
X49586904Y-142687358D01*
X49671397Y-142868553D01*
X49679864Y-142886711D01*
X49809181Y-143071396D01*
X49968604Y-143230819D01*
X50153289Y-143360136D01*
X50158267Y-143362457D01*
X50158270Y-143362459D01*
X50229781Y-143395805D01*
X50283066Y-143442723D01*
X50302527Y-143511000D01*
X50281985Y-143578960D01*
X50229781Y-143624195D01*
X50158270Y-143657541D01*
X50158267Y-143657543D01*
X50153289Y-143659864D01*
X49968604Y-143789181D01*
X49809181Y-143948604D01*
X49679864Y-144133289D01*
X49677543Y-144138267D01*
X49677541Y-144138270D01*
X49586904Y-144332642D01*
X49584581Y-144337624D01*
X49583159Y-144342932D01*
X49583158Y-144342934D01*
X49527652Y-144550085D01*
X49526228Y-144555400D01*
X49506578Y-144780000D01*
X49526228Y-145004600D01*
X49527652Y-145009913D01*
X49527652Y-145009915D01*
X49530043Y-145018836D01*
X49584581Y-145222376D01*
X49586903Y-145227357D01*
X49586904Y-145227358D01*
X49671397Y-145408553D01*
X49679864Y-145426711D01*
X49809181Y-145611396D01*
X49968604Y-145770819D01*
X50153289Y-145900136D01*
X50158267Y-145902457D01*
X50158270Y-145902459D01*
X50229781Y-145935805D01*
X50283066Y-145982723D01*
X50302527Y-146051000D01*
X50281985Y-146118960D01*
X50229781Y-146164195D01*
X50158270Y-146197541D01*
X50158267Y-146197543D01*
X50153289Y-146199864D01*
X49968604Y-146329181D01*
X49809181Y-146488604D01*
X49679864Y-146673289D01*
X49677543Y-146678267D01*
X49677541Y-146678270D01*
X49586904Y-146872642D01*
X49584581Y-146877624D01*
X49583159Y-146882932D01*
X49583158Y-146882934D01*
X49527652Y-147090085D01*
X49526228Y-147095400D01*
X49506578Y-147320000D01*
X49526228Y-147544600D01*
X49527652Y-147549913D01*
X49527652Y-147549915D01*
X49530043Y-147558836D01*
X49584581Y-147762376D01*
X49586903Y-147767357D01*
X49586904Y-147767358D01*
X49671397Y-147948553D01*
X49679864Y-147966711D01*
X49809181Y-148151396D01*
X49968604Y-148310819D01*
X50153289Y-148440136D01*
X50158267Y-148442457D01*
X50158270Y-148442459D01*
X50229781Y-148475805D01*
X50283066Y-148522723D01*
X50302527Y-148591000D01*
X50281985Y-148658960D01*
X50229781Y-148704195D01*
X50158270Y-148737541D01*
X50158267Y-148737543D01*
X50153289Y-148739864D01*
X49968604Y-148869181D01*
X49809181Y-149028604D01*
X49708234Y-149172773D01*
X49652780Y-149217099D01*
X49605023Y-149226500D01*
X46479500Y-149226500D01*
X46411379Y-149206498D01*
X46364886Y-149152842D01*
X46353500Y-149100500D01*
X46353500Y-128181070D01*
X46373502Y-128112949D01*
X46427158Y-128066456D01*
X46444028Y-128060166D01*
X46533534Y-128033908D01*
X46617197Y-127990819D01*
X46716249Y-127939804D01*
X46716252Y-127939802D01*
X46721580Y-127937058D01*
X46887920Y-127806396D01*
X46891852Y-127801865D01*
X46891855Y-127801862D01*
X47010446Y-127665198D01*
X47026552Y-127646637D01*
X47029552Y-127641451D01*
X47029555Y-127641447D01*
X47129467Y-127468742D01*
X47132473Y-127463546D01*
X47201861Y-127263729D01*
X47206764Y-127229915D01*
X47231352Y-127060336D01*
X47231352Y-127060333D01*
X47232213Y-127054396D01*
X47222433Y-126843101D01*
X47172875Y-126637466D01*
X47129525Y-126542122D01*
X47087806Y-126450368D01*
X47085326Y-126444913D01*
X46962946Y-126272389D01*
X46810150Y-126126119D01*
X46632452Y-126011380D01*
X46572354Y-125987160D01*
X46441832Y-125934558D01*
X46441829Y-125934557D01*
X46436263Y-125932314D01*
X46228663Y-125891772D01*
X46223101Y-125891500D01*
X45267154Y-125891500D01*
X45109434Y-125906548D01*
X44906466Y-125966092D01*
X44901139Y-125968836D01*
X44901138Y-125968836D01*
X44723751Y-126060196D01*
X44723748Y-126060198D01*
X44718420Y-126062942D01*
X44552080Y-126193604D01*
X44548148Y-126198135D01*
X44548145Y-126198138D01*
X44479474Y-126277275D01*
X44413448Y-126353363D01*
X44410448Y-126358549D01*
X44410445Y-126358553D01*
X44405848Y-126366500D01*
X44307527Y-126536454D01*
X44238139Y-126736271D01*
X44237278Y-126742206D01*
X44237278Y-126742208D01*
X44232466Y-126775400D01*
X44207787Y-126945604D01*
X38608500Y-126945604D01*
X38608500Y-124727399D01*
X44244712Y-124727399D01*
X44266194Y-124816537D01*
X44270083Y-124827832D01*
X44352629Y-125009382D01*
X44358576Y-125019724D01*
X44473968Y-125182397D01*
X44481761Y-125191425D01*
X44625831Y-125329342D01*
X44635196Y-125336738D01*
X44802741Y-125444921D01*
X44813345Y-125450417D01*
X44998312Y-125524961D01*
X45009770Y-125528355D01*
X45206928Y-125566857D01*
X45215791Y-125567934D01*
X45218500Y-125568000D01*
X45447885Y-125568000D01*
X45463124Y-125563525D01*
X45464329Y-125562135D01*
X45466000Y-125554452D01*
X45466000Y-125549885D01*
X45974000Y-125549885D01*
X45978475Y-125565124D01*
X45979865Y-125566329D01*
X45987548Y-125568000D01*
X46169832Y-125568000D01*
X46175808Y-125567715D01*
X46324494Y-125553529D01*
X46336228Y-125551270D01*
X46527599Y-125495128D01*
X46538675Y-125490698D01*
X46715978Y-125399381D01*
X46726024Y-125392931D01*
X46882857Y-125269738D01*
X46891506Y-125261501D01*
X47022212Y-125110877D01*
X47029147Y-125101153D01*
X47129010Y-124928533D01*
X47133984Y-124917669D01*
X47199407Y-124729273D01*
X47199648Y-124728284D01*
X47198180Y-124717992D01*
X47184615Y-124714000D01*
X45992115Y-124714000D01*
X45976876Y-124718475D01*
X45975671Y-124719865D01*
X45974000Y-124727548D01*
X45974000Y-125549885D01*
X45466000Y-125549885D01*
X45466000Y-124732115D01*
X45461525Y-124716876D01*
X45460135Y-124715671D01*
X45452452Y-124714000D01*
X44259598Y-124714000D01*
X44246067Y-124717973D01*
X44244712Y-124727399D01*
X38608500Y-124727399D01*
X38608500Y-124191716D01*
X44240352Y-124191716D01*
X44241820Y-124202008D01*
X44255385Y-124206000D01*
X45447885Y-124206000D01*
X45463124Y-124201525D01*
X45464329Y-124200135D01*
X45466000Y-124192452D01*
X45466000Y-124187885D01*
X45974000Y-124187885D01*
X45978475Y-124203124D01*
X45979865Y-124204329D01*
X45987548Y-124206000D01*
X47180402Y-124206000D01*
X47193933Y-124202027D01*
X47195288Y-124192601D01*
X47173806Y-124103463D01*
X47169917Y-124092168D01*
X47087371Y-123910618D01*
X47081424Y-123900276D01*
X46966032Y-123737603D01*
X46958239Y-123728575D01*
X46814169Y-123590658D01*
X46804804Y-123583262D01*
X46637259Y-123475079D01*
X46626655Y-123469583D01*
X46441688Y-123395039D01*
X46430230Y-123391645D01*
X46233072Y-123353143D01*
X46224209Y-123352066D01*
X46221500Y-123352000D01*
X45992115Y-123352000D01*
X45976876Y-123356475D01*
X45975671Y-123357865D01*
X45974000Y-123365548D01*
X45974000Y-124187885D01*
X45466000Y-124187885D01*
X45466000Y-123370115D01*
X45461525Y-123354876D01*
X45460135Y-123353671D01*
X45452452Y-123352000D01*
X45270168Y-123352000D01*
X45264192Y-123352285D01*
X45115506Y-123366471D01*
X45103772Y-123368730D01*
X44912401Y-123424872D01*
X44901325Y-123429302D01*
X44724022Y-123520619D01*
X44713976Y-123527069D01*
X44557143Y-123650262D01*
X44548494Y-123658499D01*
X44417788Y-123809123D01*
X44410853Y-123818847D01*
X44310990Y-123991467D01*
X44306016Y-124002331D01*
X44240593Y-124190727D01*
X44240352Y-124191716D01*
X38608500Y-124191716D01*
X38608500Y-121865604D01*
X44207787Y-121865604D01*
X44217567Y-122076899D01*
X44267125Y-122282534D01*
X44269607Y-122287992D01*
X44269608Y-122287996D01*
X44313053Y-122383546D01*
X44354674Y-122475087D01*
X44477054Y-122647611D01*
X44629850Y-122793881D01*
X44807548Y-122908620D01*
X44813114Y-122910863D01*
X44998168Y-122985442D01*
X44998171Y-122985443D01*
X45003737Y-122987686D01*
X45211337Y-123028228D01*
X45216899Y-123028500D01*
X46172846Y-123028500D01*
X46330566Y-123013452D01*
X46533534Y-122953908D01*
X46617197Y-122910819D01*
X46716249Y-122859804D01*
X46716252Y-122859802D01*
X46721580Y-122857058D01*
X46887920Y-122726396D01*
X46891852Y-122721865D01*
X46891855Y-122721862D01*
X47010446Y-122585198D01*
X47026552Y-122566637D01*
X47029552Y-122561451D01*
X47029555Y-122561447D01*
X47129467Y-122388742D01*
X47132473Y-122383546D01*
X47201861Y-122183729D01*
X47206764Y-122149915D01*
X47231352Y-121980336D01*
X47231352Y-121980333D01*
X47232213Y-121974396D01*
X47222433Y-121763101D01*
X47172875Y-121557466D01*
X47129525Y-121462122D01*
X47087806Y-121370368D01*
X47085326Y-121364913D01*
X46962946Y-121192389D01*
X46810150Y-121046119D01*
X46632452Y-120931380D01*
X46572354Y-120907160D01*
X46441832Y-120854558D01*
X46441829Y-120854557D01*
X46436263Y-120852314D01*
X46228663Y-120811772D01*
X46223101Y-120811500D01*
X45267154Y-120811500D01*
X45109434Y-120826548D01*
X44906466Y-120886092D01*
X44901139Y-120888836D01*
X44901138Y-120888836D01*
X44723751Y-120980196D01*
X44723748Y-120980198D01*
X44718420Y-120982942D01*
X44552080Y-121113604D01*
X44548148Y-121118135D01*
X44548145Y-121118138D01*
X44479474Y-121197275D01*
X44413448Y-121273363D01*
X44410448Y-121278549D01*
X44410445Y-121278553D01*
X44363312Y-121360026D01*
X44307527Y-121456454D01*
X44238139Y-121656271D01*
X44237278Y-121662206D01*
X44237278Y-121662208D01*
X44232466Y-121695400D01*
X44207787Y-121865604D01*
X38608500Y-121865604D01*
X38608500Y-118377399D01*
X44244712Y-118377399D01*
X44266194Y-118466537D01*
X44270083Y-118477832D01*
X44352629Y-118659382D01*
X44358576Y-118669724D01*
X44473968Y-118832397D01*
X44481761Y-118841425D01*
X44625831Y-118979342D01*
X44635196Y-118986738D01*
X44802741Y-119094921D01*
X44813345Y-119100417D01*
X44998312Y-119174961D01*
X45009770Y-119178355D01*
X45206928Y-119216857D01*
X45215791Y-119217934D01*
X45218500Y-119218000D01*
X45447885Y-119218000D01*
X45463124Y-119213525D01*
X45464329Y-119212135D01*
X45466000Y-119204452D01*
X45466000Y-119199885D01*
X45974000Y-119199885D01*
X45978475Y-119215124D01*
X45979865Y-119216329D01*
X45987548Y-119218000D01*
X46169832Y-119218000D01*
X46175808Y-119217715D01*
X46324494Y-119203529D01*
X46336228Y-119201270D01*
X46527599Y-119145128D01*
X46538675Y-119140698D01*
X46715978Y-119049381D01*
X46726024Y-119042931D01*
X46882857Y-118919738D01*
X46891506Y-118911501D01*
X47022212Y-118760877D01*
X47029147Y-118751153D01*
X47129010Y-118578533D01*
X47133984Y-118567669D01*
X47199407Y-118379273D01*
X47199648Y-118378284D01*
X47198180Y-118367992D01*
X47184615Y-118364000D01*
X45992115Y-118364000D01*
X45976876Y-118368475D01*
X45975671Y-118369865D01*
X45974000Y-118377548D01*
X45974000Y-119199885D01*
X45466000Y-119199885D01*
X45466000Y-118382115D01*
X45461525Y-118366876D01*
X45460135Y-118365671D01*
X45452452Y-118364000D01*
X44259598Y-118364000D01*
X44246067Y-118367973D01*
X44244712Y-118377399D01*
X38608500Y-118377399D01*
X38608500Y-117841716D01*
X44240352Y-117841716D01*
X44241820Y-117852008D01*
X44255385Y-117856000D01*
X45447885Y-117856000D01*
X45463124Y-117851525D01*
X45464329Y-117850135D01*
X45466000Y-117842452D01*
X45466000Y-117837885D01*
X45974000Y-117837885D01*
X45978475Y-117853124D01*
X45979865Y-117854329D01*
X45987548Y-117856000D01*
X47180402Y-117856000D01*
X47193933Y-117852027D01*
X47195288Y-117842601D01*
X47173806Y-117753463D01*
X47169917Y-117742168D01*
X47087371Y-117560618D01*
X47081424Y-117550276D01*
X46966032Y-117387603D01*
X46958239Y-117378575D01*
X46814169Y-117240658D01*
X46804804Y-117233262D01*
X46637259Y-117125079D01*
X46626655Y-117119583D01*
X46441688Y-117045039D01*
X46430230Y-117041645D01*
X46233072Y-117003143D01*
X46224209Y-117002066D01*
X46221500Y-117002000D01*
X45992115Y-117002000D01*
X45976876Y-117006475D01*
X45975671Y-117007865D01*
X45974000Y-117015548D01*
X45974000Y-117837885D01*
X45466000Y-117837885D01*
X45466000Y-117020115D01*
X45461525Y-117004876D01*
X45460135Y-117003671D01*
X45452452Y-117002000D01*
X45270168Y-117002000D01*
X45264192Y-117002285D01*
X45115506Y-117016471D01*
X45103772Y-117018730D01*
X44912401Y-117074872D01*
X44901325Y-117079302D01*
X44724022Y-117170619D01*
X44713976Y-117177069D01*
X44557143Y-117300262D01*
X44548494Y-117308499D01*
X44417788Y-117459123D01*
X44410853Y-117468847D01*
X44310990Y-117641467D01*
X44306016Y-117652331D01*
X44240593Y-117840727D01*
X44240352Y-117841716D01*
X38608500Y-117841716D01*
X38608500Y-115515604D01*
X44207787Y-115515604D01*
X44217567Y-115726899D01*
X44218971Y-115732724D01*
X44218971Y-115732725D01*
X44247976Y-115853076D01*
X44267125Y-115932534D01*
X44269607Y-115937992D01*
X44269608Y-115937996D01*
X44313053Y-116033546D01*
X44354674Y-116125087D01*
X44477054Y-116297611D01*
X44629850Y-116443881D01*
X44807548Y-116558620D01*
X44813114Y-116560863D01*
X44998168Y-116635442D01*
X44998171Y-116635443D01*
X45003737Y-116637686D01*
X45211337Y-116678228D01*
X45216899Y-116678500D01*
X46172846Y-116678500D01*
X46330566Y-116663452D01*
X46533534Y-116603908D01*
X46617111Y-116560863D01*
X46716249Y-116509804D01*
X46716252Y-116509802D01*
X46721580Y-116507058D01*
X46887920Y-116376396D01*
X46891852Y-116371865D01*
X46891855Y-116371862D01*
X47022621Y-116221167D01*
X47026552Y-116216637D01*
X47029552Y-116211451D01*
X47029555Y-116211447D01*
X47129467Y-116038742D01*
X47132473Y-116033546D01*
X47201861Y-115833729D01*
X47208863Y-115785438D01*
X47231352Y-115630336D01*
X47231352Y-115630333D01*
X47232213Y-115624396D01*
X47222433Y-115413101D01*
X47172875Y-115207466D01*
X47136237Y-115126884D01*
X47087806Y-115020368D01*
X47085326Y-115014913D01*
X46962946Y-114842389D01*
X46810150Y-114696119D01*
X46632452Y-114581380D01*
X46572354Y-114557160D01*
X46441832Y-114504558D01*
X46441829Y-114504557D01*
X46436263Y-114502314D01*
X46228663Y-114461772D01*
X46223101Y-114461500D01*
X45267154Y-114461500D01*
X45109434Y-114476548D01*
X44906466Y-114536092D01*
X44901139Y-114538836D01*
X44901138Y-114538836D01*
X44723751Y-114630196D01*
X44723748Y-114630198D01*
X44718420Y-114632942D01*
X44552080Y-114763604D01*
X44548148Y-114768135D01*
X44548145Y-114768138D01*
X44479474Y-114847275D01*
X44413448Y-114923363D01*
X44410448Y-114928549D01*
X44410445Y-114928553D01*
X44363312Y-115010026D01*
X44307527Y-115106454D01*
X44238139Y-115306271D01*
X44237278Y-115312206D01*
X44237278Y-115312208D01*
X44209655Y-115502723D01*
X44207787Y-115515604D01*
X38608500Y-115515604D01*
X38608500Y-90115604D01*
X39127787Y-90115604D01*
X39137567Y-90326899D01*
X39138971Y-90332724D01*
X39138971Y-90332725D01*
X39165794Y-90444022D01*
X39187125Y-90532534D01*
X39189607Y-90537992D01*
X39189608Y-90537996D01*
X39232447Y-90632214D01*
X39274674Y-90725087D01*
X39397054Y-90897611D01*
X39549850Y-91043881D01*
X39727548Y-91158620D01*
X39733114Y-91160863D01*
X39918168Y-91235442D01*
X39918171Y-91235443D01*
X39923737Y-91237686D01*
X40131337Y-91278228D01*
X40136899Y-91278500D01*
X41092846Y-91278500D01*
X41250566Y-91263452D01*
X41453534Y-91203908D01*
X41493889Y-91183124D01*
X41636249Y-91109804D01*
X41636252Y-91109802D01*
X41641580Y-91107058D01*
X41807920Y-90976396D01*
X41811852Y-90971865D01*
X41811855Y-90971862D01*
X41942621Y-90821167D01*
X41946552Y-90816637D01*
X41949552Y-90811451D01*
X41949555Y-90811447D01*
X42049467Y-90638742D01*
X42052473Y-90633546D01*
X42121861Y-90433729D01*
X42152213Y-90224396D01*
X42142433Y-90013101D01*
X42092875Y-89807466D01*
X42080354Y-89779926D01*
X42007806Y-89620368D01*
X42005326Y-89614913D01*
X41882946Y-89442389D01*
X41751525Y-89316581D01*
X41734480Y-89300264D01*
X41730150Y-89296119D01*
X41552452Y-89181380D01*
X41454750Y-89142005D01*
X41361832Y-89104558D01*
X41361829Y-89104557D01*
X41356263Y-89102314D01*
X41148663Y-89061772D01*
X41143101Y-89061500D01*
X40187154Y-89061500D01*
X40029434Y-89076548D01*
X39826466Y-89136092D01*
X39821139Y-89138836D01*
X39821138Y-89138836D01*
X39643751Y-89230196D01*
X39643748Y-89230198D01*
X39638420Y-89232942D01*
X39472080Y-89363604D01*
X39468148Y-89368135D01*
X39468145Y-89368138D01*
X39399474Y-89447275D01*
X39333448Y-89523363D01*
X39330448Y-89528549D01*
X39330445Y-89528553D01*
X39283312Y-89610026D01*
X39227527Y-89706454D01*
X39158139Y-89906271D01*
X39157278Y-89912206D01*
X39157278Y-89912208D01*
X39133722Y-90074674D01*
X39127787Y-90115604D01*
X38608500Y-90115604D01*
X38608500Y-87897399D01*
X39164712Y-87897399D01*
X39186194Y-87986537D01*
X39190083Y-87997832D01*
X39272629Y-88179382D01*
X39278576Y-88189724D01*
X39393968Y-88352397D01*
X39401761Y-88361425D01*
X39545831Y-88499342D01*
X39555196Y-88506738D01*
X39722741Y-88614921D01*
X39733345Y-88620417D01*
X39918312Y-88694961D01*
X39929770Y-88698355D01*
X40126928Y-88736857D01*
X40135791Y-88737934D01*
X40138500Y-88738000D01*
X40367885Y-88738000D01*
X40383124Y-88733525D01*
X40384329Y-88732135D01*
X40386000Y-88724452D01*
X40386000Y-88719885D01*
X40894000Y-88719885D01*
X40898475Y-88735124D01*
X40899865Y-88736329D01*
X40907548Y-88738000D01*
X41089832Y-88738000D01*
X41095808Y-88737715D01*
X41244494Y-88723529D01*
X41256228Y-88721270D01*
X41447599Y-88665128D01*
X41458675Y-88660698D01*
X41635978Y-88569381D01*
X41646024Y-88562931D01*
X41802857Y-88439738D01*
X41811506Y-88431501D01*
X41942212Y-88280877D01*
X41949147Y-88271153D01*
X42049010Y-88098533D01*
X42053984Y-88087669D01*
X42119407Y-87899273D01*
X42119648Y-87898284D01*
X42118180Y-87887992D01*
X42104615Y-87884000D01*
X40912115Y-87884000D01*
X40896876Y-87888475D01*
X40895671Y-87889865D01*
X40894000Y-87897548D01*
X40894000Y-88719885D01*
X40386000Y-88719885D01*
X40386000Y-87902115D01*
X40381525Y-87886876D01*
X40380135Y-87885671D01*
X40372452Y-87884000D01*
X39179598Y-87884000D01*
X39166067Y-87887973D01*
X39164712Y-87897399D01*
X38608500Y-87897399D01*
X38608500Y-87361716D01*
X39160352Y-87361716D01*
X39161820Y-87372008D01*
X39175385Y-87376000D01*
X40367885Y-87376000D01*
X40383124Y-87371525D01*
X40384329Y-87370135D01*
X40386000Y-87362452D01*
X40386000Y-87357885D01*
X40894000Y-87357885D01*
X40898475Y-87373124D01*
X40899865Y-87374329D01*
X40907548Y-87376000D01*
X42100402Y-87376000D01*
X42113933Y-87372027D01*
X42115288Y-87362601D01*
X42093806Y-87273463D01*
X42089917Y-87262168D01*
X42007371Y-87080618D01*
X42001424Y-87070276D01*
X41886032Y-86907603D01*
X41878239Y-86898575D01*
X41734169Y-86760658D01*
X41724804Y-86753262D01*
X41557259Y-86645079D01*
X41546655Y-86639583D01*
X41361688Y-86565039D01*
X41350230Y-86561645D01*
X41153072Y-86523143D01*
X41144209Y-86522066D01*
X41141500Y-86522000D01*
X40912115Y-86522000D01*
X40896876Y-86526475D01*
X40895671Y-86527865D01*
X40894000Y-86535548D01*
X40894000Y-87357885D01*
X40386000Y-87357885D01*
X40386000Y-86540115D01*
X40381525Y-86524876D01*
X40380135Y-86523671D01*
X40372452Y-86522000D01*
X40190168Y-86522000D01*
X40184192Y-86522285D01*
X40035506Y-86536471D01*
X40023772Y-86538730D01*
X39832401Y-86594872D01*
X39821325Y-86599302D01*
X39644022Y-86690619D01*
X39633976Y-86697069D01*
X39477143Y-86820262D01*
X39468494Y-86828499D01*
X39337788Y-86979123D01*
X39330853Y-86988847D01*
X39230990Y-87161467D01*
X39226016Y-87172331D01*
X39160593Y-87360727D01*
X39160352Y-87361716D01*
X38608500Y-87361716D01*
X38608500Y-84593386D01*
X84956528Y-84593386D01*
X84962362Y-84603151D01*
X86347190Y-85987980D01*
X86361131Y-85995592D01*
X86362966Y-85995461D01*
X86369580Y-85991210D01*
X87755884Y-84604905D01*
X87763399Y-84591144D01*
X87756941Y-84581784D01*
X87740639Y-84567488D01*
X87734099Y-84562470D01*
X87494856Y-84402613D01*
X87487719Y-84398492D01*
X87229651Y-84271228D01*
X87222047Y-84268078D01*
X86949580Y-84175588D01*
X86941617Y-84173454D01*
X86659400Y-84117317D01*
X86651249Y-84116244D01*
X86364119Y-84097425D01*
X86355881Y-84097425D01*
X86068751Y-84116244D01*
X86060600Y-84117317D01*
X85778383Y-84173454D01*
X85770420Y-84175588D01*
X85497953Y-84268078D01*
X85490349Y-84271228D01*
X85232282Y-84398492D01*
X85225145Y-84402613D01*
X84985901Y-84562470D01*
X84979361Y-84567488D01*
X84964926Y-84580147D01*
X84956528Y-84593386D01*
X38608500Y-84593386D01*
X38608500Y-81914500D01*
X38628502Y-81846379D01*
X38682158Y-81799886D01*
X38734500Y-81788500D01*
X88265500Y-81788500D01*
X88333621Y-81808502D01*
G37*
%TD.AperFunction*%
%TD*%
M02*
